999
DXF file generated by netDxf https://github.com/haplokuon/netDxf, Copyright(C) Daniel Carvajal, Licensed under MIT
0
SECTION
2
HEADER
9
$ACADVER
1
AC1015
9
$DWGCODEPAGE
3
ANSI_1252
9
$HANDSEED
5
1CE
9
$ANGBASE
50
0.0
9
$ANGDIR
70
0
9
$ATTMODE
70
1
9
$AUNITS
70
0
9
$AUPREC
70
0
9
$CECOLOR
62
256
9
$CELTSCALE
40
1.0
9
$CELTYPE
6
ByLayer
9
$CELWEIGHT
370
-1
9
$CLAYER
8
0
9
$CMLJUST
70
0
9
$CMLSCALE
40
20.0
9
$CMLSTYLE
2
Standard
9
$DIMSTYLE
2
Standard
9
$TEXTSIZE
40
2.5
9
$TEXTSTYLE
7
Standard
9
$LUNITS
70
2
9
$LUPREC
70
4
9
$MIRRTEXT
70
0
9
$EXTNAMES
290
1
9
$INSBASE
10
0.0
20
0.0
30
0.0
9
$INSUNITS
70
4
9
$LTSCALE
40
1.0
9
$LWDISPLAY
290
0
9
$PDMODE
70
0
9
$PDSIZE
40
0.0
9
$PLINEGEN
70
0
9
$PSLTSCALE
70
1
9
$SPLINESEGS
70
8
9
$SURFU
70
6
9
$SURFV
70
6
9
$TDCREATE
40
2459888.87782992
9
$TDUCREATE
40
2459888.83616325
9
$TDUPDATE
40
2459888.87782992
9
$TDUUPDATE
40
2459888.83616325
9
$TDINDWG
40
0.0
9
$UCSORG
10
0.0
20
0.0
30
0.0
9
$UCSXDIR
10
1.0
20
0.0
30
0.0
9
$UCSYDIR
10
0.0
20
1.0
30
0.0
9
$DIMADEC
70
0
9
$DIMALT
70
0
9
$DIMALTD
70
2
9
$DIMALTF
40
25.4
9
$DIMALTRND
40
0.0
9
$DIMALTTD
70
2
9
$DIMALTTZ
70
0
9
$DIMALTU
70
2
9
$DIMALTZ
70
0
9
$DIMAPOST
1
[]
9
$DIMATFIT
70
3
9
$DIMAUNIT
70
0
9
$DIMASZ
40
0.18
9
$DIMAZIN
70
0
9
$DIMSAH
70
0
9
$DIMBLK
1

9
$DIMLDRBLK
1

9
$DIMCEN
40
0.09
9
$DIMCLRD
70
0
9
$DIMCLRE
70
0
9
$DIMCLRT
70
0
9
$DIMDEC
70
4
9
$DIMDLE
40
0.0
9
$DIMDLI
40
0.38
9
$DIMDSEP
70
46
9
$DIMEXE
40
0.18
9
$DIMEXO
40
0.0625
9
$DIMFXLON
70
0
9
$DIMFXL
40
1.0
9
$DIMGAP
40
0.09
9
$DIMJUST
70
0
9
$DIMLFAC
40
1.0
9
$DIMLUNIT
70
2
9
$DIMLWD
70
-2
9
$DIMLWE
70
-2
9
$DIMPOST
1
<>
9
$DIMRND
40
0.0
9
$DIMSCALE
40
1.0
9
$DIMSD1
70
0
9
$DIMSD2
70
0
9
$DIMSE1
70
0
9
$DIMSE2
70
0
9
$DIMSOXD
70
0
9
$DIMTAD
70
0
9
$DIMTDEC
70
4
9
$DIMTFAC
40
1.0
9
$DIMTIH
70
0
9
$DIMTIX
70
0
9
$DIMTM
40
0.0
9
$DIMTMOVE
70
0
9
$DIMTOFL
70
0
9
$DIMTOH
70
0
9
$DIMTOL
70
0
9
$DIMLIM
70
0
9
$DIMTOLJ
70
1
9
$DIMTP
40
0.0
9
$DIMTXT
40
0.18
9
$DIMTXTDIRECTION
70
0
9
$DIMTZIN
70
0
9
$DIMZIN
70
0
9
$DIMFRAC
70
0
9
$DIMLTYPE
6
ByBlock
9
$DIMLTEX1
6
ByBlock
9
$DIMLTEX2
6
ByBlock
0
ENDSEC
0
SECTION
2
CLASSES
0
CLASS
1
RASTERVARIABLES
2
AcDbRasterVariables
3
ISM
90
0
280
0
281
0
0
ENDSEC
0
SECTION
2
TABLES
0
TABLE
2
APPID
5
4
330
0
100
AcDbSymbolTable
70
5
0
APPID
5
19
330
4
100
AcDbSymbolTableRecord
100
AcDbRegAppTableRecord
2
ACAD
70
0
0
APPID
5
1C8
330
4
100
AcDbSymbolTableRecord
100
AcDbRegAppTableRecord
2
AcCmTransparency
70
0
0
APPID
5
1C9
330
4
100
AcDbSymbolTableRecord
100
AcDbRegAppTableRecord
2
AcAecLayerStandard
70
0
0
APPID
5
1CA
330
4
100
AcDbSymbolTableRecord
100
AcDbRegAppTableRecord
2
GradientColor1ACI
70
0
0
APPID
5
1CB
330
4
100
AcDbSymbolTableRecord
100
AcDbRegAppTableRecord
2
GradientColor2ACI
70
0
0
ENDTAB
0
TABLE
2
VPORT
5
1
330
0
100
AcDbSymbolTable
70
1
0
VPORT
5
2
330
1
100
AcDbSymbolTableRecord
100
AcDbViewportTableRecord
2
*Active
70
0
10
0.0
20
0.0
11
1.0
21
1.0
12
0.0
22
0.0
13
0.0
23
0.0
14
0.5
24
0.5
15
10.0
25
10.0
16
0.0
26
0.0
36
1.0
17
0.0
27
0.0
37
0.0
40
10.0
41
1.0
75
0
76
1
0
ENDTAB
0
TABLE
2
LTYPE
5
7
330
0
100
AcDbSymbolTable
70
3
0
LTYPE
5
15
330
7
100
AcDbSymbolTableRecord
100
AcDbLinetypeTableRecord
2
Continuous
70
0
3
Solid line
72
65
73
0
40
0.0
0
LTYPE
5
16
330
7
100
AcDbSymbolTableRecord
100
AcDbLinetypeTableRecord
2
ByLayer
70
0
3

72
65
73
0
40
0.0
0
LTYPE
5
17
330
7
100
AcDbSymbolTableRecord
100
AcDbLinetypeTableRecord
2
ByBlock
70
0
3

72
65
73
0
40
0.0
0
ENDTAB
0
TABLE
2
LAYER
5
5
102
{ACAD_XDICTIONARY
360
6
102
}
330
0
100
AcDbSymbolTable
70
2
0
LAYER
5
14
330
5
100
AcDbSymbolTableRecord
100
AcDbLayerTableRecord
2
0
70
0
62
7
6
Continuous
290
1
370
-3
390
0
0
LAYER
5
25
330
5
100
AcDbSymbolTableRecord
100
AcDbLayerTableRecord
2
DBDT
70
0
62
5
6
Continuous
290
1
370
-3
390
0
0
ENDTAB
0
TABLE
2
STYLE
5
8
330
0
100
AcDbSymbolTable
70
1
0
STYLE
5
18
330
8
100
AcDbSymbolTableRecord
100
AcDbTextStyleTableRecord
2
Standard
3
simplex.shx
70
0
71
0
40
0.0
41
1.0
42
0.0
50
0.0
0
ENDTAB
0
TABLE
2
DIMSTYLE
5
A
330
0
100
AcDbSymbolTable
70
1
100
AcDbDimStyleTable
0
DIMSTYLE
105
1A
330
A
100
AcDbSymbolTableRecord
100
AcDbDimStyleTableRecord
2
Standard
3
<>
4
[]
40
1.0
41
0.18
42
0.0625
43
0.38
44
0.18
45
0.0
46
0.0
47
0.0
48
0.0
49
1.0
70
0
71
0
72
0
73
0
74
0
75
0
76
0
77
0
78
0
79
0
140
0.18
141
0.09
143
25.4
144
1.0
146
1.0
147
0.09
148
0.0
170
0
171
2
172
0
174
0
175
0
176
0
177
0
178
0
179
0
271
4
272
4
273
2
274
2
275
0
276
0
277
2
278
46
279
0
280
0
281
0
282
0
283
1
284
0
285
0
286
0
289
3
290
0
294
0
340
18
173
0
345
17
346
17
347
17
371
-2
372
-2
0
ENDTAB
0
TABLE
2
VIEW
5
3
330
0
100
AcDbSymbolTable
70
0
0
ENDTAB
0
TABLE
2
UCS
5
C
330
0
100
AcDbSymbolTable
70
0
0
ENDTAB
0
TABLE
2
BLOCK_RECORD
5
D
330
0
100
AcDbSymbolTable
70
3
0
BLOCK_RECORD
5
1C
330
D
100
AcDbSymbolTableRecord
100
AcDbBlockTableRecord
2
*Model_Space
340
20
0
BLOCK_RECORD
5
22
330
D
100
AcDbSymbolTableRecord
100
AcDbBlockTableRecord
2
BaseBlock
340
0
70
4
280
1
281
0
1001
ACAD
1000
DesignCenter Data
1002
{
1070
1
1070
4
1002
}
0
BLOCK_RECORD
5
1C2
330
D
100
AcDbSymbolTableRecord
100
AcDbBlockTableRecord
2
*Paper_Space
340
1C7
0
ENDTAB
0
ENDSEC
0
SECTION
2
BLOCKS
0
BLOCK
5
1E
330
1C
100
AcDbEntity
67
0
8
0
100
AcDbBlockBegin
2
*Model_Space
70
0
10
0.0
20
0.0
30
0.0
3
*Model_Space
4

0
ENDBLK
5
1D
330
1C
100
AcDbEntity
8
0
100
AcDbBlockEnd
0
BLOCK
5
24
330
22
100
AcDbEntity
8
0
100
AcDbBlockBegin
2
BaseBlock
70
0
10
0.0
20
0.0
30
0.0
3
BaseBlock
4

0
ENDBLK
5
23
330
22
100
AcDbEntity
8
0
100
AcDbBlockEnd
0
BLOCK
5
1C4
330
1C2
100
AcDbEntity
67
1
8
0
100
AcDbBlockBegin
2
*Paper_Space
70
0
10
0.0
20
0.0
30
0.0
3
*Paper_Space
4

0
ENDBLK
5
1C3
330
1C2
100
AcDbEntity
8
0
100
AcDbBlockEnd
0
ENDSEC
0
SECTION
2
ENTITIES
0
LINE
5
26
330
1C
100
AcDbEntity
67
0
8
DBDT
62
256
6
ByLayer
370
-1
48
1.0
60
0
100
AcDbLine
10
660.8
20
61.6
30
0.0
11
660.8
21
561.6
31
0.0
39
0.0
210
0.0
220
0.0
230
1.0
0
LINE
5
27
330
1C
100
AcDbEntity
67
0
8
DBDT
62
256
6
ByLayer
370
-1
48
1.0
60
0
100
AcDbLine
10
660.8
20
311.6
30
0.0
11
910.8
21
311.6
31
0.0
39
0.0
210
0.0
220
0.0
230
1.0
0
LINE
5
28
330
1C
100
AcDbEntity
67
0
8
DBDT
62
256
6
ByLayer
370
-1
48
1.0
60
0
100
AcDbLine
10
660.8
20
311.6
30
0.0
11
410.8
21
311.6
31
0.0
39
0.0
210
0.0
220
0.0
230
1.0
0
LINE
5
29
330
1C
100
AcDbEntity
67
0
8
DBDT
62
256
6
ByLayer
370
-1
48
1.0
60
0
100
AcDbLine
10
660.8
20
411.6
30
0.0
11
410.8
21
411.6
31
0.0
39
0.0
210
0.0
220
0.0
230
1.0
0
LINE
5
2A
330
1C
100
AcDbEntity
67
0
8
DBDT
62
256
6
ByLayer
370
-1
48
1.0
60
0
100
AcDbLine
10
660.8
20
511.6
30
0.0
11
410.8
21
511.6
31
0.0
39
0.0
210
0.0
220
0.0
230
1.0
0
LINE
5
2B
330
1C
100
AcDbEntity
67
0
8
DBDT
62
256
6
ByLayer
370
-1
48
1.0
60
0
100
AcDbLine
10
660.8
20
211.6
30
0.0
11
410.8
21
211.6
31
0.0
39
0.0
210
0.0
220
0.0
230
1.0
0
LINE
5
2C
330
1C
100
AcDbEntity
67
0
8
DBDT
62
256
6
ByLayer
370
-1
48
1.0
60
0
100
AcDbLine
10
660.8
20
411.6
30
0.0
11
410.8
21
411.6
31
0.0
39
0.0
210
0.0
220
0.0
230
1.0
0
LINE
5
2D
330
1C
100
AcDbEntity
67
0
8
DBDT
62
256
6
ByLayer
370
-1
48
1.0
60
0
100
AcDbLine
10
660.8
20
111.6
30
0.0
11
410.8
21
111.6
31
0.0
39
0.0
210
0.0
220
0.0
230
1.0
0
LINE
5
2E
330
1C
100
AcDbEntity
67
0
8
DBDT
62
256
6
ByLayer
370
-1
48
1.0
60
0
100
AcDbLine
10
660.8
20
311.6
30
0.0
11
410.8
21
311.6
31
0.0
39
0.0
210
0.0
220
0.0
230
1.0
0
LINE
5
2F
330
1C
100
AcDbEntity
67
0
8
DBDT
62
256
6
ByLayer
370
-1
48
1.0
60
0
100
AcDbLine
10
660.8
20
211.6
30
0.0
11
410.8
21
211.6
31
0.0
39
0.0
210
0.0
220
0.0
230
1.0
0
LINE
5
30
330
1C
100
AcDbEntity
67
0
8
DBDT
62
256
6
ByLayer
370
-1
48
1.0
60
0
100
AcDbLine
10
660.8
20
411.6
30
0.0
11
410.8
21
411.6
31
0.0
39
0.0
210
0.0
220
0.0
230
1.0
0
LINE
5
31
330
1C
100
AcDbEntity
67
0
8
DBDT
62
256
6
ByLayer
370
-1
48
1.0
60
0
100
AcDbLine
10
560.8
20
61.6
30
0.0
11
560.8
21
561.6
31
0.0
39
0.0
210
0.0
220
0.0
230
1.0
0
LINE
5
32
330
1C
100
AcDbEntity
67
0
8
DBDT
62
256
6
ByLayer
370
-1
48
1.0
60
0
100
AcDbLine
10
460.8
20
61.6
30
0.0
11
460.8
21
561.6
31
0.0
39
0.0
210
0.0
220
0.0
230
1.0
0
LINE
5
33
330
1C
100
AcDbEntity
67
0
8
DBDT
62
256
6
ByLayer
370
-1
48
1.0
60
0
100
AcDbLine
10
760.8
20
61.6
30
0.0
11
760.8
21
561.6
31
0.0
39
0.0
210
0.0
220
0.0
230
1.0
0
LINE
5
34
330
1C
100
AcDbEntity
67
0
8
DBDT
62
256
6
ByLayer
370
-1
48
1.0
60
0
100
AcDbLine
10
860.8
20
61.6
30
0.0
11
860.8
21
561.6
31
0.0
39
0.0
210
0.0
220
0.0
230
1.0
0
LINE
5
35
330
1C
100
AcDbEntity
67
0
8
DBDT
62
256
6
ByLayer
370
-1
48
1.0
60
0
100
AcDbLine
10
760.8
20
61.6
30
0.0
11
760.8
21
561.6
31
0.0
39
0.0
210
0.0
220
0.0
230
1.0
0
LINE
5
36
330
1C
100
AcDbEntity
67
0
8
DBDT
62
256
6
ByLayer
370
-1
48
1.0
60
0
100
AcDbLine
10
563.22
20
434.726
30
0.0
11
563.22
21
484.726
31
0.0
39
0.0
210
0.0
220
0.0
230
1.0
0
LINE
5
37
330
1C
100
AcDbEntity
67
0
8
DBDT
62
256
6
ByLayer
370
-1
48
1.0
60
0
100
AcDbLine
10
588.219
20
509.726
30
0.0
11
638.22
21
509.726
31
0.0
39
0.0
210
0.0
220
0.0
230
1.0
0
LINE
5
38
330
1C
100
AcDbEntity
67
0
8
DBDT
62
256
6
ByLayer
370
-1
48
1.0
60
0
100
AcDbLine
10
663.22
20
484.726
30
0.0
11
663.22
21
434.726
31
0.0
39
0.0
210
0.0
220
0.0
230
1.0
0
LINE
5
39
330
1C
100
AcDbEntity
67
0
8
DBDT
62
256
6
ByLayer
370
-1
48
1.0
60
0
100
AcDbLine
10
638.22
20
409.726
30
0.0
11
588.22
21
409.726
31
0.0
39
0.0
210
0.0
220
0.0
230
1.0
0
ARC
5
3A
330
1C
100
AcDbEntity
67
0
8
DBDT
62
256
6
ByLayer
370
-1
48
1.0
60
0
100
AcDbCircle
39
0.0
10
588.22
20
434.726
30
0.0
40
25.0
210
0.0
220
0.0
230
1.0
100
AcDbArc
50
180.0
51
270.0
0
ARC
5
3B
330
1C
100
AcDbEntity
67
0
8
DBDT
62
256
6
ByLayer
370
-1
48
1.0
60
0
100
AcDbCircle
39
0.0
10
588.22
20
484.726
30
0.0
40
25.0
210
0.0
220
0.0
230
1.0
100
AcDbArc
50
90.0
51
180.0
0
ARC
5
3C
330
1C
100
AcDbEntity
67
0
8
DBDT
62
256
6
ByLayer
370
-1
48
1.0
60
0
100
AcDbCircle
39
0.0
10
638.22
20
484.726
30
0.0
40
25.0
210
0.0
220
0.0
230
1.0
100
AcDbArc
50
0.0
51
90.0
0
ARC
5
3D
330
1C
100
AcDbEntity
67
0
8
DBDT
62
256
6
ByLayer
370
-1
48
1.0
60
0
100
AcDbCircle
39
0.0
10
638.22
20
434.726
30
0.0
40
25.0
210
0.0
220
0.0
230
1.0
100
AcDbArc
50
270.0
51
0.0
0
LINE
5
3E
330
1C
100
AcDbEntity
67
0
8
DBDT
62
256
6
ByLayer
370
-1
48
1.0
60
0
100
AcDbLine
10
460.4
20
106.4
30
0.0
11
482.4
21
84.4
31
0.0
39
0.0
210
0.0
220
0.0
230
1.0
0
VIEWPORT
5
40
330
1C
100
AcDbEntity
67
0
8
0
62
256
6
ByLayer
370
-1
48
1.0
60
0
100
AcDbViewport
10
562.4
20
186.4
30
0.0
40
200.0
41
150.0
68
2
69
2
12
0.0
22
0.0
13
0.0
23
0.0
14
10.0
24
10.0
15
10.0
25
10.0
16
0.0
26
0.0
36
1.0
17
0.0
27
0.0
37
0.0
42
50.0
43
0.0
44
0.0
45
250.0
50
0.0
51
0.0
72
1000
90
885280
340
3F
110
0.0
120
0.0
130
0.0
111
1.0
121
0.0
131
0.0
112
0.0
122
1.0
132
0.0
0
ELLIPSE
5
3F
102
{ACAD_REACTORS
330
40
102
}
330
1C
100
AcDbEntity
67
0
8
DBDT
62
256
6
ByLayer
370
-1
48
1.0
60
0
100
AcDbEllipse
10
562.4
20
186.4
30
0.0
11
100.0
21
0.0
31
0.0
210
0.0
220
0.0
230
1.0
40
0.75
41
0.0
42
6.28318530717959
0
LINE
5
41
330
1C
100
AcDbEntity
67
0
8
DBDT
62
256
6
ByLayer
370
-1
48
1.0
60
0
100
AcDbLine
10
707.6
20
352.4
30
0.0
11
707.6
21
452.4
31
0.0
39
0.0
210
0.0
220
0.0
230
1.0
0
LINE
5
42
330
1C
100
AcDbEntity
67
0
8
DBDT
62
256
6
ByLayer
370
-1
48
1.0
60
0
100
AcDbLine
10
707.6
20
452.4
30
0.0
11
807.6
21
452.4
31
0.0
39
0.0
210
0.0
220
0.0
230
1.0
0
LINE
5
43
330
1C
100
AcDbEntity
67
0
8
DBDT
62
256
6
ByLayer
370
-1
48
1.0
60
0
100
AcDbLine
10
807.6
20
452.4
30
0.0
11
807.6
21
352.4
31
0.0
39
0.0
210
0.0
220
0.0
230
1.0
0
LINE
5
44
330
1C
100
AcDbEntity
67
0
8
DBDT
62
256
6
ByLayer
370
-1
48
1.0
60
0
100
AcDbLine
10
807.6
20
352.4
30
0.0
11
707.6
21
352.4
31
0.0
39
0.0
210
0.0
220
0.0
230
1.0
0
LINE
5
45
330
1C
100
AcDbEntity
67
0
8
DBDT
62
256
6
ByLayer
370
-1
48
1.0
60
0
100
AcDbLine
10
707.6
20
352.4
30
0.0
11
757.6
21
402.4
31
0.0
39
0.0
210
0.0
220
0.0
230
1.0
0
LINE
5
46
330
1C
100
AcDbEntity
67
0
8
DBDT
62
256
6
ByLayer
370
-1
48
1.0
60
0
100
AcDbLine
10
586.2
20
461.2
30
0.0
11
636.2
21
461.2
31
0.0
39
0.0
210
0.0
220
0.0
230
1.0
0
LINE
5
47
330
1C
100
AcDbEntity
67
0
8
DBDT
62
256
6
ByLayer
370
-1
48
1.0
60
0
100
AcDbLine
10
661.2
20
436.2
30
0.0
11
661.2
21
386.2
31
0.0
39
0.0
210
0.0
220
0.0
230
1.0
0
LINE
5
48
330
1C
100
AcDbEntity
67
0
8
DBDT
62
256
6
ByLayer
370
-1
48
1.0
60
0
100
AcDbLine
10
636.2
20
361.2
30
0.0
11
586.2
21
361.2
31
0.0
39
0.0
210
0.0
220
0.0
230
1.0
0
LINE
5
49
330
1C
100
AcDbEntity
67
0
8
DBDT
62
256
6
ByLayer
370
-1
48
1.0
60
0
100
AcDbLine
10
561.2
20
386.2
30
0.0
11
561.2
21
436.2
31
0.0
39
0.0
210
0.0
220
0.0
230
1.0
0
ARC
5
4A
330
1C
100
AcDbEntity
67
0
8
DBDT
62
256
6
ByLayer
370
-1
48
1.0
60
0
100
AcDbCircle
39
0.0
10
586.2
20
436.2
30
0.0
40
25.0
210
0.0
220
0.0
230
1.0
100
AcDbArc
50
90.0
51
180.0
0
ARC
5
4B
330
1C
100
AcDbEntity
67
0
8
DBDT
62
256
6
ByLayer
370
-1
48
1.0
60
0
100
AcDbCircle
39
0.0
10
636.2
20
436.2
30
0.0
40
25.0
210
0.0
220
0.0
230
1.0
100
AcDbArc
50
0.0
51
90.0
0
ARC
5
4C
330
1C
100
AcDbEntity
67
0
8
DBDT
62
256
6
ByLayer
370
-1
48
1.0
60
0
100
AcDbCircle
39
0.0
10
636.2
20
386.2
30
0.0
40
25.0
210
0.0
220
0.0
230
1.0
100
AcDbArc
50
270.0
51
0.0
0
ARC
5
4D
330
1C
100
AcDbEntity
67
0
8
DBDT
62
256
6
ByLayer
370
-1
48
1.0
60
0
100
AcDbCircle
39
0.0
10
586.2
20
386.2
30
0.0
40
25.0
210
0.0
220
0.0
230
1.0
100
AcDbArc
50
180.0
51
270.0
0
LINE
5
4E
330
1C
100
AcDbEntity
67
0
8
DBDT
62
256
6
ByLayer
370
-1
48
1.0
60
0
100
AcDbLine
10
836.5
20
324.25
30
0.0
11
836.522
21
323.457
31
0.0
39
0.0
210
0.0
220
0.0
230
1.0
0
LINE
5
4F
330
1C
100
AcDbEntity
67
0
8
DBDT
62
256
6
ByLayer
370
-1
48
1.0
60
0
100
AcDbLine
10
836.522
20
323.457
30
0.0
11
836.588
21
322.664
31
0.0
39
0.0
210
0.0
220
0.0
230
1.0
0
LINE
5
50
330
1C
100
AcDbEntity
67
0
8
DBDT
62
256
6
ByLayer
370
-1
48
1.0
60
0
100
AcDbLine
10
836.588
20
322.664
30
0.0
11
836.698
21
321.874
31
0.0
39
0.0
210
0.0
220
0.0
230
1.0
0
LINE
5
51
330
1C
100
AcDbEntity
67
0
8
DBDT
62
256
6
ByLayer
370
-1
48
1.0
60
0
100
AcDbLine
10
836.698
20
321.874
30
0.0
11
836.852
21
321.085
31
0.0
39
0.0
210
0.0
220
0.0
230
1.0
0
LINE
5
52
330
1C
100
AcDbEntity
67
0
8
DBDT
62
256
6
ByLayer
370
-1
48
1.0
60
0
100
AcDbLine
10
836.852
20
321.085
30
0.0
11
837.05
21
320.3
31
0.0
39
0.0
210
0.0
220
0.0
230
1.0
0
LINE
5
53
330
1C
100
AcDbEntity
67
0
8
DBDT
62
256
6
ByLayer
370
-1
48
1.0
60
0
100
AcDbLine
10
837.05
20
320.3
30
0.0
11
837.291
21
319.519
31
0.0
39
0.0
210
0.0
220
0.0
230
1.0
0
LINE
5
54
330
1C
100
AcDbEntity
67
0
8
DBDT
62
256
6
ByLayer
370
-1
48
1.0
60
0
100
AcDbLine
10
837.291
20
319.519
30
0.0
11
837.575
21
318.742
31
0.0
39
0.0
210
0.0
220
0.0
230
1.0
0
LINE
5
55
330
1C
100
AcDbEntity
67
0
8
DBDT
62
256
6
ByLayer
370
-1
48
1.0
60
0
100
AcDbLine
10
837.575
20
318.742
30
0.0
11
837.902
21
317.971
31
0.0
39
0.0
210
0.0
220
0.0
230
1.0
0
LINE
5
56
330
1C
100
AcDbEntity
67
0
8
DBDT
62
256
6
ByLayer
370
-1
48
1.0
60
0
100
AcDbLine
10
837.902
20
317.971
30
0.0
11
838.272
21
317.207
31
0.0
39
0.0
210
0.0
220
0.0
230
1.0
0
LINE
5
57
330
1C
100
AcDbEntity
67
0
8
DBDT
62
256
6
ByLayer
370
-1
48
1.0
60
0
100
AcDbLine
10
838.272
20
317.207
30
0.0
11
838.684
21
316.449
31
0.0
39
0.0
210
0.0
220
0.0
230
1.0
0
LINE
5
58
330
1C
100
AcDbEntity
67
0
8
DBDT
62
256
6
ByLayer
370
-1
48
1.0
60
0
100
AcDbLine
10
838.684
20
316.449
30
0.0
11
839.138
21
315.699
31
0.0
39
0.0
210
0.0
220
0.0
230
1.0
0
LINE
5
59
330
1C
100
AcDbEntity
67
0
8
DBDT
62
256
6
ByLayer
370
-1
48
1.0
60
0
100
AcDbLine
10
839.138
20
315.699
30
0.0
11
839.634
21
314.958
31
0.0
39
0.0
210
0.0
220
0.0
230
1.0
0
LINE
5
5A
330
1C
100
AcDbEntity
67
0
8
DBDT
62
256
6
ByLayer
370
-1
48
1.0
60
0
100
AcDbLine
10
839.634
20
314.958
30
0.0
11
840.17
21
314.227
31
0.0
39
0.0
210
0.0
220
0.0
230
1.0
0
LINE
5
5B
330
1C
100
AcDbEntity
67
0
8
DBDT
62
256
6
ByLayer
370
-1
48
1.0
60
0
100
AcDbLine
10
840.17
20
314.227
30
0.0
11
840.747
21
313.505
31
0.0
39
0.0
210
0.0
220
0.0
230
1.0
0
LINE
5
5C
330
1C
100
AcDbEntity
67
0
8
DBDT
62
256
6
ByLayer
370
-1
48
1.0
60
0
100
AcDbLine
10
840.747
20
313.505
30
0.0
11
841.363
21
312.794
31
0.0
39
0.0
210
0.0
220
0.0
230
1.0
0
LINE
5
5D
330
1C
100
AcDbEntity
67
0
8
DBDT
62
256
6
ByLayer
370
-1
48
1.0
60
0
100
AcDbLine
10
841.363
20
312.794
30
0.0
11
842.019
21
312.095
31
0.0
39
0.0
210
0.0
220
0.0
230
1.0
0
LINE
5
5E
330
1C
100
AcDbEntity
67
0
8
DBDT
62
256
6
ByLayer
370
-1
48
1.0
60
0
100
AcDbLine
10
842.019
20
312.095
30
0.0
11
842.713
21
311.408
31
0.0
39
0.0
210
0.0
220
0.0
230
1.0
0
LINE
5
5F
330
1C
100
AcDbEntity
67
0
8
DBDT
62
256
6
ByLayer
370
-1
48
1.0
60
0
100
AcDbLine
10
842.713
20
311.408
30
0.0
11
843.445
21
310.734
31
0.0
39
0.0
210
0.0
220
0.0
230
1.0
0
LINE
5
60
330
1C
100
AcDbEntity
67
0
8
DBDT
62
256
6
ByLayer
370
-1
48
1.0
60
0
100
AcDbLine
10
843.445
20
310.734
30
0.0
11
844.214
21
310.074
31
0.0
39
0.0
210
0.0
220
0.0
230
1.0
0
LINE
5
61
330
1C
100
AcDbEntity
67
0
8
DBDT
62
256
6
ByLayer
370
-1
48
1.0
60
0
100
AcDbLine
10
844.214
20
310.074
30
0.0
11
845.019
21
309.427
31
0.0
39
0.0
210
0.0
220
0.0
230
1.0
0
LINE
5
62
330
1C
100
AcDbEntity
67
0
8
DBDT
62
256
6
ByLayer
370
-1
48
1.0
60
0
100
AcDbLine
10
845.019
20
309.427
30
0.0
11
845.86
21
308.796
31
0.0
39
0.0
210
0.0
220
0.0
230
1.0
0
LINE
5
63
330
1C
100
AcDbEntity
67
0
8
DBDT
62
256
6
ByLayer
370
-1
48
1.0
60
0
100
AcDbLine
10
845.86
20
308.796
30
0.0
11
846.736
21
308.18
31
0.0
39
0.0
210
0.0
220
0.0
230
1.0
0
LINE
5
64
330
1C
100
AcDbEntity
67
0
8
DBDT
62
256
6
ByLayer
370
-1
48
1.0
60
0
100
AcDbLine
10
846.736
20
308.18
30
0.0
11
847.645
21
307.581
31
0.0
39
0.0
210
0.0
220
0.0
230
1.0
0
LINE
5
65
330
1C
100
AcDbEntity
67
0
8
DBDT
62
256
6
ByLayer
370
-1
48
1.0
60
0
100
AcDbLine
10
847.645
20
307.581
30
0.0
11
848.587
21
306.998
31
0.0
39
0.0
210
0.0
220
0.0
230
1.0
0
LINE
5
66
330
1C
100
AcDbEntity
67
0
8
DBDT
62
256
6
ByLayer
370
-1
48
1.0
60
0
100
AcDbLine
10
848.587
20
306.998
30
0.0
11
849.56
21
306.433
31
0.0
39
0.0
210
0.0
220
0.0
230
1.0
0
LINE
5
67
330
1C
100
AcDbEntity
67
0
8
DBDT
62
256
6
ByLayer
370
-1
48
1.0
60
0
100
AcDbLine
10
849.56
20
306.433
30
0.0
11
850.565
21
305.885
31
0.0
39
0.0
210
0.0
220
0.0
230
1.0
0
LINE
5
68
330
1C
100
AcDbEntity
67
0
8
DBDT
62
256
6
ByLayer
370
-1
48
1.0
60
0
100
AcDbLine
10
850.565
20
305.885
30
0.0
11
851.6
21
305.356
31
0.0
39
0.0
210
0.0
220
0.0
230
1.0
0
LINE
5
69
330
1C
100
AcDbEntity
67
0
8
DBDT
62
256
6
ByLayer
370
-1
48
1.0
60
0
100
AcDbLine
10
851.6
20
305.356
30
0.0
11
852.663
21
304.846
31
0.0
39
0.0
210
0.0
220
0.0
230
1.0
0
LINE
5
6A
330
1C
100
AcDbEntity
67
0
8
DBDT
62
256
6
ByLayer
370
-1
48
1.0
60
0
100
AcDbLine
10
852.663
20
304.846
30
0.0
11
853.755
21
304.356
31
0.0
39
0.0
210
0.0
220
0.0
230
1.0
0
LINE
5
6B
330
1C
100
AcDbEntity
67
0
8
DBDT
62
256
6
ByLayer
370
-1
48
1.0
60
0
100
AcDbLine
10
853.755
20
304.356
30
0.0
11
854.873
21
303.886
31
0.0
39
0.0
210
0.0
220
0.0
230
1.0
0
LINE
5
6C
330
1C
100
AcDbEntity
67
0
8
DBDT
62
256
6
ByLayer
370
-1
48
1.0
60
0
100
AcDbLine
10
854.873
20
303.886
30
0.0
11
856.016
21
303.436
31
0.0
39
0.0
210
0.0
220
0.0
230
1.0
0
LINE
5
6D
330
1C
100
AcDbEntity
67
0
8
DBDT
62
256
6
ByLayer
370
-1
48
1.0
60
0
100
AcDbLine
10
856.016
20
303.436
30
0.0
11
857.184
21
303.007
31
0.0
39
0.0
210
0.0
220
0.0
230
1.0
0
LINE
5
6E
330
1C
100
AcDbEntity
67
0
8
DBDT
62
256
6
ByLayer
370
-1
48
1.0
60
0
100
AcDbLine
10
857.184
20
303.007
30
0.0
11
858.375
21
302.599
31
0.0
39
0.0
210
0.0
220
0.0
230
1.0
0
LINE
5
6F
330
1C
100
AcDbEntity
67
0
8
DBDT
62
256
6
ByLayer
370
-1
48
1.0
60
0
100
AcDbLine
10
858.375
20
302.599
30
0.0
11
859.588
21
302.214
31
0.0
39
0.0
210
0.0
220
0.0
230
1.0
0
LINE
5
70
330
1C
100
AcDbEntity
67
0
8
DBDT
62
256
6
ByLayer
370
-1
48
1.0
60
0
100
AcDbLine
10
859.588
20
302.214
30
0.0
11
860.822
21
301.85
31
0.0
39
0.0
210
0.0
220
0.0
230
1.0
0
LINE
5
71
330
1C
100
AcDbEntity
67
0
8
DBDT
62
256
6
ByLayer
370
-1
48
1.0
60
0
100
AcDbLine
10
860.822
20
301.85
30
0.0
11
862.076
21
301.509
31
0.0
39
0.0
210
0.0
220
0.0
230
1.0
0
LINE
5
72
330
1C
100
AcDbEntity
67
0
8
DBDT
62
256
6
ByLayer
370
-1
48
1.0
60
0
100
AcDbLine
10
862.076
20
301.509
30
0.0
11
863.347
21
301.191
31
0.0
39
0.0
210
0.0
220
0.0
230
1.0
0
LINE
5
73
330
1C
100
AcDbEntity
67
0
8
DBDT
62
256
6
ByLayer
370
-1
48
1.0
60
0
100
AcDbLine
10
863.347
20
301.191
30
0.0
11
864.636
21
300.896
31
0.0
39
0.0
210
0.0
220
0.0
230
1.0
0
LINE
5
74
330
1C
100
AcDbEntity
67
0
8
DBDT
62
256
6
ByLayer
370
-1
48
1.0
60
0
100
AcDbLine
10
864.636
20
300.896
30
0.0
11
865.941
21
300.625
31
0.0
39
0.0
210
0.0
220
0.0
230
1.0
0
LINE
5
75
330
1C
100
AcDbEntity
67
0
8
DBDT
62
256
6
ByLayer
370
-1
48
1.0
60
0
100
AcDbLine
10
865.941
20
300.625
30
0.0
11
867.26
21
300.377
31
0.0
39
0.0
210
0.0
220
0.0
230
1.0
0
LINE
5
76
330
1C
100
AcDbEntity
67
0
8
DBDT
62
256
6
ByLayer
370
-1
48
1.0
60
0
100
AcDbLine
10
867.26
20
300.377
30
0.0
11
868.592
21
300.154
31
0.0
39
0.0
210
0.0
220
0.0
230
1.0
0
LINE
5
77
330
1C
100
AcDbEntity
67
0
8
DBDT
62
256
6
ByLayer
370
-1
48
1.0
60
0
100
AcDbLine
10
868.592
20
300.154
30
0.0
11
869.936
21
299.955
31
0.0
39
0.0
210
0.0
220
0.0
230
1.0
0
LINE
5
78
330
1C
100
AcDbEntity
67
0
8
DBDT
62
256
6
ByLayer
370
-1
48
1.0
60
0
100
AcDbLine
10
869.936
20
299.955
30
0.0
11
871.29
21
299.78
31
0.0
39
0.0
210
0.0
220
0.0
230
1.0
0
LINE
5
79
330
1C
100
AcDbEntity
67
0
8
DBDT
62
256
6
ByLayer
370
-1
48
1.0
60
0
100
AcDbLine
10
871.29
20
299.78
30
0.0
11
872.653
21
299.63
31
0.0
39
0.0
210
0.0
220
0.0
230
1.0
0
LINE
5
7A
330
1C
100
AcDbEntity
67
0
8
DBDT
62
256
6
ByLayer
370
-1
48
1.0
60
0
100
AcDbLine
10
872.653
20
299.63
30
0.0
11
874.024
21
299.504
31
0.0
39
0.0
210
0.0
220
0.0
230
1.0
0
LINE
5
7B
330
1C
100
AcDbEntity
67
0
8
DBDT
62
256
6
ByLayer
370
-1
48
1.0
60
0
100
AcDbLine
10
874.024
20
299.504
30
0.0
11
875.401
21
299.404
31
0.0
39
0.0
210
0.0
220
0.0
230
1.0
0
LINE
5
7C
330
1C
100
AcDbEntity
67
0
8
DBDT
62
256
6
ByLayer
370
-1
48
1.0
60
0
100
AcDbLine
10
875.401
20
299.404
30
0.0
11
876.783
21
299.329
31
0.0
39
0.0
210
0.0
220
0.0
230
1.0
0
LINE
5
7D
330
1C
100
AcDbEntity
67
0
8
DBDT
62
256
6
ByLayer
370
-1
48
1.0
60
0
100
AcDbLine
10
876.783
20
299.329
30
0.0
11
878.168
21
299.278
31
0.0
39
0.0
210
0.0
220
0.0
230
1.0
0
LINE
5
7E
330
1C
100
AcDbEntity
67
0
8
DBDT
62
256
6
ByLayer
370
-1
48
1.0
60
0
100
AcDbLine
10
878.168
20
299.278
30
0.0
11
879.556
21
299.253
31
0.0
39
0.0
210
0.0
220
0.0
230
1.0
0
LINE
5
7F
330
1C
100
AcDbEntity
67
0
8
DBDT
62
256
6
ByLayer
370
-1
48
1.0
60
0
100
AcDbLine
10
879.556
20
299.253
30
0.0
11
880.944
21
299.253
31
0.0
39
0.0
210
0.0
220
0.0
230
1.0
0
LINE
5
80
330
1C
100
AcDbEntity
67
0
8
DBDT
62
256
6
ByLayer
370
-1
48
1.0
60
0
100
AcDbLine
10
880.944
20
299.253
30
0.0
11
882.332
21
299.278
31
0.0
39
0.0
210
0.0
220
0.0
230
1.0
0
LINE
5
81
330
1C
100
AcDbEntity
67
0
8
DBDT
62
256
6
ByLayer
370
-1
48
1.0
60
0
100
AcDbLine
10
882.332
20
299.278
30
0.0
11
883.717
21
299.329
31
0.0
39
0.0
210
0.0
220
0.0
230
1.0
0
LINE
5
82
330
1C
100
AcDbEntity
67
0
8
DBDT
62
256
6
ByLayer
370
-1
48
1.0
60
0
100
AcDbLine
10
883.717
20
299.329
30
0.0
11
885.099
21
299.404
31
0.0
39
0.0
210
0.0
220
0.0
230
1.0
0
LINE
5
83
330
1C
100
AcDbEntity
67
0
8
DBDT
62
256
6
ByLayer
370
-1
48
1.0
60
0
100
AcDbLine
10
885.099
20
299.404
30
0.0
11
886.476
21
299.504
31
0.0
39
0.0
210
0.0
220
0.0
230
1.0
0
LINE
5
84
330
1C
100
AcDbEntity
67
0
8
DBDT
62
256
6
ByLayer
370
-1
48
1.0
60
0
100
AcDbLine
10
886.476
20
299.504
30
0.0
11
887.847
21
299.63
31
0.0
39
0.0
210
0.0
220
0.0
230
1.0
0
LINE
5
85
330
1C
100
AcDbEntity
67
0
8
DBDT
62
256
6
ByLayer
370
-1
48
1.0
60
0
100
AcDbLine
10
887.847
20
299.63
30
0.0
11
889.21
21
299.78
31
0.0
39
0.0
210
0.0
220
0.0
230
1.0
0
LINE
5
86
330
1C
100
AcDbEntity
67
0
8
DBDT
62
256
6
ByLayer
370
-1
48
1.0
60
0
100
AcDbLine
10
889.21
20
299.78
30
0.0
11
890.564
21
299.955
31
0.0
39
0.0
210
0.0
220
0.0
230
1.0
0
LINE
5
87
330
1C
100
AcDbEntity
67
0
8
DBDT
62
256
6
ByLayer
370
-1
48
1.0
60
0
100
AcDbLine
10
890.564
20
299.955
30
0.0
11
891.908
21
300.154
31
0.0
39
0.0
210
0.0
220
0.0
230
1.0
0
LINE
5
88
330
1C
100
AcDbEntity
67
0
8
DBDT
62
256
6
ByLayer
370
-1
48
1.0
60
0
100
AcDbLine
10
891.908
20
300.154
30
0.0
11
893.24
21
300.377
31
0.0
39
0.0
210
0.0
220
0.0
230
1.0
0
LINE
5
89
330
1C
100
AcDbEntity
67
0
8
DBDT
62
256
6
ByLayer
370
-1
48
1.0
60
0
100
AcDbLine
10
893.24
20
300.377
30
0.0
11
894.559
21
300.625
31
0.0
39
0.0
210
0.0
220
0.0
230
1.0
0
LINE
5
8A
330
1C
100
AcDbEntity
67
0
8
DBDT
62
256
6
ByLayer
370
-1
48
1.0
60
0
100
AcDbLine
10
894.559
20
300.625
30
0.0
11
895.864
21
300.896
31
0.0
39
0.0
210
0.0
220
0.0
230
1.0
0
LINE
5
8B
330
1C
100
AcDbEntity
67
0
8
DBDT
62
256
6
ByLayer
370
-1
48
1.0
60
0
100
AcDbLine
10
895.864
20
300.896
30
0.0
11
897.153
21
301.191
31
0.0
39
0.0
210
0.0
220
0.0
230
1.0
0
LINE
5
8C
330
1C
100
AcDbEntity
67
0
8
DBDT
62
256
6
ByLayer
370
-1
48
1.0
60
0
100
AcDbLine
10
897.153
20
301.191
30
0.0
11
898.424
21
301.509
31
0.0
39
0.0
210
0.0
220
0.0
230
1.0
0
LINE
5
8D
330
1C
100
AcDbEntity
67
0
8
DBDT
62
256
6
ByLayer
370
-1
48
1.0
60
0
100
AcDbLine
10
898.424
20
301.509
30
0.0
11
899.678
21
301.85
31
0.0
39
0.0
210
0.0
220
0.0
230
1.0
0
LINE
5
8E
330
1C
100
AcDbEntity
67
0
8
DBDT
62
256
6
ByLayer
370
-1
48
1.0
60
0
100
AcDbLine
10
899.678
20
301.85
30
0.0
11
900.912
21
302.214
31
0.0
39
0.0
210
0.0
220
0.0
230
1.0
0
LINE
5
8F
330
1C
100
AcDbEntity
67
0
8
DBDT
62
256
6
ByLayer
370
-1
48
1.0
60
0
100
AcDbLine
10
900.912
20
302.214
30
0.0
11
902.125
21
302.599
31
0.0
39
0.0
210
0.0
220
0.0
230
1.0
0
LINE
5
90
330
1C
100
AcDbEntity
67
0
8
DBDT
62
256
6
ByLayer
370
-1
48
1.0
60
0
100
AcDbLine
10
902.125
20
302.599
30
0.0
11
903.316
21
303.007
31
0.0
39
0.0
210
0.0
220
0.0
230
1.0
0
LINE
5
91
330
1C
100
AcDbEntity
67
0
8
DBDT
62
256
6
ByLayer
370
-1
48
1.0
60
0
100
AcDbLine
10
903.316
20
303.007
30
0.0
11
904.484
21
303.436
31
0.0
39
0.0
210
0.0
220
0.0
230
1.0
0
LINE
5
92
330
1C
100
AcDbEntity
67
0
8
DBDT
62
256
6
ByLayer
370
-1
48
1.0
60
0
100
AcDbLine
10
904.484
20
303.436
30
0.0
11
905.627
21
303.886
31
0.0
39
0.0
210
0.0
220
0.0
230
1.0
0
LINE
5
93
330
1C
100
AcDbEntity
67
0
8
DBDT
62
256
6
ByLayer
370
-1
48
1.0
60
0
100
AcDbLine
10
905.627
20
303.886
30
0.0
11
906.745
21
304.356
31
0.0
39
0.0
210
0.0
220
0.0
230
1.0
0
LINE
5
94
330
1C
100
AcDbEntity
67
0
8
DBDT
62
256
6
ByLayer
370
-1
48
1.0
60
0
100
AcDbLine
10
906.745
20
304.356
30
0.0
11
907.837
21
304.846
31
0.0
39
0.0
210
0.0
220
0.0
230
1.0
0
LINE
5
95
330
1C
100
AcDbEntity
67
0
8
DBDT
62
256
6
ByLayer
370
-1
48
1.0
60
0
100
AcDbLine
10
907.837
20
304.846
30
0.0
11
908.9
21
305.356
31
0.0
39
0.0
210
0.0
220
0.0
230
1.0
0
LINE
5
96
330
1C
100
AcDbEntity
67
0
8
DBDT
62
256
6
ByLayer
370
-1
48
1.0
60
0
100
AcDbLine
10
908.9
20
305.356
30
0.0
11
909.935
21
305.885
31
0.0
39
0.0
210
0.0
220
0.0
230
1.0
0
LINE
5
97
330
1C
100
AcDbEntity
67
0
8
DBDT
62
256
6
ByLayer
370
-1
48
1.0
60
0
100
AcDbLine
10
909.935
20
305.885
30
0.0
11
910.94
21
306.433
31
0.0
39
0.0
210
0.0
220
0.0
230
1.0
0
LINE
5
98
330
1C
100
AcDbEntity
67
0
8
DBDT
62
256
6
ByLayer
370
-1
48
1.0
60
0
100
AcDbLine
10
910.94
20
306.433
30
0.0
11
911.913
21
306.998
31
0.0
39
0.0
210
0.0
220
0.0
230
1.0
0
LINE
5
99
330
1C
100
AcDbEntity
67
0
8
DBDT
62
256
6
ByLayer
370
-1
48
1.0
60
0
100
AcDbLine
10
911.913
20
306.998
30
0.0
11
912.855
21
307.581
31
0.0
39
0.0
210
0.0
220
0.0
230
1.0
0
LINE
5
9A
330
1C
100
AcDbEntity
67
0
8
DBDT
62
256
6
ByLayer
370
-1
48
1.0
60
0
100
AcDbLine
10
912.855
20
307.581
30
0.0
11
913.764
21
308.18
31
0.0
39
0.0
210
0.0
220
0.0
230
1.0
0
LINE
5
9B
330
1C
100
AcDbEntity
67
0
8
DBDT
62
256
6
ByLayer
370
-1
48
1.0
60
0
100
AcDbLine
10
913.764
20
308.18
30
0.0
11
914.64
21
308.796
31
0.0
39
0.0
210
0.0
220
0.0
230
1.0
0
LINE
5
9C
330
1C
100
AcDbEntity
67
0
8
DBDT
62
256
6
ByLayer
370
-1
48
1.0
60
0
100
AcDbLine
10
914.64
20
308.796
30
0.0
11
915.481
21
309.427
31
0.0
39
0.0
210
0.0
220
0.0
230
1.0
0
LINE
5
9D
330
1C
100
AcDbEntity
67
0
8
DBDT
62
256
6
ByLayer
370
-1
48
1.0
60
0
100
AcDbLine
10
915.481
20
309.427
30
0.0
11
916.286
21
310.074
31
0.0
39
0.0
210
0.0
220
0.0
230
1.0
0
LINE
5
9E
330
1C
100
AcDbEntity
67
0
8
DBDT
62
256
6
ByLayer
370
-1
48
1.0
60
0
100
AcDbLine
10
916.286
20
310.074
30
0.0
11
917.055
21
310.734
31
0.0
39
0.0
210
0.0
220
0.0
230
1.0
0
LINE
5
9F
330
1C
100
AcDbEntity
67
0
8
DBDT
62
256
6
ByLayer
370
-1
48
1.0
60
0
100
AcDbLine
10
917.055
20
310.734
30
0.0
11
917.787
21
311.408
31
0.0
39
0.0
210
0.0
220
0.0
230
1.0
0
LINE
5
A0
330
1C
100
AcDbEntity
67
0
8
DBDT
62
256
6
ByLayer
370
-1
48
1.0
60
0
100
AcDbLine
10
917.787
20
311.408
30
0.0
11
918.481
21
312.095
31
0.0
39
0.0
210
0.0
220
0.0
230
1.0
0
LINE
5
A1
330
1C
100
AcDbEntity
67
0
8
DBDT
62
256
6
ByLayer
370
-1
48
1.0
60
0
100
AcDbLine
10
918.481
20
312.095
30
0.0
11
919.137
21
312.794
31
0.0
39
0.0
210
0.0
220
0.0
230
1.0
0
LINE
5
A2
330
1C
100
AcDbEntity
67
0
8
DBDT
62
256
6
ByLayer
370
-1
48
1.0
60
0
100
AcDbLine
10
919.137
20
312.794
30
0.0
11
919.753
21
313.505
31
0.0
39
0.0
210
0.0
220
0.0
230
1.0
0
LINE
5
A3
330
1C
100
AcDbEntity
67
0
8
DBDT
62
256
6
ByLayer
370
-1
48
1.0
60
0
100
AcDbLine
10
919.753
20
313.505
30
0.0
11
920.33
21
314.227
31
0.0
39
0.0
210
0.0
220
0.0
230
1.0
0
LINE
5
A4
330
1C
100
AcDbEntity
67
0
8
DBDT
62
256
6
ByLayer
370
-1
48
1.0
60
0
100
AcDbLine
10
920.33
20
314.227
30
0.0
11
920.866
21
314.958
31
0.0
39
0.0
210
0.0
220
0.0
230
1.0
0
LINE
5
A5
330
1C
100
AcDbEntity
67
0
8
DBDT
62
256
6
ByLayer
370
-1
48
1.0
60
0
100
AcDbLine
10
920.866
20
314.958
30
0.0
11
921.362
21
315.699
31
0.0
39
0.0
210
0.0
220
0.0
230
1.0
0
LINE
5
A6
330
1C
100
AcDbEntity
67
0
8
DBDT
62
256
6
ByLayer
370
-1
48
1.0
60
0
100
AcDbLine
10
921.362
20
315.699
30
0.0
11
921.816
21
316.449
31
0.0
39
0.0
210
0.0
220
0.0
230
1.0
0
LINE
5
A7
330
1C
100
AcDbEntity
67
0
8
DBDT
62
256
6
ByLayer
370
-1
48
1.0
60
0
100
AcDbLine
10
921.816
20
316.449
30
0.0
11
922.228
21
317.207
31
0.0
39
0.0
210
0.0
220
0.0
230
1.0
0
LINE
5
A8
330
1C
100
AcDbEntity
67
0
8
DBDT
62
256
6
ByLayer
370
-1
48
1.0
60
0
100
AcDbLine
10
922.228
20
317.207
30
0.0
11
922.598
21
317.971
31
0.0
39
0.0
210
0.0
220
0.0
230
1.0
0
LINE
5
A9
330
1C
100
AcDbEntity
67
0
8
DBDT
62
256
6
ByLayer
370
-1
48
1.0
60
0
100
AcDbLine
10
922.598
20
317.971
30
0.0
11
922.925
21
318.742
31
0.0
39
0.0
210
0.0
220
0.0
230
1.0
0
LINE
5
AA
330
1C
100
AcDbEntity
67
0
8
DBDT
62
256
6
ByLayer
370
-1
48
1.0
60
0
100
AcDbLine
10
922.925
20
318.742
30
0.0
11
923.209
21
319.519
31
0.0
39
0.0
210
0.0
220
0.0
230
1.0
0
LINE
5
AB
330
1C
100
AcDbEntity
67
0
8
DBDT
62
256
6
ByLayer
370
-1
48
1.0
60
0
100
AcDbLine
10
923.209
20
319.519
30
0.0
11
923.45
21
320.3
31
0.0
39
0.0
210
0.0
220
0.0
230
1.0
0
LINE
5
AC
330
1C
100
AcDbEntity
67
0
8
DBDT
62
256
6
ByLayer
370
-1
48
1.0
60
0
100
AcDbLine
10
923.45
20
320.3
30
0.0
11
923.648
21
321.085
31
0.0
39
0.0
210
0.0
220
0.0
230
1.0
0
LINE
5
AD
330
1C
100
AcDbEntity
67
0
8
DBDT
62
256
6
ByLayer
370
-1
48
1.0
60
0
100
AcDbLine
10
923.648
20
321.085
30
0.0
11
923.802
21
321.874
31
0.0
39
0.0
210
0.0
220
0.0
230
1.0
0
LINE
5
AE
330
1C
100
AcDbEntity
67
0
8
DBDT
62
256
6
ByLayer
370
-1
48
1.0
60
0
100
AcDbLine
10
923.802
20
321.874
30
0.0
11
923.912
21
322.664
31
0.0
39
0.0
210
0.0
220
0.0
230
1.0
0
LINE
5
AF
330
1C
100
AcDbEntity
67
0
8
DBDT
62
256
6
ByLayer
370
-1
48
1.0
60
0
100
AcDbLine
10
923.912
20
322.664
30
0.0
11
923.978
21
323.457
31
0.0
39
0.0
210
0.0
220
0.0
230
1.0
0
LINE
5
B0
330
1C
100
AcDbEntity
67
0
8
DBDT
62
256
6
ByLayer
370
-1
48
1.0
60
0
100
AcDbLine
10
923.978
20
323.457
30
0.0
11
924.0
21
324.25
31
0.0
39
0.0
210
0.0
220
0.0
230
1.0
0
LINE
5
B1
330
1C
100
AcDbEntity
67
0
8
DBDT
62
256
6
ByLayer
370
-1
48
1.0
60
0
100
AcDbLine
10
924.0
20
324.25
30
0.0
11
923.978
21
325.043
31
0.0
39
0.0
210
0.0
220
0.0
230
1.0
0
LINE
5
B2
330
1C
100
AcDbEntity
67
0
8
DBDT
62
256
6
ByLayer
370
-1
48
1.0
60
0
100
AcDbLine
10
923.978
20
325.043
30
0.0
11
923.912
21
325.836
31
0.0
39
0.0
210
0.0
220
0.0
230
1.0
0
LINE
5
B3
330
1C
100
AcDbEntity
67
0
8
DBDT
62
256
6
ByLayer
370
-1
48
1.0
60
0
100
AcDbLine
10
923.912
20
325.836
30
0.0
11
923.802
21
326.626
31
0.0
39
0.0
210
0.0
220
0.0
230
1.0
0
LINE
5
B4
330
1C
100
AcDbEntity
67
0
8
DBDT
62
256
6
ByLayer
370
-1
48
1.0
60
0
100
AcDbLine
10
923.802
20
326.626
30
0.0
11
923.648
21
327.415
31
0.0
39
0.0
210
0.0
220
0.0
230
1.0
0
LINE
5
B5
330
1C
100
AcDbEntity
67
0
8
DBDT
62
256
6
ByLayer
370
-1
48
1.0
60
0
100
AcDbLine
10
923.648
20
327.415
30
0.0
11
923.45
21
328.2
31
0.0
39
0.0
210
0.0
220
0.0
230
1.0
0
LINE
5
B6
330
1C
100
AcDbEntity
67
0
8
DBDT
62
256
6
ByLayer
370
-1
48
1.0
60
0
100
AcDbLine
10
923.45
20
328.2
30
0.0
11
923.209
21
328.981
31
0.0
39
0.0
210
0.0
220
0.0
230
1.0
0
LINE
5
B7
330
1C
100
AcDbEntity
67
0
8
DBDT
62
256
6
ByLayer
370
-1
48
1.0
60
0
100
AcDbLine
10
923.209
20
328.981
30
0.0
11
922.925
21
329.758
31
0.0
39
0.0
210
0.0
220
0.0
230
1.0
0
LINE
5
B8
330
1C
100
AcDbEntity
67
0
8
DBDT
62
256
6
ByLayer
370
-1
48
1.0
60
0
100
AcDbLine
10
922.925
20
329.758
30
0.0
11
922.598
21
330.529
31
0.0
39
0.0
210
0.0
220
0.0
230
1.0
0
LINE
5
B9
330
1C
100
AcDbEntity
67
0
8
DBDT
62
256
6
ByLayer
370
-1
48
1.0
60
0
100
AcDbLine
10
922.598
20
330.529
30
0.0
11
922.228
21
331.293
31
0.0
39
0.0
210
0.0
220
0.0
230
1.0
0
LINE
5
BA
330
1C
100
AcDbEntity
67
0
8
DBDT
62
256
6
ByLayer
370
-1
48
1.0
60
0
100
AcDbLine
10
922.228
20
331.293
30
0.0
11
921.816
21
332.051
31
0.0
39
0.0
210
0.0
220
0.0
230
1.0
0
LINE
5
BB
330
1C
100
AcDbEntity
67
0
8
DBDT
62
256
6
ByLayer
370
-1
48
1.0
60
0
100
AcDbLine
10
921.816
20
332.051
30
0.0
11
921.362
21
332.801
31
0.0
39
0.0
210
0.0
220
0.0
230
1.0
0
LINE
5
BC
330
1C
100
AcDbEntity
67
0
8
DBDT
62
256
6
ByLayer
370
-1
48
1.0
60
0
100
AcDbLine
10
921.362
20
332.801
30
0.0
11
920.866
21
333.542
31
0.0
39
0.0
210
0.0
220
0.0
230
1.0
0
LINE
5
BD
330
1C
100
AcDbEntity
67
0
8
DBDT
62
256
6
ByLayer
370
-1
48
1.0
60
0
100
AcDbLine
10
920.866
20
333.542
30
0.0
11
920.33
21
334.273
31
0.0
39
0.0
210
0.0
220
0.0
230
1.0
0
LINE
5
BE
330
1C
100
AcDbEntity
67
0
8
DBDT
62
256
6
ByLayer
370
-1
48
1.0
60
0
100
AcDbLine
10
920.33
20
334.273
30
0.0
11
919.753
21
334.995
31
0.0
39
0.0
210
0.0
220
0.0
230
1.0
0
LINE
5
BF
330
1C
100
AcDbEntity
67
0
8
DBDT
62
256
6
ByLayer
370
-1
48
1.0
60
0
100
AcDbLine
10
919.753
20
334.995
30
0.0
11
919.137
21
335.706
31
0.0
39
0.0
210
0.0
220
0.0
230
1.0
0
LINE
5
C0
330
1C
100
AcDbEntity
67
0
8
DBDT
62
256
6
ByLayer
370
-1
48
1.0
60
0
100
AcDbLine
10
919.137
20
335.706
30
0.0
11
918.481
21
336.405
31
0.0
39
0.0
210
0.0
220
0.0
230
1.0
0
LINE
5
C1
330
1C
100
AcDbEntity
67
0
8
DBDT
62
256
6
ByLayer
370
-1
48
1.0
60
0
100
AcDbLine
10
918.481
20
336.405
30
0.0
11
917.787
21
337.092
31
0.0
39
0.0
210
0.0
220
0.0
230
1.0
0
LINE
5
C2
330
1C
100
AcDbEntity
67
0
8
DBDT
62
256
6
ByLayer
370
-1
48
1.0
60
0
100
AcDbLine
10
917.787
20
337.092
30
0.0
11
917.055
21
337.766
31
0.0
39
0.0
210
0.0
220
0.0
230
1.0
0
LINE
5
C3
330
1C
100
AcDbEntity
67
0
8
DBDT
62
256
6
ByLayer
370
-1
48
1.0
60
0
100
AcDbLine
10
917.055
20
337.766
30
0.0
11
916.286
21
338.426
31
0.0
39
0.0
210
0.0
220
0.0
230
1.0
0
LINE
5
C4
330
1C
100
AcDbEntity
67
0
8
DBDT
62
256
6
ByLayer
370
-1
48
1.0
60
0
100
AcDbLine
10
916.286
20
338.426
30
0.0
11
915.481
21
339.073
31
0.0
39
0.0
210
0.0
220
0.0
230
1.0
0
LINE
5
C5
330
1C
100
AcDbEntity
67
0
8
DBDT
62
256
6
ByLayer
370
-1
48
1.0
60
0
100
AcDbLine
10
915.481
20
339.073
30
0.0
11
914.64
21
339.704
31
0.0
39
0.0
210
0.0
220
0.0
230
1.0
0
LINE
5
C6
330
1C
100
AcDbEntity
67
0
8
DBDT
62
256
6
ByLayer
370
-1
48
1.0
60
0
100
AcDbLine
10
914.64
20
339.704
30
0.0
11
913.764
21
340.32
31
0.0
39
0.0
210
0.0
220
0.0
230
1.0
0
LINE
5
C7
330
1C
100
AcDbEntity
67
0
8
DBDT
62
256
6
ByLayer
370
-1
48
1.0
60
0
100
AcDbLine
10
913.764
20
340.32
30
0.0
11
912.855
21
340.919
31
0.0
39
0.0
210
0.0
220
0.0
230
1.0
0
LINE
5
C8
330
1C
100
AcDbEntity
67
0
8
DBDT
62
256
6
ByLayer
370
-1
48
1.0
60
0
100
AcDbLine
10
912.855
20
340.919
30
0.0
11
911.913
21
341.502
31
0.0
39
0.0
210
0.0
220
0.0
230
1.0
0
LINE
5
C9
330
1C
100
AcDbEntity
67
0
8
DBDT
62
256
6
ByLayer
370
-1
48
1.0
60
0
100
AcDbLine
10
911.913
20
341.502
30
0.0
11
910.94
21
342.067
31
0.0
39
0.0
210
0.0
220
0.0
230
1.0
0
LINE
5
CA
330
1C
100
AcDbEntity
67
0
8
DBDT
62
256
6
ByLayer
370
-1
48
1.0
60
0
100
AcDbLine
10
910.94
20
342.067
30
0.0
11
909.935
21
342.615
31
0.0
39
0.0
210
0.0
220
0.0
230
1.0
0
LINE
5
CB
330
1C
100
AcDbEntity
67
0
8
DBDT
62
256
6
ByLayer
370
-1
48
1.0
60
0
100
AcDbLine
10
909.935
20
342.615
30
0.0
11
908.9
21
343.144
31
0.0
39
0.0
210
0.0
220
0.0
230
1.0
0
LINE
5
CC
330
1C
100
AcDbEntity
67
0
8
DBDT
62
256
6
ByLayer
370
-1
48
1.0
60
0
100
AcDbLine
10
908.9
20
343.144
30
0.0
11
907.837
21
343.654
31
0.0
39
0.0
210
0.0
220
0.0
230
1.0
0
LINE
5
CD
330
1C
100
AcDbEntity
67
0
8
DBDT
62
256
6
ByLayer
370
-1
48
1.0
60
0
100
AcDbLine
10
907.837
20
343.654
30
0.0
11
906.745
21
344.144
31
0.0
39
0.0
210
0.0
220
0.0
230
1.0
0
LINE
5
CE
330
1C
100
AcDbEntity
67
0
8
DBDT
62
256
6
ByLayer
370
-1
48
1.0
60
0
100
AcDbLine
10
906.745
20
344.144
30
0.0
11
905.627
21
344.614
31
0.0
39
0.0
210
0.0
220
0.0
230
1.0
0
LINE
5
CF
330
1C
100
AcDbEntity
67
0
8
DBDT
62
256
6
ByLayer
370
-1
48
1.0
60
0
100
AcDbLine
10
905.627
20
344.614
30
0.0
11
904.484
21
345.064
31
0.0
39
0.0
210
0.0
220
0.0
230
1.0
0
LINE
5
D0
330
1C
100
AcDbEntity
67
0
8
DBDT
62
256
6
ByLayer
370
-1
48
1.0
60
0
100
AcDbLine
10
904.484
20
345.064
30
0.0
11
903.316
21
345.493
31
0.0
39
0.0
210
0.0
220
0.0
230
1.0
0
LINE
5
D1
330
1C
100
AcDbEntity
67
0
8
DBDT
62
256
6
ByLayer
370
-1
48
1.0
60
0
100
AcDbLine
10
903.316
20
345.493
30
0.0
11
902.125
21
345.901
31
0.0
39
0.0
210
0.0
220
0.0
230
1.0
0
LINE
5
D2
330
1C
100
AcDbEntity
67
0
8
DBDT
62
256
6
ByLayer
370
-1
48
1.0
60
0
100
AcDbLine
10
902.125
20
345.901
30
0.0
11
900.912
21
346.286
31
0.0
39
0.0
210
0.0
220
0.0
230
1.0
0
LINE
5
D3
330
1C
100
AcDbEntity
67
0
8
DBDT
62
256
6
ByLayer
370
-1
48
1.0
60
0
100
AcDbLine
10
900.912
20
346.286
30
0.0
11
899.678
21
346.65
31
0.0
39
0.0
210
0.0
220
0.0
230
1.0
0
LINE
5
D4
330
1C
100
AcDbEntity
67
0
8
DBDT
62
256
6
ByLayer
370
-1
48
1.0
60
0
100
AcDbLine
10
899.678
20
346.65
30
0.0
11
898.424
21
346.991
31
0.0
39
0.0
210
0.0
220
0.0
230
1.0
0
LINE
5
D5
330
1C
100
AcDbEntity
67
0
8
DBDT
62
256
6
ByLayer
370
-1
48
1.0
60
0
100
AcDbLine
10
898.424
20
346.991
30
0.0
11
897.153
21
347.309
31
0.0
39
0.0
210
0.0
220
0.0
230
1.0
0
LINE
5
D6
330
1C
100
AcDbEntity
67
0
8
DBDT
62
256
6
ByLayer
370
-1
48
1.0
60
0
100
AcDbLine
10
897.153
20
347.309
30
0.0
11
895.864
21
347.604
31
0.0
39
0.0
210
0.0
220
0.0
230
1.0
0
LINE
5
D7
330
1C
100
AcDbEntity
67
0
8
DBDT
62
256
6
ByLayer
370
-1
48
1.0
60
0
100
AcDbLine
10
895.864
20
347.604
30
0.0
11
894.559
21
347.875
31
0.0
39
0.0
210
0.0
220
0.0
230
1.0
0
LINE
5
D8
330
1C
100
AcDbEntity
67
0
8
DBDT
62
256
6
ByLayer
370
-1
48
1.0
60
0
100
AcDbLine
10
894.559
20
347.875
30
0.0
11
893.24
21
348.123
31
0.0
39
0.0
210
0.0
220
0.0
230
1.0
0
LINE
5
D9
330
1C
100
AcDbEntity
67
0
8
DBDT
62
256
6
ByLayer
370
-1
48
1.0
60
0
100
AcDbLine
10
893.24
20
348.123
30
0.0
11
891.908
21
348.346
31
0.0
39
0.0
210
0.0
220
0.0
230
1.0
0
LINE
5
DA
330
1C
100
AcDbEntity
67
0
8
DBDT
62
256
6
ByLayer
370
-1
48
1.0
60
0
100
AcDbLine
10
891.908
20
348.346
30
0.0
11
890.564
21
348.545
31
0.0
39
0.0
210
0.0
220
0.0
230
1.0
0
LINE
5
DB
330
1C
100
AcDbEntity
67
0
8
DBDT
62
256
6
ByLayer
370
-1
48
1.0
60
0
100
AcDbLine
10
890.564
20
348.545
30
0.0
11
889.21
21
348.72
31
0.0
39
0.0
210
0.0
220
0.0
230
1.0
0
LINE
5
DC
330
1C
100
AcDbEntity
67
0
8
DBDT
62
256
6
ByLayer
370
-1
48
1.0
60
0
100
AcDbLine
10
889.21
20
348.72
30
0.0
11
887.847
21
348.87
31
0.0
39
0.0
210
0.0
220
0.0
230
1.0
0
LINE
5
DD
330
1C
100
AcDbEntity
67
0
8
DBDT
62
256
6
ByLayer
370
-1
48
1.0
60
0
100
AcDbLine
10
887.847
20
348.87
30
0.0
11
886.476
21
348.996
31
0.0
39
0.0
210
0.0
220
0.0
230
1.0
0
LINE
5
DE
330
1C
100
AcDbEntity
67
0
8
DBDT
62
256
6
ByLayer
370
-1
48
1.0
60
0
100
AcDbLine
10
886.476
20
348.996
30
0.0
11
885.099
21
349.096
31
0.0
39
0.0
210
0.0
220
0.0
230
1.0
0
LINE
5
DF
330
1C
100
AcDbEntity
67
0
8
DBDT
62
256
6
ByLayer
370
-1
48
1.0
60
0
100
AcDbLine
10
885.099
20
349.096
30
0.0
11
883.717
21
349.171
31
0.0
39
0.0
210
0.0
220
0.0
230
1.0
0
LINE
5
E0
330
1C
100
AcDbEntity
67
0
8
DBDT
62
256
6
ByLayer
370
-1
48
1.0
60
0
100
AcDbLine
10
883.717
20
349.171
30
0.0
11
882.332
21
349.222
31
0.0
39
0.0
210
0.0
220
0.0
230
1.0
0
LINE
5
E1
330
1C
100
AcDbEntity
67
0
8
DBDT
62
256
6
ByLayer
370
-1
48
1.0
60
0
100
AcDbLine
10
882.332
20
349.222
30
0.0
11
880.944
21
349.247
31
0.0
39
0.0
210
0.0
220
0.0
230
1.0
0
LINE
5
E2
330
1C
100
AcDbEntity
67
0
8
DBDT
62
256
6
ByLayer
370
-1
48
1.0
60
0
100
AcDbLine
10
880.944
20
349.247
30
0.0
11
879.556
21
349.247
31
0.0
39
0.0
210
0.0
220
0.0
230
1.0
0
LINE
5
E3
330
1C
100
AcDbEntity
67
0
8
DBDT
62
256
6
ByLayer
370
-1
48
1.0
60
0
100
AcDbLine
10
879.556
20
349.247
30
0.0
11
878.168
21
349.222
31
0.0
39
0.0
210
0.0
220
0.0
230
1.0
0
LINE
5
E4
330
1C
100
AcDbEntity
67
0
8
DBDT
62
256
6
ByLayer
370
-1
48
1.0
60
0
100
AcDbLine
10
878.168
20
349.222
30
0.0
11
876.783
21
349.171
31
0.0
39
0.0
210
0.0
220
0.0
230
1.0
0
LINE
5
E5
330
1C
100
AcDbEntity
67
0
8
DBDT
62
256
6
ByLayer
370
-1
48
1.0
60
0
100
AcDbLine
10
876.783
20
349.171
30
0.0
11
875.401
21
349.096
31
0.0
39
0.0
210
0.0
220
0.0
230
1.0
0
LINE
5
E6
330
1C
100
AcDbEntity
67
0
8
DBDT
62
256
6
ByLayer
370
-1
48
1.0
60
0
100
AcDbLine
10
875.401
20
349.096
30
0.0
11
874.024
21
348.996
31
0.0
39
0.0
210
0.0
220
0.0
230
1.0
0
LINE
5
E7
330
1C
100
AcDbEntity
67
0
8
DBDT
62
256
6
ByLayer
370
-1
48
1.0
60
0
100
AcDbLine
10
874.024
20
348.996
30
0.0
11
872.653
21
348.87
31
0.0
39
0.0
210
0.0
220
0.0
230
1.0
0
LINE
5
E8
330
1C
100
AcDbEntity
67
0
8
DBDT
62
256
6
ByLayer
370
-1
48
1.0
60
0
100
AcDbLine
10
872.653
20
348.87
30
0.0
11
871.29
21
348.72
31
0.0
39
0.0
210
0.0
220
0.0
230
1.0
0
LINE
5
E9
330
1C
100
AcDbEntity
67
0
8
DBDT
62
256
6
ByLayer
370
-1
48
1.0
60
0
100
AcDbLine
10
871.29
20
348.72
30
0.0
11
869.936
21
348.545
31
0.0
39
0.0
210
0.0
220
0.0
230
1.0
0
LINE
5
EA
330
1C
100
AcDbEntity
67
0
8
DBDT
62
256
6
ByLayer
370
-1
48
1.0
60
0
100
AcDbLine
10
869.936
20
348.545
30
0.0
11
868.592
21
348.346
31
0.0
39
0.0
210
0.0
220
0.0
230
1.0
0
LINE
5
EB
330
1C
100
AcDbEntity
67
0
8
DBDT
62
256
6
ByLayer
370
-1
48
1.0
60
0
100
AcDbLine
10
868.592
20
348.346
30
0.0
11
867.26
21
348.123
31
0.0
39
0.0
210
0.0
220
0.0
230
1.0
0
LINE
5
EC
330
1C
100
AcDbEntity
67
0
8
DBDT
62
256
6
ByLayer
370
-1
48
1.0
60
0
100
AcDbLine
10
867.26
20
348.123
30
0.0
11
865.941
21
347.875
31
0.0
39
0.0
210
0.0
220
0.0
230
1.0
0
LINE
5
ED
330
1C
100
AcDbEntity
67
0
8
DBDT
62
256
6
ByLayer
370
-1
48
1.0
60
0
100
AcDbLine
10
865.941
20
347.875
30
0.0
11
864.636
21
347.604
31
0.0
39
0.0
210
0.0
220
0.0
230
1.0
0
LINE
5
EE
330
1C
100
AcDbEntity
67
0
8
DBDT
62
256
6
ByLayer
370
-1
48
1.0
60
0
100
AcDbLine
10
864.636
20
347.604
30
0.0
11
863.347
21
347.309
31
0.0
39
0.0
210
0.0
220
0.0
230
1.0
0
LINE
5
EF
330
1C
100
AcDbEntity
67
0
8
DBDT
62
256
6
ByLayer
370
-1
48
1.0
60
0
100
AcDbLine
10
863.347
20
347.309
30
0.0
11
862.076
21
346.991
31
0.0
39
0.0
210
0.0
220
0.0
230
1.0
0
LINE
5
F0
330
1C
100
AcDbEntity
67
0
8
DBDT
62
256
6
ByLayer
370
-1
48
1.0
60
0
100
AcDbLine
10
862.076
20
346.991
30
0.0
11
860.822
21
346.65
31
0.0
39
0.0
210
0.0
220
0.0
230
1.0
0
LINE
5
F1
330
1C
100
AcDbEntity
67
0
8
DBDT
62
256
6
ByLayer
370
-1
48
1.0
60
0
100
AcDbLine
10
860.822
20
346.65
30
0.0
11
859.588
21
346.286
31
0.0
39
0.0
210
0.0
220
0.0
230
1.0
0
LINE
5
F2
330
1C
100
AcDbEntity
67
0
8
DBDT
62
256
6
ByLayer
370
-1
48
1.0
60
0
100
AcDbLine
10
859.588
20
346.286
30
0.0
11
858.375
21
345.901
31
0.0
39
0.0
210
0.0
220
0.0
230
1.0
0
LINE
5
F3
330
1C
100
AcDbEntity
67
0
8
DBDT
62
256
6
ByLayer
370
-1
48
1.0
60
0
100
AcDbLine
10
858.375
20
345.901
30
0.0
11
857.184
21
345.493
31
0.0
39
0.0
210
0.0
220
0.0
230
1.0
0
LINE
5
F4
330
1C
100
AcDbEntity
67
0
8
DBDT
62
256
6
ByLayer
370
-1
48
1.0
60
0
100
AcDbLine
10
857.184
20
345.493
30
0.0
11
856.016
21
345.064
31
0.0
39
0.0
210
0.0
220
0.0
230
1.0
0
LINE
5
F5
330
1C
100
AcDbEntity
67
0
8
DBDT
62
256
6
ByLayer
370
-1
48
1.0
60
0
100
AcDbLine
10
856.016
20
345.064
30
0.0
11
854.873
21
344.614
31
0.0
39
0.0
210
0.0
220
0.0
230
1.0
0
LINE
5
F6
330
1C
100
AcDbEntity
67
0
8
DBDT
62
256
6
ByLayer
370
-1
48
1.0
60
0
100
AcDbLine
10
854.873
20
344.614
30
0.0
11
853.755
21
344.144
31
0.0
39
0.0
210
0.0
220
0.0
230
1.0
0
LINE
5
F7
330
1C
100
AcDbEntity
67
0
8
DBDT
62
256
6
ByLayer
370
-1
48
1.0
60
0
100
AcDbLine
10
853.755
20
344.144
30
0.0
11
852.663
21
343.654
31
0.0
39
0.0
210
0.0
220
0.0
230
1.0
0
LINE
5
F8
330
1C
100
AcDbEntity
67
0
8
DBDT
62
256
6
ByLayer
370
-1
48
1.0
60
0
100
AcDbLine
10
852.663
20
343.654
30
0.0
11
851.6
21
343.144
31
0.0
39
0.0
210
0.0
220
0.0
230
1.0
0
LINE
5
F9
330
1C
100
AcDbEntity
67
0
8
DBDT
62
256
6
ByLayer
370
-1
48
1.0
60
0
100
AcDbLine
10
851.6
20
343.144
30
0.0
11
850.565
21
342.615
31
0.0
39
0.0
210
0.0
220
0.0
230
1.0
0
LINE
5
FA
330
1C
100
AcDbEntity
67
0
8
DBDT
62
256
6
ByLayer
370
-1
48
1.0
60
0
100
AcDbLine
10
850.565
20
342.615
30
0.0
11
849.56
21
342.067
31
0.0
39
0.0
210
0.0
220
0.0
230
1.0
0
LINE
5
FB
330
1C
100
AcDbEntity
67
0
8
DBDT
62
256
6
ByLayer
370
-1
48
1.0
60
0
100
AcDbLine
10
849.56
20
342.067
30
0.0
11
848.587
21
341.502
31
0.0
39
0.0
210
0.0
220
0.0
230
1.0
0
LINE
5
FC
330
1C
100
AcDbEntity
67
0
8
DBDT
62
256
6
ByLayer
370
-1
48
1.0
60
0
100
AcDbLine
10
848.587
20
341.502
30
0.0
11
847.645
21
340.919
31
0.0
39
0.0
210
0.0
220
0.0
230
1.0
0
LINE
5
FD
330
1C
100
AcDbEntity
67
0
8
DBDT
62
256
6
ByLayer
370
-1
48
1.0
60
0
100
AcDbLine
10
847.645
20
340.919
30
0.0
11
846.736
21
340.32
31
0.0
39
0.0
210
0.0
220
0.0
230
1.0
0
LINE
5
FE
330
1C
100
AcDbEntity
67
0
8
DBDT
62
256
6
ByLayer
370
-1
48
1.0
60
0
100
AcDbLine
10
846.736
20
340.32
30
0.0
11
845.86
21
339.704
31
0.0
39
0.0
210
0.0
220
0.0
230
1.0
0
LINE
5
FF
330
1C
100
AcDbEntity
67
0
8
DBDT
62
256
6
ByLayer
370
-1
48
1.0
60
0
100
AcDbLine
10
845.86
20
339.704
30
0.0
11
845.019
21
339.073
31
0.0
39
0.0
210
0.0
220
0.0
230
1.0
0
LINE
5
100
330
1C
100
AcDbEntity
67
0
8
DBDT
62
256
6
ByLayer
370
-1
48
1.0
60
0
100
AcDbLine
10
845.019
20
339.073
30
0.0
11
844.214
21
338.426
31
0.0
39
0.0
210
0.0
220
0.0
230
1.0
0
LINE
5
101
330
1C
100
AcDbEntity
67
0
8
DBDT
62
256
6
ByLayer
370
-1
48
1.0
60
0
100
AcDbLine
10
844.214
20
338.426
30
0.0
11
843.445
21
337.766
31
0.0
39
0.0
210
0.0
220
0.0
230
1.0
0
LINE
5
102
330
1C
100
AcDbEntity
67
0
8
DBDT
62
256
6
ByLayer
370
-1
48
1.0
60
0
100
AcDbLine
10
843.445
20
337.766
30
0.0
11
842.713
21
337.092
31
0.0
39
0.0
210
0.0
220
0.0
230
1.0
0
LINE
5
103
330
1C
100
AcDbEntity
67
0
8
DBDT
62
256
6
ByLayer
370
-1
48
1.0
60
0
100
AcDbLine
10
842.713
20
337.092
30
0.0
11
842.019
21
336.405
31
0.0
39
0.0
210
0.0
220
0.0
230
1.0
0
LINE
5
104
330
1C
100
AcDbEntity
67
0
8
DBDT
62
256
6
ByLayer
370
-1
48
1.0
60
0
100
AcDbLine
10
842.019
20
336.405
30
0.0
11
841.363
21
335.706
31
0.0
39
0.0
210
0.0
220
0.0
230
1.0
0
LINE
5
105
330
1C
100
AcDbEntity
67
0
8
DBDT
62
256
6
ByLayer
370
-1
48
1.0
60
0
100
AcDbLine
10
841.363
20
335.706
30
0.0
11
840.747
21
334.995
31
0.0
39
0.0
210
0.0
220
0.0
230
1.0
0
LINE
5
106
330
1C
100
AcDbEntity
67
0
8
DBDT
62
256
6
ByLayer
370
-1
48
1.0
60
0
100
AcDbLine
10
840.747
20
334.995
30
0.0
11
840.17
21
334.273
31
0.0
39
0.0
210
0.0
220
0.0
230
1.0
0
LINE
5
107
330
1C
100
AcDbEntity
67
0
8
DBDT
62
256
6
ByLayer
370
-1
48
1.0
60
0
100
AcDbLine
10
840.17
20
334.273
30
0.0
11
839.634
21
333.542
31
0.0
39
0.0
210
0.0
220
0.0
230
1.0
0
LINE
5
108
330
1C
100
AcDbEntity
67
0
8
DBDT
62
256
6
ByLayer
370
-1
48
1.0
60
0
100
AcDbLine
10
839.634
20
333.542
30
0.0
11
839.138
21
332.801
31
0.0
39
0.0
210
0.0
220
0.0
230
1.0
0
LINE
5
109
330
1C
100
AcDbEntity
67
0
8
DBDT
62
256
6
ByLayer
370
-1
48
1.0
60
0
100
AcDbLine
10
839.138
20
332.801
30
0.0
11
838.684
21
332.051
31
0.0
39
0.0
210
0.0
220
0.0
230
1.0
0
LINE
5
10A
330
1C
100
AcDbEntity
67
0
8
DBDT
62
256
6
ByLayer
370
-1
48
1.0
60
0
100
AcDbLine
10
838.684
20
332.051
30
0.0
11
838.272
21
331.293
31
0.0
39
0.0
210
0.0
220
0.0
230
1.0
0
LINE
5
10B
330
1C
100
AcDbEntity
67
0
8
DBDT
62
256
6
ByLayer
370
-1
48
1.0
60
0
100
AcDbLine
10
838.272
20
331.293
30
0.0
11
837.902
21
330.529
31
0.0
39
0.0
210
0.0
220
0.0
230
1.0
0
LINE
5
10C
330
1C
100
AcDbEntity
67
0
8
DBDT
62
256
6
ByLayer
370
-1
48
1.0
60
0
100
AcDbLine
10
837.902
20
330.529
30
0.0
11
837.575
21
329.758
31
0.0
39
0.0
210
0.0
220
0.0
230
1.0
0
LINE
5
10D
330
1C
100
AcDbEntity
67
0
8
DBDT
62
256
6
ByLayer
370
-1
48
1.0
60
0
100
AcDbLine
10
837.575
20
329.758
30
0.0
11
837.291
21
328.981
31
0.0
39
0.0
210
0.0
220
0.0
230
1.0
0
LINE
5
10E
330
1C
100
AcDbEntity
67
0
8
DBDT
62
256
6
ByLayer
370
-1
48
1.0
60
0
100
AcDbLine
10
837.291
20
328.981
30
0.0
11
837.05
21
328.2
31
0.0
39
0.0
210
0.0
220
0.0
230
1.0
0
LINE
5
10F
330
1C
100
AcDbEntity
67
0
8
DBDT
62
256
6
ByLayer
370
-1
48
1.0
60
0
100
AcDbLine
10
837.05
20
328.2
30
0.0
11
836.852
21
327.415
31
0.0
39
0.0
210
0.0
220
0.0
230
1.0
0
LINE
5
110
330
1C
100
AcDbEntity
67
0
8
DBDT
62
256
6
ByLayer
370
-1
48
1.0
60
0
100
AcDbLine
10
836.852
20
327.415
30
0.0
11
836.698
21
326.626
31
0.0
39
0.0
210
0.0
220
0.0
230
1.0
0
LINE
5
111
330
1C
100
AcDbEntity
67
0
8
DBDT
62
256
6
ByLayer
370
-1
48
1.0
60
0
100
AcDbLine
10
836.698
20
326.626
30
0.0
11
836.588
21
325.836
31
0.0
39
0.0
210
0.0
220
0.0
230
1.0
0
LINE
5
112
330
1C
100
AcDbEntity
67
0
8
DBDT
62
256
6
ByLayer
370
-1
48
1.0
60
0
100
AcDbLine
10
836.588
20
325.836
30
0.0
11
836.522
21
325.043
31
0.0
39
0.0
210
0.0
220
0.0
230
1.0
0
LINE
5
113
330
1C
100
AcDbEntity
67
0
8
DBDT
62
256
6
ByLayer
370
-1
48
1.0
60
0
100
AcDbLine
10
836.522
20
325.043
30
0.0
11
836.5
21
324.25
31
0.0
39
0.0
210
0.0
220
0.0
230
1.0
0
LINE
5
114
330
1C
100
AcDbEntity
67
0
8
DBDT
62
256
6
ByLayer
370
-1
48
1.0
60
0
100
AcDbLine
10
836.5
20
324.25
30
0.0
11
836.5
21
324.25
31
0.0
39
0.0
210
0.0
220
0.0
230
1.0
0
LINE
5
115
330
1C
100
AcDbEntity
67
0
8
DBDT
62
256
6
ByLayer
370
-1
48
1.0
60
0
100
AcDbLine
10
884.0
20
449.25
30
0.0
11
876.5
21
449.25
31
0.0
39
0.0
210
0.0
220
0.0
230
1.0
0
LINE
5
116
330
1C
100
AcDbEntity
67
0
8
DBDT
62
256
6
ByLayer
370
-1
48
1.0
60
0
100
AcDbLine
10
936.5
20
199.25
30
0.0
11
936.5
21
396.75
31
0.0
39
0.0
210
0.0
220
0.0
230
1.0
0
LINE
5
117
330
1C
100
AcDbEntity
67
0
8
DBDT
62
256
6
ByLayer
370
-1
48
1.0
60
0
100
AcDbLine
10
824.0
20
199.25
30
0.0
11
936.5
21
199.25
31
0.0
39
0.0
210
0.0
220
0.0
230
1.0
0
LINE
5
118
330
1C
100
AcDbEntity
67
0
8
DBDT
62
256
6
ByLayer
370
-1
48
1.0
60
0
100
AcDbLine
10
824.0
20
396.75
30
0.0
11
824.0
21
199.25
31
0.0
39
0.0
210
0.0
220
0.0
230
1.0
0
CIRCLE
5
119
330
1C
100
AcDbEntity
67
0
8
DBDT
62
256
6
ByLayer
370
-1
48
1.0
60
0
100
AcDbCircle
10
880.25
20
230.5
30
0.0
40
15.625
39
0.0
210
0.0
220
0.0
230
1.0
0
ARC
5
11A
330
1C
100
AcDbEntity
67
0
8
DBDT
62
256
6
ByLayer
370
-1
48
1.0
60
0
100
AcDbCircle
39
0.0
10
876.5
20
396.75
30
0.0
40
52.5
210
0.0
220
0.0
230
1.0
100
AcDbArc
50
90.0
51
180.0
0
ARC
5
11B
330
1C
100
AcDbEntity
67
0
8
DBDT
62
256
6
ByLayer
370
-1
48
1.0
60
0
100
AcDbCircle
39
0.0
10
884.0
20
396.75
30
0.0
40
52.5
210
0.0
220
0.0
230
1.0
100
AcDbArc
50
0.0
51
90.0
0
LINE
5
11C
330
1C
100
AcDbEntity
67
0
8
DBDT
62
256
6
ByLayer
370
-1
48
1.0
60
0
100
AcDbLine
10
1048.0
20
478.05
30
0.0
11
1040.5
21
478.05
31
0.0
39
0.0
210
0.0
220
0.0
230
1.0
0
LINE
5
11D
330
1C
100
AcDbEntity
67
0
8
DBDT
62
256
6
ByLayer
370
-1
48
1.0
60
0
100
AcDbLine
10
1100.5
20
228.05
30
0.0
11
1100.5
21
425.55
31
0.0
39
0.0
210
0.0
220
0.0
230
1.0
0
LINE
5
11E
330
1C
100
AcDbEntity
67
0
8
DBDT
62
256
6
ByLayer
370
-1
48
1.0
60
0
100
AcDbLine
10
988.0
20
228.05
30
0.0
11
1100.5
21
228.05
31
0.0
39
0.0
210
0.0
220
0.0
230
1.0
0
LINE
5
11F
330
1C
100
AcDbEntity
67
0
8
DBDT
62
256
6
ByLayer
370
-1
48
1.0
60
0
100
AcDbLine
10
988.0
20
425.55
30
0.0
11
988.0
21
228.05
31
0.0
39
0.0
210
0.0
220
0.0
230
1.0
0
CIRCLE
5
120
330
1C
100
AcDbEntity
67
0
8
DBDT
62
256
6
ByLayer
370
-1
48
1.0
60
0
100
AcDbCircle
10
1044.25
20
259.3
30
0.0
40
15.625
39
0.0
210
0.0
220
0.0
230
1.0
0
ARC
5
121
330
1C
100
AcDbEntity
67
0
8
DBDT
62
256
6
ByLayer
370
-1
48
1.0
60
0
100
AcDbCircle
39
0.0
10
1040.5
20
425.55
30
0.0
40
52.5
210
0.0
220
0.0
230
1.0
100
AcDbArc
50
90.0
51
180.0
0
ARC
5
122
330
1C
100
AcDbEntity
67
0
8
DBDT
62
256
6
ByLayer
370
-1
48
1.0
60
0
100
AcDbCircle
39
0.0
10
1048.0
20
425.55
30
0.0
40
52.5
210
0.0
220
0.0
230
1.0
100
AcDbArc
50
0.0
51
90.0
0
LINE
5
123
330
1C
100
AcDbEntity
67
0
8
DBDT
62
256
6
ByLayer
370
-1
48
1.0
60
0
100
AcDbLine
10
412.8
20
201.6
30
0.0
11
442.8
21
201.6
31
0.0
39
0.0
210
0.0
220
0.0
230
1.0
0
LINE
5
124
330
1C
100
AcDbEntity
67
0
8
DBDT
62
256
6
ByLayer
370
-1
48
1.0
60
0
100
AcDbLine
10
442.8
20
201.6
30
0.0
11
442.8
21
241.6
31
0.0
39
0.0
210
0.0
220
0.0
230
1.0
0
LINE
5
125
330
1C
100
AcDbEntity
67
0
8
DBDT
62
256
6
ByLayer
370
-1
48
1.0
60
0
100
AcDbLine
10
442.8
20
241.6
30
0.0
11
412.8
21
241.6
31
0.0
39
0.0
210
0.0
220
0.0
230
1.0
0
LINE
5
126
330
1C
100
AcDbEntity
67
0
8
DBDT
62
256
6
ByLayer
370
-1
48
1.0
60
0
100
AcDbLine
10
412.8
20
241.6
30
0.0
11
412.8
21
201.6
31
0.0
39
0.0
210
0.0
220
0.0
230
1.0
0
LINE
5
127
330
1C
100
AcDbEntity
67
0
8
DBDT
62
256
6
ByLayer
370
-1
48
1.0
60
0
100
AcDbLine
10
468.4
20
262.0
30
0.0
11
468.4
21
362.0
31
0.0
39
0.0
210
0.0
220
0.0
230
1.0
0
LINE
5
128
330
1C
100
AcDbEntity
67
0
8
DBDT
62
256
6
ByLayer
370
-1
48
1.0
60
0
100
AcDbLine
10
468.4
20
262.0
30
0.0
11
518.4
21
262.0
31
0.0
39
0.0
210
0.0
220
0.0
230
1.0
0
LINE
5
129
330
1C
100
AcDbEntity
67
0
8
DBDT
62
256
6
ByLayer
370
-1
48
1.0
60
0
100
AcDbLine
10
518.4
20
262.0
30
0.0
11
518.4
21
362.0
31
0.0
39
0.0
210
0.0
220
0.0
230
1.0
0
VIEWPORT
5
12B
330
1C
100
AcDbEntity
67
0
8
0
62
256
6
ByLayer
370
-1
48
1.0
60
0
100
AcDbViewport
10
488.4
20
312.0
30
0.0
40
40.0
41
20.0
68
2
69
2
12
0.0
22
0.0
13
0.0
23
0.0
14
10.0
24
10.0
15
10.0
25
10.0
16
0.0
26
0.0
36
1.0
17
0.0
27
0.0
37
0.0
42
50.0
43
0.0
44
0.0
45
250.0
50
0.0
51
0.0
72
1000
90
885280
340
12A
110
0.0
120
0.0
130
0.0
111
1.0
121
0.0
131
0.0
112
0.0
122
1.0
132
0.0
0
ELLIPSE
5
12A
102
{ACAD_REACTORS
330
12B
102
}
330
1C
100
AcDbEntity
67
0
8
DBDT
62
256
6
ByLayer
370
-1
48
1.0
60
0
100
AcDbEllipse
10
488.4
20
312.0
30
0.0
11
20.0
21
0.0
31
0.0
210
0.0
220
0.0
230
1.0
40
0.5
41
0.0
42
6.28318530717959
0
ARC
5
12C
330
1C
100
AcDbEntity
67
0
8
DBDT
62
256
6
ByLayer
370
-1
48
1.0
60
0
100
AcDbCircle
39
0.0
10
493.4
20
362.0
30
0.0
40
25.0
210
0.0
220
0.0
230
1.0
100
AcDbArc
50
0.0
51
180.0
0
LINE
5
12D
330
1C
100
AcDbEntity
67
0
8
DBDT
62
256
6
ByLayer
370
-1
48
1.0
60
0
100
AcDbLine
10
595.545
20
267.091
30
0.0
11
595.912
21
266.993
31
0.0
39
0.0
210
0.0
220
0.0
230
1.0
0
LINE
5
12E
330
1C
100
AcDbEntity
67
0
8
DBDT
62
256
6
ByLayer
370
-1
48
1.0
60
0
100
AcDbLine
10
597.995
20
272.995
30
0.0
11
599.998
21
295.883
31
0.0
39
0.0
210
0.0
220
0.0
230
1.0
0
LINE
5
12F
330
1C
100
AcDbEntity
67
0
8
DBDT
62
256
6
ByLayer
370
-1
48
1.0
60
0
100
AcDbLine
10
599.998
20
295.883
30
0.0
11
599.798
21
296.1
31
0.0
39
0.0
210
0.0
220
0.0
230
1.0
0
LINE
5
130
330
1C
100
AcDbEntity
67
0
8
DBDT
62
256
6
ByLayer
370
-1
48
1.0
60
0
100
AcDbLine
10
599.798
20
296.1
30
0.0
11
591.89
21
296.1
31
0.0
39
0.0
210
0.0
220
0.0
230
1.0
0
LINE
5
131
330
1C
100
AcDbEntity
67
0
8
DBDT
62
256
6
ByLayer
370
-1
48
1.0
60
0
100
AcDbLine
10
591.89
20
296.1
30
0.0
11
591.603
21
295.888
31
0.0
39
0.0
210
0.0
220
0.0
230
1.0
0
LINE
5
132
330
1C
100
AcDbEntity
67
0
8
DBDT
62
256
6
ByLayer
370
-1
48
1.0
60
0
100
AcDbLine
10
591.603
20
295.888
30
0.0
11
589.916
21
290.369
31
0.0
39
0.0
210
0.0
220
0.0
230
1.0
0
LINE
5
133
330
1C
100
AcDbEntity
67
0
8
DBDT
62
256
6
ByLayer
370
-1
48
1.0
60
0
100
AcDbLine
10
589.916
20
290.369
30
0.0
11
589.414
21
289.388
31
0.0
39
0.0
210
0.0
220
0.0
230
1.0
0
LINE
5
134
330
1C
100
AcDbEntity
67
0
8
DBDT
62
256
6
ByLayer
370
-1
48
1.0
60
0
100
AcDbLine
10
589.414
20
289.388
30
0.0
11
588.61
21
288.793
31
0.0
39
0.0
210
0.0
220
0.0
230
1.0
0
LINE
5
135
330
1C
100
AcDbEntity
67
0
8
DBDT
62
256
6
ByLayer
370
-1
48
1.0
60
0
100
AcDbLine
10
588.61
20
288.793
30
0.0
11
587.525
21
288.6
31
0.0
39
0.0
210
0.0
220
0.0
230
1.0
0
LINE
5
136
330
1C
100
AcDbEntity
67
0
8
DBDT
62
256
6
ByLayer
370
-1
48
1.0
60
0
100
AcDbLine
10
587.525
20
288.6
30
0.0
11
584.3
21
288.6
31
0.0
39
0.0
210
0.0
220
0.0
230
1.0
0
LINE
5
137
330
1C
100
AcDbEntity
67
0
8
DBDT
62
256
6
ByLayer
370
-1
48
1.0
60
0
100
AcDbLine
10
584.3
20
288.6
30
0.0
11
584.087
21
288.089
31
0.0
39
0.0
210
0.0
220
0.0
230
1.0
0
LINE
5
138
330
1C
100
AcDbEntity
67
0
8
DBDT
62
256
6
ByLayer
370
-1
48
1.0
60
0
100
AcDbLine
10
569.614
20
288.089
30
0.0
11
569.401
21
288.6
31
0.0
39
0.0
210
0.0
220
0.0
230
1.0
0
LINE
5
139
330
1C
100
AcDbEntity
67
0
8
DBDT
62
256
6
ByLayer
370
-1
48
1.0
60
0
100
AcDbLine
10
569.401
20
288.6
30
0.0
11
566.176
21
288.6
31
0.0
39
0.0
210
0.0
220
0.0
230
1.0
0
LINE
5
13A
330
1C
100
AcDbEntity
67
0
8
DBDT
62
256
6
ByLayer
370
-1
48
1.0
60
0
100
AcDbLine
10
566.176
20
288.6
30
0.0
11
565.076
21
288.804
31
0.0
39
0.0
210
0.0
220
0.0
230
1.0
0
LINE
5
13B
330
1C
100
AcDbEntity
67
0
8
DBDT
62
256
6
ByLayer
370
-1
48
1.0
60
0
100
AcDbLine
10
565.076
20
288.804
30
0.0
11
564.272
21
289.399
31
0.0
39
0.0
210
0.0
220
0.0
230
1.0
0
LINE
5
13C
330
1C
100
AcDbEntity
67
0
8
DBDT
62
256
6
ByLayer
370
-1
48
1.0
60
0
100
AcDbLine
10
564.272
20
289.399
30
0.0
11
563.786
21
290.369
31
0.0
39
0.0
210
0.0
220
0.0
230
1.0
0
LINE
5
13D
330
1C
100
AcDbEntity
67
0
8
DBDT
62
256
6
ByLayer
370
-1
48
1.0
60
0
100
AcDbLine
10
563.786
20
290.369
30
0.0
11
562.098
21
295.888
31
0.0
39
0.0
210
0.0
220
0.0
230
1.0
0
LINE
5
13E
330
1C
100
AcDbEntity
67
0
8
DBDT
62
256
6
ByLayer
370
-1
48
1.0
60
0
100
AcDbLine
10
562.098
20
295.888
30
0.0
11
561.812
21
296.1
31
0.0
39
0.0
210
0.0
220
0.0
230
1.0
0
LINE
5
13F
330
1C
100
AcDbEntity
67
0
8
DBDT
62
256
6
ByLayer
370
-1
48
1.0
60
0
100
AcDbLine
10
561.812
20
296.1
30
0.0
11
551.489
21
296.1
31
0.0
39
0.0
210
0.0
220
0.0
230
1.0
0
LINE
5
140
330
1C
100
AcDbEntity
67
0
8
DBDT
62
256
6
ByLayer
370
-1
48
1.0
60
0
100
AcDbLine
10
550.535
20
290.765
30
0.0
11
549.77
21
292.053
31
0.0
39
0.0
210
0.0
220
0.0
230
1.0
0
LINE
5
141
330
1C
100
AcDbEntity
67
0
8
DBDT
62
256
6
ByLayer
370
-1
48
1.0
60
0
100
AcDbLine
10
547.931
20
292.053
30
0.0
11
547.166
21
290.765
31
0.0
39
0.0
210
0.0
220
0.0
230
1.0
0
LINE
5
142
330
1C
100
AcDbEntity
67
0
8
DBDT
62
256
6
ByLayer
370
-1
48
1.0
60
0
100
AcDbLine
10
546.212
20
296.1
30
0.0
11
496.191
21
296.1
31
0.0
39
0.0
210
0.0
220
0.0
230
1.0
0
LINE
5
143
330
1C
100
AcDbEntity
67
0
8
DBDT
62
256
6
ByLayer
370
-1
48
1.0
60
0
100
AcDbLine
10
496.191
20
296.1
30
0.0
11
495.394
21
295.37
31
0.0
39
0.0
210
0.0
220
0.0
230
1.0
0
LINE
5
144
330
1C
100
AcDbEntity
67
0
8
DBDT
62
256
6
ByLayer
370
-1
48
1.0
60
0
100
AcDbLine
10
495.394
20
295.37
30
0.0
11
494.156
21
281.221
31
0.0
39
0.0
210
0.0
220
0.0
230
1.0
0
LINE
5
145
330
1C
100
AcDbEntity
67
0
8
DBDT
62
256
6
ByLayer
370
-1
48
1.0
60
0
100
AcDbLine
10
494.156
20
281.221
30
0.0
11
494.475
21
281.044
31
0.0
39
0.0
210
0.0
220
0.0
230
1.0
0
LINE
5
146
330
1C
100
AcDbEntity
67
0
8
DBDT
62
256
6
ByLayer
370
-1
48
1.0
60
0
100
AcDbLine
10
499.424
20
279.832
30
0.0
11
498.072
21
279.181
31
0.0
39
0.0
210
0.0
220
0.0
230
1.0
0
LINE
5
147
330
1C
100
AcDbEntity
67
0
8
DBDT
62
256
6
ByLayer
370
-1
48
1.0
60
0
100
AcDbLine
10
497.912
20
277.349
30
0.0
11
499.13
21
276.474
31
0.0
39
0.0
210
0.0
220
0.0
230
1.0
0
LINE
5
148
330
1C
100
AcDbEntity
67
0
8
DBDT
62
256
6
ByLayer
370
-1
48
1.0
60
0
100
AcDbLine
10
494.046
20
276.14
30
0.0
11
493.701
21
276.02
31
0.0
39
0.0
210
0.0
220
0.0
230
1.0
0
LINE
5
149
330
1C
100
AcDbEntity
67
0
8
DBDT
62
256
6
ByLayer
370
-1
48
1.0
60
0
100
AcDbLine
10
493.701
20
276.02
30
0.0
11
492.133
21
258.1
31
0.0
39
0.0
210
0.0
220
0.0
230
1.0
0
LINE
5
14A
330
1C
100
AcDbEntity
67
0
8
DBDT
62
256
6
ByLayer
370
-1
48
1.0
60
0
100
AcDbLine
10
492.133
20
258.1
30
0.0
11
492.34
21
257.883
31
0.0
39
0.0
210
0.0
220
0.0
230
1.0
0
LINE
5
14B
330
1C
100
AcDbEntity
67
0
8
DBDT
62
256
6
ByLayer
370
-1
48
1.0
60
0
100
AcDbLine
10
492.34
20
257.883
30
0.0
11
585.498
21
261.136
31
0.0
39
0.0
210
0.0
220
0.0
230
1.0
0
LINE
5
14C
330
1C
100
AcDbEntity
67
0
8
DBDT
62
256
6
ByLayer
370
-1
48
1.0
60
0
100
AcDbLine
10
592.146
20
263.239
30
0.0
11
592.049
21
263.606
31
0.0
39
0.0
210
0.0
220
0.0
230
1.0
0
LINE
5
14D
330
1C
100
AcDbEntity
67
0
8
DBDT
62
256
6
ByLayer
370
-1
48
1.0
60
0
100
AcDbLine
10
589.053
20
267.714
30
0.0
11
590.506
21
267.344
31
0.0
39
0.0
210
0.0
220
0.0
230
1.0
0
LINE
5
14E
330
1C
100
AcDbEntity
67
0
8
DBDT
62
256
6
ByLayer
370
-1
48
1.0
60
0
100
AcDbLine
10
591.806
20
268.645
30
0.0
11
591.436
21
270.098
31
0.0
39
0.0
210
0.0
220
0.0
230
1.0
0
LINE
5
14F
330
1C
100
AcDbEntity
67
0
8
DBDT
62
256
6
ByLayer
370
-1
48
1.0
60
0
100
AcDbLine
10
576.851
20
290.7
30
0.0
11
576.651
21
290.9
31
0.0
39
0.0
210
0.0
220
0.0
230
1.0
0
LINE
5
150
330
1C
100
AcDbEntity
67
0
8
DBDT
62
256
6
ByLayer
370
-1
48
1.0
60
0
100
AcDbLine
10
576.651
20
290.9
30
0.0
11
566.25
21
290.9
31
0.0
39
0.0
210
0.0
220
0.0
230
1.0
0
LINE
5
151
330
1C
100
AcDbEntity
67
0
8
DBDT
62
256
6
ByLayer
370
-1
48
1.0
60
0
100
AcDbLine
10
566.25
20
290.9
30
0.0
11
565.963
21
291.113
31
0.0
39
0.0
210
0.0
220
0.0
230
1.0
0
LINE
5
152
330
1C
100
AcDbEntity
67
0
8
DBDT
62
256
6
ByLayer
370
-1
48
1.0
60
0
100
AcDbLine
10
565.963
20
291.113
30
0.0
11
565.309
21
293.255
31
0.0
39
0.0
210
0.0
220
0.0
230
1.0
0
LINE
5
153
330
1C
100
AcDbEntity
67
0
8
DBDT
62
256
6
ByLayer
370
-1
48
1.0
60
0
100
AcDbLine
10
565.309
20
293.255
30
0.0
11
565.392
21
293.467
31
0.0
39
0.0
210
0.0
220
0.0
230
1.0
0
LINE
5
154
330
1C
100
AcDbEntity
67
0
8
DBDT
62
256
6
ByLayer
370
-1
48
1.0
60
0
100
AcDbLine
10
565.392
20
293.467
30
0.0
11
565.898
21
293.759
31
0.0
39
0.0
210
0.0
220
0.0
230
1.0
0
LINE
5
155
330
1C
100
AcDbEntity
67
0
8
DBDT
62
256
6
ByLayer
370
-1
48
1.0
60
0
100
AcDbLine
10
565.898
20
293.759
30
0.0
11
565.952
21
294.069
31
0.0
39
0.0
210
0.0
220
0.0
230
1.0
0
LINE
5
156
330
1C
100
AcDbEntity
67
0
8
DBDT
62
256
6
ByLayer
370
-1
48
1.0
60
0
100
AcDbLine
10
565.952
20
294.069
30
0.0
11
565.001
21
295.204
31
0.0
39
0.0
210
0.0
220
0.0
230
1.0
0
LINE
5
157
330
1C
100
AcDbEntity
67
0
8
DBDT
62
256
6
ByLayer
370
-1
48
1.0
60
0
100
AcDbLine
10
565.001
20
295.204
30
0.0
11
565.001
21
296.7
31
0.0
39
0.0
210
0.0
220
0.0
230
1.0
0
LINE
5
158
330
1C
100
AcDbEntity
67
0
8
DBDT
62
256
6
ByLayer
370
-1
48
1.0
60
0
100
AcDbLine
10
565.001
20
296.7
30
0.0
11
564.151
21
296.7
31
0.0
39
0.0
210
0.0
220
0.0
230
1.0
0
LINE
5
159
330
1C
100
AcDbEntity
67
0
8
DBDT
62
256
6
ByLayer
370
-1
48
1.0
60
0
100
AcDbLine
10
564.151
20
296.7
30
0.0
11
564.151
21
298.2
31
0.0
39
0.0
210
0.0
220
0.0
230
1.0
0
LINE
5
15A
330
1C
100
AcDbEntity
67
0
8
DBDT
62
256
6
ByLayer
370
-1
48
1.0
60
0
100
AcDbLine
10
564.151
20
298.2
30
0.0
11
563.951
21
298.4
31
0.0
39
0.0
210
0.0
220
0.0
230
1.0
0
LINE
5
15B
330
1C
100
AcDbEntity
67
0
8
DBDT
62
256
6
ByLayer
370
-1
48
1.0
60
0
100
AcDbLine
10
563.951
20
298.4
30
0.0
11
496.1
21
298.4
31
0.0
39
0.0
210
0.0
220
0.0
230
1.0
0
LINE
5
15C
330
1C
100
AcDbEntity
67
0
8
DBDT
62
256
6
ByLayer
370
-1
48
1.0
60
0
100
AcDbLine
10
496.1
20
298.4
30
0.0
11
494.515
21
298.017
31
0.0
39
0.0
210
0.0
220
0.0
230
1.0
0
LINE
5
15D
330
1C
100
AcDbEntity
67
0
8
DBDT
62
256
6
ByLayer
370
-1
48
1.0
60
0
100
AcDbLine
10
494.515
20
298.017
30
0.0
11
493.63
21
297.207
31
0.0
39
0.0
210
0.0
220
0.0
230
1.0
0
LINE
5
15E
330
1C
100
AcDbEntity
67
0
8
DBDT
62
256
6
ByLayer
370
-1
48
1.0
60
0
100
AcDbLine
10
493.63
20
297.207
30
0.0
11
493.111
21
295.662
31
0.0
39
0.0
210
0.0
220
0.0
230
1.0
0
LINE
5
15F
330
1C
100
AcDbEntity
67
0
8
DBDT
62
256
6
ByLayer
370
-1
48
1.0
60
0
100
AcDbLine
10
493.111
20
295.662
30
0.0
11
489.798
21
257.794
31
0.0
39
0.0
210
0.0
220
0.0
230
1.0
0
LINE
5
160
330
1C
100
AcDbEntity
67
0
8
DBDT
62
256
6
ByLayer
370
-1
48
1.0
60
0
100
AcDbLine
10
489.798
20
257.794
30
0.0
11
483.17
21
257.562
31
0.0
39
0.0
210
0.0
220
0.0
230
1.0
0
LINE
5
161
330
1C
100
AcDbEntity
67
0
8
DBDT
62
256
6
ByLayer
370
-1
48
1.0
60
0
100
AcDbLine
10
483.17
20
257.562
30
0.0
11
483.107
21
259.361
31
0.0
39
0.0
210
0.0
220
0.0
230
1.0
0
LINE
5
162
330
1C
100
AcDbEntity
67
0
8
DBDT
62
256
6
ByLayer
370
-1
48
1.0
60
0
100
AcDbLine
10
483.107
20
259.361
30
0.0
11
482.59
21
259.844
31
0.0
39
0.0
210
0.0
220
0.0
230
1.0
0
LINE
5
163
330
1C
100
AcDbEntity
67
0
8
DBDT
62
256
6
ByLayer
370
-1
48
1.0
60
0
100
AcDbLine
10
482.59
20
259.844
30
0.0
11
481.19
21
259.795
31
0.0
39
0.0
210
0.0
220
0.0
230
1.0
0
LINE
5
164
330
1C
100
AcDbEntity
67
0
8
DBDT
62
256
6
ByLayer
370
-1
48
1.0
60
0
100
AcDbLine
10
481.19
20
259.795
30
0.0
11
480.901
21
259.484
31
0.0
39
0.0
210
0.0
220
0.0
230
1.0
0
LINE
5
165
330
1C
100
AcDbEntity
67
0
8
DBDT
62
256
6
ByLayer
370
-1
48
1.0
60
0
100
AcDbLine
10
480.901
20
259.484
30
0.0
11
480.912
21
259.185
31
0.0
39
0.0
210
0.0
220
0.0
230
1.0
0
LINE
5
166
330
1C
100
AcDbEntity
67
0
8
DBDT
62
256
6
ByLayer
370
-1
48
1.0
60
0
100
AcDbLine
10
480.912
20
259.185
30
0.0
11
481.222
21
258.895
31
0.0
39
0.0
210
0.0
220
0.0
230
1.0
0
LINE
5
167
330
1C
100
AcDbEntity
67
0
8
DBDT
62
256
6
ByLayer
370
-1
48
1.0
60
0
100
AcDbLine
10
481.222
20
258.895
30
0.0
11
482.121
21
258.927
31
0.0
39
0.0
210
0.0
220
0.0
230
1.0
0
LINE
5
168
330
1C
100
AcDbEntity
67
0
8
DBDT
62
256
6
ByLayer
370
-1
48
1.0
60
0
100
AcDbLine
10
482.121
20
258.927
30
0.0
11
482.17
21
257.528
31
0.0
39
0.0
210
0.0
220
0.0
230
1.0
0
LINE
5
169
330
1C
100
AcDbEntity
67
0
8
DBDT
62
256
6
ByLayer
370
-1
48
1.0
60
0
100
AcDbLine
10
482.17
20
257.528
30
0.0
11
476.674
21
257.336
31
0.0
39
0.0
210
0.0
220
0.0
230
1.0
0
LINE
5
16A
330
1C
100
AcDbEntity
67
0
8
DBDT
62
256
6
ByLayer
370
-1
48
1.0
60
0
100
AcDbLine
10
476.674
20
257.336
30
0.0
11
476.625
21
258.735
31
0.0
39
0.0
210
0.0
220
0.0
230
1.0
0
LINE
5
16B
330
1C
100
AcDbEntity
67
0
8
DBDT
62
256
6
ByLayer
370
-1
48
1.0
60
0
100
AcDbLine
10
476.625
20
258.735
30
0.0
11
477.524
21
258.766
31
0.0
39
0.0
210
0.0
220
0.0
230
1.0
0
LINE
5
16C
330
1C
100
AcDbEntity
67
0
8
DBDT
62
256
6
ByLayer
370
-1
48
1.0
60
0
100
AcDbLine
10
477.524
20
258.766
30
0.0
11
477.814
21
259.076
31
0.0
39
0.0
210
0.0
220
0.0
230
1.0
0
LINE
5
16D
330
1C
100
AcDbEntity
67
0
8
DBDT
62
256
6
ByLayer
370
-1
48
1.0
60
0
100
AcDbLine
10
477.814
20
259.076
30
0.0
11
477.803
21
259.376
31
0.0
39
0.0
210
0.0
220
0.0
230
1.0
0
LINE
5
16E
330
1C
100
AcDbEntity
67
0
8
DBDT
62
256
6
ByLayer
370
-1
48
1.0
60
0
100
AcDbLine
10
477.803
20
259.376
30
0.0
11
477.493
21
259.666
31
0.0
39
0.0
210
0.0
220
0.0
230
1.0
0
LINE
5
16F
330
1C
100
AcDbEntity
67
0
8
DBDT
62
256
6
ByLayer
370
-1
48
1.0
60
0
100
AcDbLine
10
477.493
20
259.666
30
0.0
11
476.094
21
259.617
31
0.0
39
0.0
210
0.0
220
0.0
230
1.0
0
LINE
5
170
330
1C
100
AcDbEntity
67
0
8
DBDT
62
256
6
ByLayer
370
-1
48
1.0
60
0
100
AcDbLine
10
476.094
20
259.617
30
0.0
11
475.611
21
259.1
31
0.0
39
0.0
210
0.0
220
0.0
230
1.0
0
LINE
5
171
330
1C
100
AcDbEntity
67
0
8
DBDT
62
256
6
ByLayer
370
-1
48
1.0
60
0
100
AcDbLine
10
475.611
20
259.1
30
0.0
11
475.674
21
257.301
31
0.0
39
0.0
210
0.0
220
0.0
230
1.0
0
LINE
5
172
330
1C
100
AcDbEntity
67
0
8
DBDT
62
256
6
ByLayer
370
-1
48
1.0
60
0
100
AcDbLine
10
475.674
20
257.301
30
0.0
11
469.169
21
257.074
31
0.0
39
0.0
210
0.0
220
0.0
230
1.0
0
LINE
5
173
330
1C
100
AcDbEntity
67
0
8
DBDT
62
256
6
ByLayer
370
-1
48
1.0
60
0
100
AcDbLine
10
469.169
20
257.074
30
0.0
11
468.344
21
257.803
31
0.0
39
0.0
210
0.0
220
0.0
230
1.0
0
LINE
5
174
330
1C
100
AcDbEntity
67
0
8
DBDT
62
256
6
ByLayer
370
-1
48
1.0
60
0
100
AcDbLine
10
468.344
20
257.803
30
0.0
11
467.495
21
267.501
31
0.0
39
0.0
210
0.0
220
0.0
230
1.0
0
LINE
5
175
330
1C
100
AcDbEntity
67
0
8
DBDT
62
256
6
ByLayer
370
-1
48
1.0
60
0
100
AcDbLine
10
467.495
20
267.501
30
0.0
11
466.649
21
268.573
31
0.0
39
0.0
210
0.0
220
0.0
230
1.0
0
LINE
5
176
330
1C
100
AcDbEntity
67
0
8
DBDT
62
256
6
ByLayer
370
-1
48
1.0
60
0
100
AcDbLine
10
466.649
20
268.573
30
0.0
11
465.951
21
268.525
31
0.0
39
0.0
210
0.0
220
0.0
230
1.0
0
LINE
5
177
330
1C
100
AcDbEntity
67
0
8
DBDT
62
256
6
ByLayer
370
-1
48
1.0
60
0
100
AcDbLine
10
465.951
20
268.525
30
0.0
11
465.2
21
267.401
31
0.0
39
0.0
210
0.0
220
0.0
230
1.0
0
LINE
5
178
330
1C
100
AcDbEntity
67
0
8
DBDT
62
256
6
ByLayer
370
-1
48
1.0
60
0
100
AcDbLine
10
465.2
20
267.401
30
0.0
11
465.2
21
267.343
31
0.0
39
0.0
210
0.0
220
0.0
230
1.0
0
LINE
5
179
330
1C
100
AcDbEntity
67
0
8
DBDT
62
256
6
ByLayer
370
-1
48
1.0
60
0
100
AcDbLine
10
465.2
20
267.343
30
0.0
11
466.061
21
257.508
31
0.0
39
0.0
210
0.0
220
0.0
230
1.0
0
LINE
5
17A
330
1C
100
AcDbEntity
67
0
8
DBDT
62
256
6
ByLayer
370
-1
48
1.0
60
0
100
AcDbLine
10
466.061
20
257.508
30
0.0
11
466.537
21
255.987
31
0.0
39
0.0
210
0.0
220
0.0
230
1.0
0
LINE
5
17B
330
1C
100
AcDbEntity
67
0
8
DBDT
62
256
6
ByLayer
370
-1
48
1.0
60
0
100
AcDbLine
10
466.537
20
255.987
30
0.0
11
467.586
21
255.059
31
0.0
39
0.0
210
0.0
220
0.0
230
1.0
0
LINE
5
17C
330
1C
100
AcDbEntity
67
0
8
DBDT
62
256
6
ByLayer
370
-1
48
1.0
60
0
100
AcDbLine
10
467.586
20
255.059
30
0.0
11
468.998
21
254.8
31
0.0
39
0.0
210
0.0
220
0.0
230
1.0
0
LINE
5
17D
330
1C
100
AcDbEntity
67
0
8
DBDT
62
256
6
ByLayer
370
-1
48
1.0
60
0
100
AcDbLine
10
468.998
20
254.8
30
0.0
11
469.973
21
254.8
31
0.0
39
0.0
210
0.0
220
0.0
230
1.0
0
LINE
5
17E
330
1C
100
AcDbEntity
67
0
8
DBDT
62
256
6
ByLayer
370
-1
48
1.0
60
0
100
AcDbLine
10
469.973
20
254.8
30
0.0
11
585.844
21
258.847
31
0.0
39
0.0
210
0.0
220
0.0
230
1.0
0
LINE
5
17F
330
1C
100
AcDbEntity
67
0
8
DBDT
62
256
6
ByLayer
370
-1
48
1.0
60
0
100
AcDbLine
10
600.263
20
272.53
30
0.0
11
602.325
21
296.1
31
0.0
39
0.0
210
0.0
220
0.0
230
1.0
0
LINE
5
180
330
1C
100
AcDbEntity
67
0
8
DBDT
62
256
6
ByLayer
370
-1
48
1.0
60
0
100
AcDbLine
10
602.325
20
296.1
30
0.0
11
685.091
21
296.1
31
0.0
39
0.0
210
0.0
220
0.0
230
1.0
0
LINE
5
181
330
1C
100
AcDbEntity
67
0
8
DBDT
62
256
6
ByLayer
370
-1
48
1.0
60
0
100
AcDbLine
10
685.091
20
296.1
30
0.0
11
685.888
21
295.231
31
0.0
39
0.0
210
0.0
220
0.0
230
1.0
0
LINE
5
182
330
1C
100
AcDbEntity
67
0
8
DBDT
62
256
6
ByLayer
370
-1
48
1.0
60
0
100
AcDbLine
10
685.888
20
295.231
30
0.0
11
683.15
21
263.931
31
0.0
39
0.0
210
0.0
220
0.0
230
1.0
0
LINE
5
183
330
1C
100
AcDbEntity
67
0
8
DBDT
62
256
6
ByLayer
370
-1
48
1.0
60
0
100
AcDbLine
10
683.15
20
263.931
30
0.0
11
682.3
21
263.2
31
0.0
39
0.0
210
0.0
220
0.0
230
1.0
0
LINE
5
184
330
1C
100
AcDbEntity
67
0
8
DBDT
62
256
6
ByLayer
370
-1
48
1.0
60
0
100
AcDbLine
10
682.3
20
263.2
30
0.0
11
675.8
21
263.2
31
0.0
39
0.0
210
0.0
220
0.0
230
1.0
0
LINE
5
185
330
1C
100
AcDbEntity
67
0
8
DBDT
62
256
6
ByLayer
370
-1
48
1.0
60
0
100
AcDbLine
10
675.8
20
263.2
30
0.0
11
674.991
21
263.931
31
0.0
39
0.0
210
0.0
220
0.0
230
1.0
0
LINE
5
186
330
1C
100
AcDbEntity
67
0
8
DBDT
62
256
6
ByLayer
370
-1
48
1.0
60
0
100
AcDbLine
10
674.991
20
263.931
30
0.0
11
674.697
21
267.3
31
0.0
39
0.0
210
0.0
220
0.0
230
1.0
0
LINE
5
187
330
1C
100
AcDbEntity
67
0
8
DBDT
62
256
6
ByLayer
370
-1
48
1.0
60
0
100
AcDbLine
10
674.697
20
267.3
30
0.0
11
673.929
21
268.396
31
0.0
39
0.0
210
0.0
220
0.0
230
1.0
0
LINE
5
188
330
1C
100
AcDbEntity
67
0
8
DBDT
62
256
6
ByLayer
370
-1
48
1.0
60
0
100
AcDbLine
10
673.929
20
268.396
30
0.0
11
672.935
21
268.292
31
0.0
39
0.0
210
0.0
220
0.0
230
1.0
0
LINE
5
189
330
1C
100
AcDbEntity
67
0
8
DBDT
62
256
6
ByLayer
370
-1
48
1.0
60
0
100
AcDbLine
10
672.935
20
268.292
30
0.0
11
672.409
21
267.063
31
0.0
39
0.0
210
0.0
220
0.0
230
1.0
0
LINE
5
18A
330
1C
100
AcDbEntity
67
0
8
DBDT
62
256
6
ByLayer
370
-1
48
1.0
60
0
100
AcDbLine
10
672.409
20
267.063
30
0.0
11
672.708
21
263.639
31
0.0
39
0.0
210
0.0
220
0.0
230
1.0
0
LINE
5
18B
330
1C
100
AcDbEntity
67
0
8
DBDT
62
256
6
ByLayer
370
-1
48
1.0
60
0
100
AcDbLine
10
672.708
20
263.639
30
0.0
11
673.191
21
262.128
31
0.0
39
0.0
210
0.0
220
0.0
230
1.0
0
LINE
5
18C
330
1C
100
AcDbEntity
67
0
8
DBDT
62
256
6
ByLayer
370
-1
48
1.0
60
0
100
AcDbLine
10
673.191
20
262.128
30
0.0
11
674.149
21
261.249
31
0.0
39
0.0
210
0.0
220
0.0
230
1.0
0
LINE
5
18D
330
1C
100
AcDbEntity
67
0
8
DBDT
62
256
6
ByLayer
370
-1
48
1.0
60
0
100
AcDbLine
10
674.149
20
261.249
30
0.0
11
675.65
21
260.9
31
0.0
39
0.0
210
0.0
220
0.0
230
1.0
0
LINE
5
18E
330
1C
100
AcDbEntity
67
0
8
DBDT
62
256
6
ByLayer
370
-1
48
1.0
60
0
100
AcDbLine
10
675.65
20
260.9
30
0.0
11
682.45
21
260.9
31
0.0
39
0.0
210
0.0
220
0.0
230
1.0
0
LINE
5
18F
330
1C
100
AcDbEntity
67
0
8
DBDT
62
256
6
ByLayer
370
-1
48
1.0
60
0
100
AcDbLine
10
682.45
20
260.9
30
0.0
11
683.992
21
261.249
31
0.0
39
0.0
210
0.0
220
0.0
230
1.0
0
LINE
5
190
330
1C
100
AcDbEntity
67
0
8
DBDT
62
256
6
ByLayer
370
-1
48
1.0
60
0
100
AcDbLine
10
683.992
20
261.249
30
0.0
11
684.951
21
262.128
31
0.0
39
0.0
210
0.0
220
0.0
230
1.0
0
LINE
5
191
330
1C
100
AcDbEntity
67
0
8
DBDT
62
256
6
ByLayer
370
-1
48
1.0
60
0
100
AcDbLine
10
684.951
20
262.128
30
0.0
11
685.433
21
263.639
31
0.0
39
0.0
210
0.0
220
0.0
230
1.0
0
LINE
5
192
330
1C
100
AcDbEntity
67
0
8
DBDT
62
256
6
ByLayer
370
-1
48
1.0
60
0
100
AcDbLine
10
685.433
20
263.639
30
0.0
11
688.201
21
295.269
31
0.0
39
0.0
210
0.0
220
0.0
230
1.0
0
LINE
5
193
330
1C
100
AcDbEntity
67
0
8
DBDT
62
256
6
ByLayer
370
-1
48
1.0
60
0
100
AcDbLine
10
688.201
20
295.269
30
0.0
11
687.885
21
296.911
31
0.0
39
0.0
210
0.0
220
0.0
230
1.0
0
LINE
5
194
330
1C
100
AcDbEntity
67
0
8
DBDT
62
256
6
ByLayer
370
-1
48
1.0
60
0
100
AcDbLine
10
687.885
20
296.911
30
0.0
11
686.939
21
297.943
31
0.0
39
0.0
210
0.0
220
0.0
230
1.0
0
LINE
5
195
330
1C
100
AcDbEntity
67
0
8
DBDT
62
256
6
ByLayer
370
-1
48
1.0
60
0
100
AcDbLine
10
686.939
20
297.943
30
0.0
11
685.201
21
298.4
31
0.0
39
0.0
210
0.0
220
0.0
230
1.0
0
LINE
5
196
330
1C
100
AcDbEntity
67
0
8
DBDT
62
256
6
ByLayer
370
-1
48
1.0
60
0
100
AcDbLine
10
685.201
20
298.4
30
0.0
11
589.751
21
298.4
31
0.0
39
0.0
210
0.0
220
0.0
230
1.0
0
LINE
5
197
330
1C
100
AcDbEntity
67
0
8
DBDT
62
256
6
ByLayer
370
-1
48
1.0
60
0
100
AcDbLine
10
589.751
20
298.4
30
0.0
11
589.551
21
298.2
31
0.0
39
0.0
210
0.0
220
0.0
230
1.0
0
LINE
5
198
330
1C
100
AcDbEntity
67
0
8
DBDT
62
256
6
ByLayer
370
-1
48
1.0
60
0
100
AcDbLine
10
589.551
20
298.2
30
0.0
11
589.551
21
296.7
31
0.0
39
0.0
210
0.0
220
0.0
230
1.0
0
LINE
5
199
330
1C
100
AcDbEntity
67
0
8
DBDT
62
256
6
ByLayer
370
-1
48
1.0
60
0
100
AcDbLine
10
589.551
20
296.7
30
0.0
11
588.701
21
296.7
31
0.0
39
0.0
210
0.0
220
0.0
230
1.0
0
LINE
5
19A
330
1C
100
AcDbEntity
67
0
8
DBDT
62
256
6
ByLayer
370
-1
48
1.0
60
0
100
AcDbLine
10
588.701
20
296.7
30
0.0
11
588.701
21
295.204
31
0.0
39
0.0
210
0.0
220
0.0
230
1.0
0
LINE
5
19B
330
1C
100
AcDbEntity
67
0
8
DBDT
62
256
6
ByLayer
370
-1
48
1.0
60
0
100
AcDbLine
10
588.701
20
295.204
30
0.0
11
587.749
21
294.069
31
0.0
39
0.0
210
0.0
220
0.0
230
1.0
0
LINE
5
19C
330
1C
100
AcDbEntity
67
0
8
DBDT
62
256
6
ByLayer
370
-1
48
1.0
60
0
100
AcDbLine
10
587.749
20
294.069
30
0.0
11
587.804
21
293.759
31
0.0
39
0.0
210
0.0
220
0.0
230
1.0
0
LINE
5
19D
330
1C
100
AcDbEntity
67
0
8
DBDT
62
256
6
ByLayer
370
-1
48
1.0
60
0
100
AcDbLine
10
587.804
20
293.759
30
0.0
11
588.322
21
293.459
31
0.0
39
0.0
210
0.0
220
0.0
230
1.0
0
LINE
5
19E
330
1C
100
AcDbEntity
67
0
8
DBDT
62
256
6
ByLayer
370
-1
48
1.0
60
0
100
AcDbLine
10
588.322
20
293.459
30
0.0
11
588.399
21
293.276
31
0.0
39
0.0
210
0.0
220
0.0
230
1.0
0
LINE
5
19F
330
1C
100
AcDbEntity
67
0
8
DBDT
62
256
6
ByLayer
370
-1
48
1.0
60
0
100
AcDbLine
10
588.399
20
293.276
30
0.0
11
587.738
21
291.113
31
0.0
39
0.0
210
0.0
220
0.0
230
1.0
0
LINE
5
1A0
330
1C
100
AcDbEntity
67
0
8
DBDT
62
256
6
ByLayer
370
-1
48
1.0
60
0
100
AcDbLine
10
587.738
20
291.113
30
0.0
11
587.451
21
290.9
31
0.0
39
0.0
210
0.0
220
0.0
230
1.0
0
LINE
5
1A1
330
1C
100
AcDbEntity
67
0
8
DBDT
62
256
6
ByLayer
370
-1
48
1.0
60
0
100
AcDbLine
10
587.451
20
290.9
30
0.0
11
577.051
21
290.9
31
0.0
39
0.0
210
0.0
220
0.0
230
1.0
0
LINE
5
1A2
330
1C
100
AcDbEntity
67
0
8
DBDT
62
256
6
ByLayer
370
-1
48
1.0
60
0
100
AcDbLine
10
577.051
20
290.9
30
0.0
11
576.851
21
290.7
31
0.0
39
0.0
210
0.0
220
0.0
230
1.0
0
LINE
5
1A3
330
1C
100
AcDbEntity
67
0
8
DBDT
62
256
6
ByLayer
370
-1
48
1.0
60
0
100
AcDbLine
10
568.958
20
280.012
30
0.0
11
570.927
21
280.828
31
0.0
39
0.0
210
0.0
220
0.0
230
1.0
0
LINE
5
1A4
330
1C
100
AcDbEntity
67
0
8
DBDT
62
256
6
ByLayer
370
-1
48
1.0
60
0
100
AcDbLine
10
570.927
20
280.828
30
0.0
11
572.611
21
276.763
31
0.0
39
0.0
210
0.0
220
0.0
230
1.0
0
LINE
5
1A5
330
1C
100
AcDbEntity
67
0
8
DBDT
62
256
6
ByLayer
370
-1
48
1.0
60
0
100
AcDbLine
10
572.611
20
276.763
30
0.0
11
570.642
21
275.947
31
0.0
39
0.0
210
0.0
220
0.0
230
1.0
0
LINE
5
1A6
330
1C
100
AcDbEntity
67
0
8
DBDT
62
256
6
ByLayer
370
-1
48
1.0
60
0
100
AcDbLine
10
570.642
20
275.947
30
0.0
11
570.565
21
275.634
31
0.0
39
0.0
210
0.0
220
0.0
230
1.0
0
LINE
5
1A7
330
1C
100
AcDbEntity
67
0
8
DBDT
62
256
6
ByLayer
370
-1
48
1.0
60
0
100
AcDbLine
10
568.682
20
280.18
30
0.0
11
568.958
21
280.012
31
0.0
39
0.0
210
0.0
220
0.0
230
1.0
0
ARC
5
1A8
330
1C
100
AcDbEntity
67
0
8
DBDT
62
256
6
ByLayer
370
-1
48
1.0
60
0
100
AcDbCircle
39
0.0
10
592.251
20
266.9
30
0.0
40
3.3
210
0.0
220
0.0
230
1.0
100
AcDbArc
50
3.322
51
104.284
0
ARC
5
1A9
330
1C
100
AcDbEntity
67
0
8
DBDT
62
256
6
ByLayer
370
-1
48
1.0
60
0
100
AcDbCircle
39
0.0
10
585.045
20
274.128
30
0.0
40
13.0
210
0.0
220
0.0
230
1.0
100
AcDbArc
50
326.713
51
355.0
0
ARC
5
1AA
330
1C
100
AcDbEntity
67
0
8
DBDT
62
256
6
ByLayer
370
-1
48
1.0
60
0
100
AcDbCircle
39
0.0
10
576.85
20
280.9
30
0.0
40
10.2
210
0.0
220
0.0
230
1.0
100
AcDbArc
50
135.189
51
44.811
0
ARC
5
1AB
330
1C
100
AcDbEntity
67
0
8
DBDT
62
256
6
ByLayer
370
-1
48
1.0
60
0
100
AcDbCircle
39
0.0
10
551.489
20
295.9
30
0.0
40
0.2
210
0.0
220
0.0
230
1.0
100
AcDbArc
50
89.999
51
221.066
0
ARC
5
1AC
330
1C
100
AcDbEntity
67
0
8
DBDT
62
256
6
ByLayer
370
-1
48
1.0
60
0
100
AcDbCircle
39
0.0
10
548.848
20
293.602
30
0.0
40
3.301
210
0.0
220
0.0
230
1.0
100
AcDbArc
50
300.74
51
41.034
0
ARC
5
1AD
330
1C
100
AcDbEntity
67
0
8
DBDT
62
256
6
ByLayer
370
-1
48
1.0
60
0
100
AcDbCircle
39
0.0
10
548.851
20
293.6
30
0.0
40
1.8
210
0.0
220
0.0
230
1.0
100
AcDbArc
50
300.715
51
239.285
0
ARC
5
1AE
330
1C
100
AcDbEntity
67
0
8
DBDT
62
256
6
ByLayer
370
-1
48
1.0
60
0
100
AcDbCircle
39
0.0
10
548.849
20
293.601
30
0.0
40
3.298
210
0.0
220
0.0
230
1.0
100
AcDbArc
50
138.904
51
239.322
0
ARC
5
1AF
330
1C
100
AcDbEntity
67
0
8
DBDT
62
256
6
ByLayer
370
-1
48
1.0
60
0
100
AcDbCircle
39
0.0
10
546.212
20
295.9
30
0.0
40
0.2
210
0.0
220
0.0
230
1.0
100
AcDbArc
50
318.934
51
90.001
0
ARC
5
1B0
330
1C
100
AcDbEntity
67
0
8
DBDT
62
256
6
ByLayer
370
-1
48
1.0
60
0
100
AcDbCircle
39
0.0
10
496.45
20
278.4
30
0.0
40
3.3
210
0.0
220
0.0
230
1.0
100
AcDbArc
50
25.714
51
126.766
0
ARC
5
1B1
330
1C
100
AcDbEntity
67
0
8
DBDT
62
256
6
ByLayer
370
-1
48
1.0
60
0
100
AcDbCircle
39
0.0
10
496.45
20
278.4
30
0.0
40
1.8
210
0.0
220
0.0
230
1.0
100
AcDbArc
50
25.717
51
324.286
0
ARC
5
1B2
330
1C
100
AcDbEntity
67
0
8
DBDT
62
256
6
ByLayer
370
-1
48
1.0
60
0
100
AcDbCircle
39
0.0
10
496.451
20
278.4
30
0.0
40
3.3
210
0.0
220
0.0
230
1.0
100
AcDbArc
50
223.233
51
324.285
0
ARC
5
1B3
330
1C
100
AcDbEntity
67
0
8
DBDT
62
256
6
ByLayer
370
-1
48
1.0
60
0
100
AcDbCircle
39
0.0
10
585.045
20
274.128
30
0.0
40
13.0
210
0.0
220
0.0
230
1.0
100
AcDbArc
50
272.0
51
303.113
0
ARC
5
1B4
330
1C
100
AcDbEntity
67
0
8
DBDT
62
256
6
ByLayer
370
-1
48
1.0
60
0
100
AcDbCircle
39
0.0
10
592.251
20
266.9
30
0.0
40
3.3
210
0.0
220
0.0
230
1.0
100
AcDbArc
50
165.715
51
266.505
0
ARC
5
1B5
330
1C
100
AcDbEntity
67
0
8
DBDT
62
256
6
ByLayer
370
-1
48
1.0
60
0
100
AcDbCircle
39
0.0
10
592.25
20
266.9
30
0.0
40
1.8
210
0.0
220
0.0
230
1.0
100
AcDbArc
50
165.716
51
104.284
0
ARC
5
1B6
330
1C
100
AcDbEntity
67
0
8
DBDT
62
256
6
ByLayer
370
-1
48
1.0
60
0
100
AcDbCircle
39
0.0
10
585.32
20
273.837
30
0.0
40
15.0
210
0.0
220
0.0
230
1.0
100
AcDbArc
50
272.0
51
355.0
0
ARC
5
1B7
330
1C
100
AcDbEntity
67
0
8
DBDT
62
256
6
ByLayer
370
-1
48
1.0
60
0
100
AcDbCircle
39
0.0
10
576.85
20
280.9
30
0.0
40
8.2
210
0.0
220
0.0
230
1.0
100
AcDbArc
50
219.957
51
185.042
0
LINE
5
1B8
330
1C
100
AcDbEntity
67
0
8
DBDT
62
256
6
ByLayer
370
-1
48
1.0
60
0
100
AcDbLine
10
60.0
20
60.0
30
0.0
11
90.0
21
60.0
31
0.0
39
0.0
210
0.0
220
0.0
230
1.0
0
LINE
5
1B9
330
1C
100
AcDbEntity
67
0
8
DBDT
62
256
6
ByLayer
370
-1
48
1.0
60
0
100
AcDbLine
10
90.0
20
60.0
30
0.0
11
90.0
21
100.0
31
0.0
39
0.0
210
0.0
220
0.0
230
1.0
0
LINE
5
1BA
330
1C
100
AcDbEntity
67
0
8
DBDT
62
256
6
ByLayer
370
-1
48
1.0
60
0
100
AcDbLine
10
90.0
20
100.0
30
0.0
11
60.0
21
100.0
31
0.0
39
0.0
210
0.0
220
0.0
230
1.0
0
LINE
5
1BB
330
1C
100
AcDbEntity
67
0
8
DBDT
62
256
6
ByLayer
370
-1
48
1.0
60
0
100
AcDbLine
10
60.0
20
100.0
30
0.0
11
60.0
21
60.0
31
0.0
39
0.0
210
0.0
220
0.0
230
1.0
0
LINE
5
1BC
330
1C
100
AcDbEntity
67
0
8
DBDT
62
256
6
ByLayer
370
-1
48
1.0
60
0
100
AcDbLine
10
50.0
20
50.0
30
0.0
11
50.0
21
150.0
31
0.0
39
0.0
210
0.0
220
0.0
230
1.0
0
LINE
5
1BD
330
1C
100
AcDbEntity
67
0
8
DBDT
62
256
6
ByLayer
370
-1
48
1.0
60
0
100
AcDbLine
10
50.0
20
50.0
30
0.0
11
100.0
21
50.0
31
0.0
39
0.0
210
0.0
220
0.0
230
1.0
0
LINE
5
1BE
330
1C
100
AcDbEntity
67
0
8
DBDT
62
256
6
ByLayer
370
-1
48
1.0
60
0
100
AcDbLine
10
100.0
20
50.0
30
0.0
11
100.0
21
150.0
31
0.0
39
0.0
210
0.0
220
0.0
230
1.0
0
VIEWPORT
5
1C0
330
1C
100
AcDbEntity
67
0
8
0
62
256
6
ByLayer
370
-1
48
1.0
60
0
100
AcDbViewport
10
70.0
20
100.0
30
0.0
40
40.0
41
20.0
68
2
69
2
12
0.0
22
0.0
13
0.0
23
0.0
14
10.0
24
10.0
15
10.0
25
10.0
16
0.0
26
0.0
36
1.0
17
0.0
27
0.0
37
0.0
42
50.0
43
0.0
44
0.0
45
250.0
50
0.0
51
0.0
72
1000
90
885280
340
1BF
110
0.0
120
0.0
130
0.0
111
1.0
121
0.0
131
0.0
112
0.0
122
1.0
132
0.0
0
ELLIPSE
5
1BF
102
{ACAD_REACTORS
330
1C0
102
}
330
1C
100
AcDbEntity
67
0
8
DBDT
62
256
6
ByLayer
370
-1
48
1.0
60
0
100
AcDbEllipse
10
70.0
20
100.0
30
0.0
11
20.0
21
0.0
31
0.0
210
0.0
220
0.0
230
1.0
40
0.5
41
0.0
42
6.28318530717959
0
ARC
5
1C1
330
1C
100
AcDbEntity
67
0
8
DBDT
62
256
6
ByLayer
370
-1
48
1.0
60
0
100
AcDbCircle
39
0.0
10
75.0
20
150.0
30
0.0
40
25.0
210
0.0
220
0.0
230
1.0
100
AcDbArc
50
0.0
51
180.0
0
VIEWPORT
5
1C6
330
1C2
100
AcDbEntity
67
1
8
0
62
256
6
ByLayer
370
-1
48
1.0
60
0
100
AcDbViewport
10
0.0
20
0.0
30
0.0
40
297.0
41
210.0
68
1
69
1
12
50.0
22
100.0
13
0.0
23
0.0
14
10.0
24
10.0
15
10.0
25
10.0
16
0.0
26
0.0
36
1.0
17
0.0
27
0.0
37
0.0
42
50.0
43
0.0
44
0.0
45
250.0
50
0.0
51
0.0
72
1000
90
819232
110
0.0
120
0.0
130
0.0
111
1.0
121
0.0
131
0.0
112
0.0
122
1.0
132
0.0
0
ENDSEC
0
SECTION
2
OBJECTS
0
DICTIONARY
5
1CC
330
0
100
AcDbDictionary
280
1
281
1
3
ACAD_GROUP
350
12
3
ACAD_LAYOUT
350
1C5
3
ACAD_DGNDEFINITIONS
350
F
3
ACAD_DWFDEFINITIONS
350
10
3
ACAD_PDFDEFINITIONS
350
11
3
ACAD_MLINESTYLE
350
B
3
ACAD_IMAGE_DICT
350
E
3
ACAD_IMAGE_VARS
350
21
0
DICTIONARY
5
12
330
1CC
100
AcDbDictionary
280
1
281
1
0
DICTIONARY
5
1C5
330
1CC
100
AcDbDictionary
280
1
281
1
3
Model
350
20
3
Layout1
350
1C7
0
DICTIONARY
5
F
330
1CC
100
AcDbDictionary
280
1
281
1
0
DICTIONARY
5
10
330
1CC
100
AcDbDictionary
280
1
281
1
0
DICTIONARY
5
11
330
1CC
100
AcDbDictionary
280
1
281
1
0
DICTIONARY
5
B
330
1CC
100
AcDbDictionary
280
1
281
1
3
Standard
350
1B
0
DICTIONARY
5
E
330
1CC
100
AcDbDictionary
280
1
281
1
0
DICTIONARY
5
6
330
5
100
AcDbDictionary
280
1
281
1
3
ACAD_LAYERSTATES
360
1CD
0
DICTIONARY
5
1CD
330
6
100
AcDbDictionary
280
1
281
1
0
LAYOUT
5
20
330
1C5
100
AcDbPlotSettings
1

2
none_device
4
ISO_A4_(210.00_x_297.00_MM)
6

40
7.5
41
20.0
42
7.5
43
20.0
44
210.0
45
297.0
46
0.0
47
0.0
48
0.0
49
0.0
140
0.0
141
0.0
142
1.0
143
1.0
70
11952
72
1
73
1
74
1
7

75
0
76
0
77
2
78
300
147
1.0
148
0.0
149
0.0
100
AcDbLayout
1
Model
71
0
10
-20.0
20
-7.5
11
277.0
21
202.5
12
0.0
22
0.0
32
0.0
14
25.7
24
19.5
34
0.0
15
231.3
25
175.5
35
0.0
146
0.0
13
0.0
23
0.0
33
0.0
16
1.0
26
0.0
36
0.0
17
0.0
27
1.0
37
0.0
76
0
330
1C
0
LAYOUT
5
1C7
330
1C5
100
AcDbPlotSettings
1

2
none_device
4
ISO_A4_(210.00_x_297.00_MM)
6

40
7.5
41
20.0
42
7.5
43
20.0
44
210.0
45
297.0
46
0.0
47
0.0
48
0.0
49
0.0
140
0.0
141
0.0
142
1.0
143
1.0
70
688
72
1
73
1
74
1
7

75
0
76
0
77
2
78
300
147
1.0
148
0.0
149
0.0
100
AcDbLayout
1
Layout1
71
1
10
-20.0
20
-7.5
11
277.0
21
202.5
12
0.0
22
0.0
32
0.0
14
25.7
24
19.5
34
0.0
15
231.3
25
175.5
35
0.0
146
0.0
13
0.0
23
0.0
33
0.0
16
1.0
26
0.0
36
0.0
17
0.0
27
1.0
37
0.0
76
0
330
1C2
0
MLINESTYLE
5
1B
330
B
100
AcDbMlineStyle
2
Standard
70
0
3

62
256
51
90.0
52
90.0
71
2
49
0.5
62
256
6
ByLayer
49
-0.5
62
256
6
ByLayer
0
RASTERVARIABLES
5
21
330
E
100
AcDbRasterVariables
90
0
70
1
71
1
72
0
0
ENDSEC
0
EOF
