999
DXF file generated by netDxf https://github.com/haplokuon/netDxf, Copyright(C) Daniel Carvajal, Licensed under MIT
0
SECTION
2
HEADER
9
$ACADVER
1
AC1015
9
$DWGCODEPAGE
3
ANSI_1252
9
$HANDSEED
5
1DE
9
$ANGBASE
50
0.0
9
$ANGDIR
70
0
9
$ATTMODE
70
1
9
$AUNITS
70
0
9
$AUPREC
70
0
9
$CECOLOR
62
256
9
$CELTSCALE
40
1.0
9
$CELTYPE
6
ByLayer
9
$CELWEIGHT
370
-1
9
$CLAYER
8
0
9
$CMLJUST
70
0
9
$CMLSCALE
40
20.0
9
$CMLSTYLE
2
Standard
9
$DIMSTYLE
2
Standard
9
$TEXTSIZE
40
2.5
9
$TEXTSTYLE
7
Standard
9
$LUNITS
70
2
9
$LUPREC
70
4
9
$MIRRTEXT
70
0
9
$EXTNAMES
290
1
9
$INSBASE
10
0.0
20
0.0
30
0.0
9
$INSUNITS
70
4
9
$LTSCALE
40
1.0
9
$LWDISPLAY
290
0
9
$PDMODE
70
0
9
$PDSIZE
40
0.0
9
$PLINEGEN
70
0
9
$PSLTSCALE
70
1
9
$SPLINESEGS
70
8
9
$SURFU
70
6
9
$SURFV
70
6
9
$TDCREATE
40
2459886.32423491
9
$TDUCREATE
40
2459886.28256824
9
$TDUPDATE
40
2459886.32423491
9
$TDUUPDATE
40
2459886.28256824
9
$TDINDWG
40
0.0
9
$UCSORG
10
0.0
20
0.0
30
0.0
9
$UCSXDIR
10
1.0
20
0.0
30
0.0
9
$UCSYDIR
10
0.0
20
1.0
30
0.0
9
$DIMADEC
70
0
9
$DIMALT
70
0
9
$DIMALTD
70
2
9
$DIMALTF
40
25.4
9
$DIMALTRND
40
0.0
9
$DIMALTTD
70
2
9
$DIMALTTZ
70
0
9
$DIMALTU
70
2
9
$DIMALTZ
70
0
9
$DIMAPOST
1
[]
9
$DIMATFIT
70
3
9
$DIMAUNIT
70
0
9
$DIMASZ
40
0.18
9
$DIMAZIN
70
0
9
$DIMSAH
70
0
9
$DIMBLK
1

9
$DIMLDRBLK
1

9
$DIMCEN
40
0.09
9
$DIMCLRD
70
0
9
$DIMCLRE
70
0
9
$DIMCLRT
70
0
9
$DIMDEC
70
4
9
$DIMDLE
40
0.0
9
$DIMDLI
40
0.38
9
$DIMDSEP
70
46
9
$DIMEXE
40
0.18
9
$DIMEXO
40
0.0625
9
$DIMFXLON
70
0
9
$DIMFXL
40
1.0
9
$DIMGAP
40
0.09
9
$DIMJUST
70
0
9
$DIMLFAC
40
1.0
9
$DIMLUNIT
70
2
9
$DIMLWD
70
-2
9
$DIMLWE
70
-2
9
$DIMPOST
1
<>
9
$DIMRND
40
0.0
9
$DIMSCALE
40
1.0
9
$DIMSD1
70
0
9
$DIMSD2
70
0
9
$DIMSE1
70
0
9
$DIMSE2
70
0
9
$DIMSOXD
70
0
9
$DIMTAD
70
0
9
$DIMTDEC
70
4
9
$DIMTFAC
40
1.0
9
$DIMTIH
70
0
9
$DIMTIX
70
0
9
$DIMTM
40
0.0
9
$DIMTMOVE
70
0
9
$DIMTOFL
70
0
9
$DIMTOH
70
0
9
$DIMTOL
70
0
9
$DIMLIM
70
0
9
$DIMTOLJ
70
1
9
$DIMTP
40
0.0
9
$DIMTXT
40
0.18
9
$DIMTXTDIRECTION
70
0
9
$DIMTZIN
70
0
9
$DIMZIN
70
0
9
$DIMFRAC
70
0
9
$DIMLTYPE
6
ByBlock
9
$DIMLTEX1
6
ByBlock
9
$DIMLTEX2
6
ByBlock
0
ENDSEC
0
SECTION
2
CLASSES
0
CLASS
1
RASTERVARIABLES
2
AcDbRasterVariables
3
ISM
90
0
280
0
281
0
0
ENDSEC
0
SECTION
2
TABLES
0
TABLE
2
APPID
5
4
330
0
100
AcDbSymbolTable
70
5
0
APPID
5
19
330
4
100
AcDbSymbolTableRecord
100
AcDbRegAppTableRecord
2
ACAD
70
0
0
APPID
5
1D8
330
4
100
AcDbSymbolTableRecord
100
AcDbRegAppTableRecord
2
AcCmTransparency
70
0
0
APPID
5
1D9
330
4
100
AcDbSymbolTableRecord
100
AcDbRegAppTableRecord
2
AcAecLayerStandard
70
0
0
APPID
5
1DA
330
4
100
AcDbSymbolTableRecord
100
AcDbRegAppTableRecord
2
GradientColor1ACI
70
0
0
APPID
5
1DB
330
4
100
AcDbSymbolTableRecord
100
AcDbRegAppTableRecord
2
GradientColor2ACI
70
0
0
ENDTAB
0
TABLE
2
VPORT
5
1
330
0
100
AcDbSymbolTable
70
1
0
VPORT
5
2
330
1
100
AcDbSymbolTableRecord
100
AcDbViewportTableRecord
2
*Active
70
0
10
0.0
20
0.0
11
1.0
21
1.0
12
0.0
22
0.0
13
0.0
23
0.0
14
0.5
24
0.5
15
10.0
25
10.0
16
0.0
26
0.0
36
1.0
17
0.0
27
0.0
37
0.0
40
10.0
41
1.0
75
0
76
1
0
ENDTAB
0
TABLE
2
LTYPE
5
7
330
0
100
AcDbSymbolTable
70
3
0
LTYPE
5
15
330
7
100
AcDbSymbolTableRecord
100
AcDbLinetypeTableRecord
2
Continuous
70
0
3
Solid line
72
65
73
0
40
0.0
0
LTYPE
5
16
330
7
100
AcDbSymbolTableRecord
100
AcDbLinetypeTableRecord
2
ByLayer
70
0
3

72
65
73
0
40
0.0
0
LTYPE
5
17
330
7
100
AcDbSymbolTableRecord
100
AcDbLinetypeTableRecord
2
ByBlock
70
0
3

72
65
73
0
40
0.0
0
ENDTAB
0
TABLE
2
LAYER
5
5
102
{ACAD_XDICTIONARY
360
6
102
}
330
0
100
AcDbSymbolTable
70
2
0
LAYER
5
14
330
5
100
AcDbSymbolTableRecord
100
AcDbLayerTableRecord
2
0
70
0
62
7
6
Continuous
290
1
370
-3
390
0
0
LAYER
5
25
330
5
100
AcDbSymbolTableRecord
100
AcDbLayerTableRecord
2
DBDT
70
0
62
5
6
Continuous
290
1
370
-3
390
0
0
ENDTAB
0
TABLE
2
STYLE
5
8
330
0
100
AcDbSymbolTable
70
1
0
STYLE
5
18
330
8
100
AcDbSymbolTableRecord
100
AcDbTextStyleTableRecord
2
Standard
3
simplex.shx
70
0
71
0
40
0.0
41
1.0
42
0.0
50
0.0
0
ENDTAB
0
TABLE
2
DIMSTYLE
5
A
330
0
100
AcDbSymbolTable
70
1
100
AcDbDimStyleTable
0
DIMSTYLE
105
1A
330
A
100
AcDbSymbolTableRecord
100
AcDbDimStyleTableRecord
2
Standard
3
<>
4
[]
40
1.0
41
0.18
42
0.0625
43
0.38
44
0.18
45
0.0
46
0.0
47
0.0
48
0.0
49
1.0
70
0
71
0
72
0
73
0
74
0
75
0
76
0
77
0
78
0
79
0
140
0.18
141
0.09
143
25.4
144
1.0
146
1.0
147
0.09
148
0.0
170
0
171
2
172
0
174
0
175
0
176
0
177
0
178
0
179
0
271
4
272
4
273
2
274
2
275
0
276
0
277
2
278
46
279
0
280
0
281
0
282
0
283
1
284
0
285
0
286
0
289
3
290
0
294
0
340
18
173
0
345
17
346
17
347
17
371
-2
372
-2
0
ENDTAB
0
TABLE
2
VIEW
5
3
330
0
100
AcDbSymbolTable
70
0
0
ENDTAB
0
TABLE
2
UCS
5
C
330
0
100
AcDbSymbolTable
70
0
0
ENDTAB
0
TABLE
2
BLOCK_RECORD
5
D
330
0
100
AcDbSymbolTable
70
3
0
BLOCK_RECORD
5
1C
330
D
100
AcDbSymbolTableRecord
100
AcDbBlockTableRecord
2
*Model_Space
340
20
0
BLOCK_RECORD
5
22
330
D
100
AcDbSymbolTableRecord
100
AcDbBlockTableRecord
2
BaseBlock
340
0
70
4
280
1
281
0
1001
ACAD
1000
DesignCenter Data
1002
{
1070
1
1070
4
1002
}
0
BLOCK_RECORD
5
1D2
330
D
100
AcDbSymbolTableRecord
100
AcDbBlockTableRecord
2
*Paper_Space
340
1D7
0
ENDTAB
0
ENDSEC
0
SECTION
2
BLOCKS
0
BLOCK
5
1E
330
1C
100
AcDbEntity
67
0
8
0
100
AcDbBlockBegin
2
*Model_Space
70
0
10
0.0
20
0.0
30
0.0
3
*Model_Space
4

0
ENDBLK
5
1D
330
1C
100
AcDbEntity
8
0
100
AcDbBlockEnd
0
BLOCK
5
24
330
22
100
AcDbEntity
8
0
100
AcDbBlockBegin
2
BaseBlock
70
0
10
0.0
20
0.0
30
0.0
3
BaseBlock
4

0
ENDBLK
5
23
330
22
100
AcDbEntity
8
0
100
AcDbBlockEnd
0
BLOCK
5
1D4
330
1D2
100
AcDbEntity
67
1
8
0
100
AcDbBlockBegin
2
*Paper_Space
70
0
10
0.0
20
0.0
30
0.0
3
*Paper_Space
4

0
ENDBLK
5
1D3
330
1D2
100
AcDbEntity
8
0
100
AcDbBlockEnd
0
ENDSEC
0
SECTION
2
ENTITIES
0
LINE
5
26
330
1C
100
AcDbEntity
67
0
8
DBDT
62
256
6
ByLayer
370
-1
48
1.0
60
0
100
AcDbLine
10
30.8
20
36.0
30
0.0
11
52.8
21
14.0
31
0.0
39
0.0
210
0.0
220
0.0
230
1.0
0
VIEWPORT
5
28
330
1C
100
AcDbEntity
67
0
8
0
62
256
6
ByLayer
370
-1
48
1.0
60
0
100
AcDbViewport
10
132.8
20
116.0
30
0.0
40
200.0
41
150.0
68
2
69
2
12
0.0
22
0.0
13
0.0
23
0.0
14
10.0
24
10.0
15
10.0
25
10.0
16
0.0
26
0.0
36
1.0
17
0.0
27
0.0
37
0.0
42
50.0
43
0.0
44
0.0
45
250.0
50
0.0
51
0.0
72
1000
90
885280
340
27
110
0.0
120
0.0
130
0.0
111
1.0
121
0.0
131
0.0
112
0.0
122
1.0
132
0.0
0
ELLIPSE
5
27
102
{ACAD_REACTORS
330
28
102
}
330
1C
100
AcDbEntity
67
0
8
DBDT
62
256
6
ByLayer
370
-1
48
1.0
60
0
100
AcDbEllipse
10
132.8
20
116.0
30
0.0
11
100.0
21
0.0
31
0.0
210
0.0
220
0.0
230
1.0
40
0.75
41
0.0
42
6.28318530717959
0
LINE
5
29
330
1C
100
AcDbEntity
67
0
8
DBDT
62
256
6
ByLayer
370
-1
48
1.0
60
0
100
AcDbLine
10
226.8
20
219.6
30
0.0
11
226.8
21
319.6
31
0.0
39
0.0
210
0.0
220
0.0
230
1.0
0
LINE
5
2A
330
1C
100
AcDbEntity
67
0
8
DBDT
62
256
6
ByLayer
370
-1
48
1.0
60
0
100
AcDbLine
10
226.8
20
319.6
30
0.0
11
326.8
21
319.6
31
0.0
39
0.0
210
0.0
220
0.0
230
1.0
0
LINE
5
2B
330
1C
100
AcDbEntity
67
0
8
DBDT
62
256
6
ByLayer
370
-1
48
1.0
60
0
100
AcDbLine
10
326.8
20
319.6
30
0.0
11
326.8
21
219.6
31
0.0
39
0.0
210
0.0
220
0.0
230
1.0
0
LINE
5
2C
330
1C
100
AcDbEntity
67
0
8
DBDT
62
256
6
ByLayer
370
-1
48
1.0
60
0
100
AcDbLine
10
326.8
20
219.6
30
0.0
11
226.8
21
219.6
31
0.0
39
0.0
210
0.0
220
0.0
230
1.0
0
LINE
5
2D
330
1C
100
AcDbEntity
67
0
8
DBDT
62
256
6
ByLayer
370
-1
48
1.0
60
0
100
AcDbLine
10
226.8
20
219.6
30
0.0
11
276.8
21
269.6
31
0.0
39
0.0
210
0.0
220
0.0
230
1.0
0
LINE
5
2E
330
1C
100
AcDbEntity
67
0
8
DBDT
62
256
6
ByLayer
370
-1
48
1.0
60
0
100
AcDbLine
10
456.404
20
162.686
30
0.0
11
455.967
21
162.024
31
0.0
39
0.0
210
0.0
220
0.0
230
1.0
0
LINE
5
2F
330
1C
100
AcDbEntity
67
0
8
DBDT
62
256
6
ByLayer
370
-1
48
1.0
60
0
100
AcDbLine
10
455.967
20
162.024
30
0.0
11
455.566
21
161.336
31
0.0
39
0.0
210
0.0
220
0.0
230
1.0
0
LINE
5
30
330
1C
100
AcDbEntity
67
0
8
DBDT
62
256
6
ByLayer
370
-1
48
1.0
60
0
100
AcDbLine
10
455.566
20
161.336
30
0.0
11
455.203
21
160.626
31
0.0
39
0.0
210
0.0
220
0.0
230
1.0
0
LINE
5
31
330
1C
100
AcDbEntity
67
0
8
DBDT
62
256
6
ByLayer
370
-1
48
1.0
60
0
100
AcDbLine
10
455.203
20
160.626
30
0.0
11
454.877
21
159.892
31
0.0
39
0.0
210
0.0
220
0.0
230
1.0
0
LINE
5
32
330
1C
100
AcDbEntity
67
0
8
DBDT
62
256
6
ByLayer
370
-1
48
1.0
60
0
100
AcDbLine
10
454.877
20
159.892
30
0.0
11
454.589
21
159.135
31
0.0
39
0.0
210
0.0
220
0.0
230
1.0
0
LINE
5
33
330
1C
100
AcDbEntity
67
0
8
DBDT
62
256
6
ByLayer
370
-1
48
1.0
60
0
100
AcDbLine
10
454.589
20
159.135
30
0.0
11
454.338
21
158.357
31
0.0
39
0.0
210
0.0
220
0.0
230
1.0
0
LINE
5
34
330
1C
100
AcDbEntity
67
0
8
DBDT
62
256
6
ByLayer
370
-1
48
1.0
60
0
100
AcDbLine
10
454.338
20
158.357
30
0.0
11
454.125
21
157.558
31
0.0
39
0.0
210
0.0
220
0.0
230
1.0
0
LINE
5
35
330
1C
100
AcDbEntity
67
0
8
DBDT
62
256
6
ByLayer
370
-1
48
1.0
60
0
100
AcDbLine
10
454.125
20
157.558
30
0.0
11
453.951
21
156.738
31
0.0
39
0.0
210
0.0
220
0.0
230
1.0
0
LINE
5
36
330
1C
100
AcDbEntity
67
0
8
DBDT
62
256
6
ByLayer
370
-1
48
1.0
60
0
100
AcDbLine
10
453.951
20
156.738
30
0.0
11
453.816
21
155.9
31
0.0
39
0.0
210
0.0
220
0.0
230
1.0
0
LINE
5
37
330
1C
100
AcDbEntity
67
0
8
DBDT
62
256
6
ByLayer
370
-1
48
1.0
60
0
100
AcDbLine
10
453.816
20
155.9
30
0.0
11
453.719
21
155.043
31
0.0
39
0.0
210
0.0
220
0.0
230
1.0
0
LINE
5
38
330
1C
100
AcDbEntity
67
0
8
DBDT
62
256
6
ByLayer
370
-1
48
1.0
60
0
100
AcDbLine
10
453.719
20
155.043
30
0.0
11
453.66
21
154.168
31
0.0
39
0.0
210
0.0
220
0.0
230
1.0
0
LINE
5
39
330
1C
100
AcDbEntity
67
0
8
DBDT
62
256
6
ByLayer
370
-1
48
1.0
60
0
100
AcDbLine
10
453.66
20
154.168
30
0.0
11
453.642
21
153.277
31
0.0
39
0.0
210
0.0
220
0.0
230
1.0
0
LINE
5
3A
330
1C
100
AcDbEntity
67
0
8
DBDT
62
256
6
ByLayer
370
-1
48
1.0
60
0
100
AcDbLine
10
453.642
20
153.277
30
0.0
11
453.661
21
152.371
31
0.0
39
0.0
210
0.0
220
0.0
230
1.0
0
LINE
5
3B
330
1C
100
AcDbEntity
67
0
8
DBDT
62
256
6
ByLayer
370
-1
48
1.0
60
0
100
AcDbLine
10
453.661
20
152.371
30
0.0
11
453.72
21
151.448
31
0.0
39
0.0
210
0.0
220
0.0
230
1.0
0
LINE
5
3C
330
1C
100
AcDbEntity
67
0
8
DBDT
62
256
6
ByLayer
370
-1
48
1.0
60
0
100
AcDbLine
10
453.72
20
151.448
30
0.0
11
453.817
21
150.513
31
0.0
39
0.0
210
0.0
220
0.0
230
1.0
0
LINE
5
3D
330
1C
100
AcDbEntity
67
0
8
DBDT
62
256
6
ByLayer
370
-1
48
1.0
60
0
100
AcDbLine
10
453.817
20
150.513
30
0.0
11
453.953
21
149.564
31
0.0
39
0.0
210
0.0
220
0.0
230
1.0
0
LINE
5
3E
330
1C
100
AcDbEntity
67
0
8
DBDT
62
256
6
ByLayer
370
-1
48
1.0
60
0
100
AcDbLine
10
453.953
20
149.564
30
0.0
11
454.127
21
148.603
31
0.0
39
0.0
210
0.0
220
0.0
230
1.0
0
LINE
5
3F
330
1C
100
AcDbEntity
67
0
8
DBDT
62
256
6
ByLayer
370
-1
48
1.0
60
0
100
AcDbLine
10
454.127
20
148.603
30
0.0
11
454.341
21
147.631
31
0.0
39
0.0
210
0.0
220
0.0
230
1.0
0
LINE
5
40
330
1C
100
AcDbEntity
67
0
8
DBDT
62
256
6
ByLayer
370
-1
48
1.0
60
0
100
AcDbLine
10
454.341
20
147.631
30
0.0
11
454.592
21
146.649
31
0.0
39
0.0
210
0.0
220
0.0
230
1.0
0
LINE
5
41
330
1C
100
AcDbEntity
67
0
8
DBDT
62
256
6
ByLayer
370
-1
48
1.0
60
0
100
AcDbLine
10
454.592
20
146.649
30
0.0
11
454.88
21
145.657
31
0.0
39
0.0
210
0.0
220
0.0
230
1.0
0
LINE
5
42
330
1C
100
AcDbEntity
67
0
8
DBDT
62
256
6
ByLayer
370
-1
48
1.0
60
0
100
AcDbLine
10
454.88
20
145.657
30
0.0
11
455.207
21
144.658
31
0.0
39
0.0
210
0.0
220
0.0
230
1.0
0
LINE
5
43
330
1C
100
AcDbEntity
67
0
8
DBDT
62
256
6
ByLayer
370
-1
48
1.0
60
0
100
AcDbLine
10
455.207
20
144.658
30
0.0
11
455.571
21
143.651
31
0.0
39
0.0
210
0.0
220
0.0
230
1.0
0
LINE
5
44
330
1C
100
AcDbEntity
67
0
8
DBDT
62
256
6
ByLayer
370
-1
48
1.0
60
0
100
AcDbLine
10
455.571
20
143.651
30
0.0
11
455.972
21
142.639
31
0.0
39
0.0
210
0.0
220
0.0
230
1.0
0
LINE
5
45
330
1C
100
AcDbEntity
67
0
8
DBDT
62
256
6
ByLayer
370
-1
48
1.0
60
0
100
AcDbLine
10
455.972
20
142.639
30
0.0
11
456.41
21
141.621
31
0.0
39
0.0
210
0.0
220
0.0
230
1.0
0
LINE
5
46
330
1C
100
AcDbEntity
67
0
8
DBDT
62
256
6
ByLayer
370
-1
48
1.0
60
0
100
AcDbLine
10
456.41
20
141.621
30
0.0
11
456.883
21
140.6
31
0.0
39
0.0
210
0.0
220
0.0
230
1.0
0
LINE
5
47
330
1C
100
AcDbEntity
67
0
8
DBDT
62
256
6
ByLayer
370
-1
48
1.0
60
0
100
AcDbLine
10
456.883
20
140.6
30
0.0
11
457.392
21
139.575
31
0.0
39
0.0
210
0.0
220
0.0
230
1.0
0
LINE
5
48
330
1C
100
AcDbEntity
67
0
8
DBDT
62
256
6
ByLayer
370
-1
48
1.0
60
0
100
AcDbLine
10
457.392
20
139.575
30
0.0
11
457.936
21
138.548
31
0.0
39
0.0
210
0.0
220
0.0
230
1.0
0
LINE
5
49
330
1C
100
AcDbEntity
67
0
8
DBDT
62
256
6
ByLayer
370
-1
48
1.0
60
0
100
AcDbLine
10
457.936
20
138.548
30
0.0
11
458.514
21
137.52
31
0.0
39
0.0
210
0.0
220
0.0
230
1.0
0
LINE
5
4A
330
1C
100
AcDbEntity
67
0
8
DBDT
62
256
6
ByLayer
370
-1
48
1.0
60
0
100
AcDbLine
10
458.514
20
137.52
30
0.0
11
459.128
21
136.493
31
0.0
39
0.0
210
0.0
220
0.0
230
1.0
0
LINE
5
4B
330
1C
100
AcDbEntity
67
0
8
DBDT
62
256
6
ByLayer
370
-1
48
1.0
60
0
100
AcDbLine
10
459.128
20
136.493
30
0.0
11
459.774
21
135.466
31
0.0
39
0.0
210
0.0
220
0.0
230
1.0
0
LINE
5
4C
330
1C
100
AcDbEntity
67
0
8
DBDT
62
256
6
ByLayer
370
-1
48
1.0
60
0
100
AcDbLine
10
459.774
20
135.466
30
0.0
11
460.452
21
134.442
31
0.0
39
0.0
210
0.0
220
0.0
230
1.0
0
LINE
5
4D
330
1C
100
AcDbEntity
67
0
8
DBDT
62
256
6
ByLayer
370
-1
48
1.0
60
0
100
AcDbLine
10
460.452
20
134.442
30
0.0
11
461.163
21
133.421
31
0.0
39
0.0
210
0.0
220
0.0
230
1.0
0
LINE
5
4E
330
1C
100
AcDbEntity
67
0
8
DBDT
62
256
6
ByLayer
370
-1
48
1.0
60
0
100
AcDbLine
10
461.163
20
133.421
30
0.0
11
461.904
21
132.404
31
0.0
39
0.0
210
0.0
220
0.0
230
1.0
0
LINE
5
4F
330
1C
100
AcDbEntity
67
0
8
DBDT
62
256
6
ByLayer
370
-1
48
1.0
60
0
100
AcDbLine
10
461.904
20
132.404
30
0.0
11
462.677
21
131.392
31
0.0
39
0.0
210
0.0
220
0.0
230
1.0
0
LINE
5
50
330
1C
100
AcDbEntity
67
0
8
DBDT
62
256
6
ByLayer
370
-1
48
1.0
60
0
100
AcDbLine
10
462.677
20
131.392
30
0.0
11
463.479
21
130.386
31
0.0
39
0.0
210
0.0
220
0.0
230
1.0
0
LINE
5
51
330
1C
100
AcDbEntity
67
0
8
DBDT
62
256
6
ByLayer
370
-1
48
1.0
60
0
100
AcDbLine
10
463.479
20
130.386
30
0.0
11
464.311
21
129.388
31
0.0
39
0.0
210
0.0
220
0.0
230
1.0
0
LINE
5
52
330
1C
100
AcDbEntity
67
0
8
DBDT
62
256
6
ByLayer
370
-1
48
1.0
60
0
100
AcDbLine
10
464.311
20
129.388
30
0.0
11
465.17
21
128.398
31
0.0
39
0.0
210
0.0
220
0.0
230
1.0
0
LINE
5
53
330
1C
100
AcDbEntity
67
0
8
DBDT
62
256
6
ByLayer
370
-1
48
1.0
60
0
100
AcDbLine
10
465.17
20
128.398
30
0.0
11
466.056
21
127.417
31
0.0
39
0.0
210
0.0
220
0.0
230
1.0
0
LINE
5
54
330
1C
100
AcDbEntity
67
0
8
DBDT
62
256
6
ByLayer
370
-1
48
1.0
60
0
100
AcDbLine
10
466.056
20
127.417
30
0.0
11
466.97
21
126.447
31
0.0
39
0.0
210
0.0
220
0.0
230
1.0
0
LINE
5
55
330
1C
100
AcDbEntity
67
0
8
DBDT
62
256
6
ByLayer
370
-1
48
1.0
60
0
100
AcDbLine
10
466.97
20
126.447
30
0.0
11
467.908
21
125.487
31
0.0
39
0.0
210
0.0
220
0.0
230
1.0
0
LINE
5
56
330
1C
100
AcDbEntity
67
0
8
DBDT
62
256
6
ByLayer
370
-1
48
1.0
60
0
100
AcDbLine
10
467.908
20
125.487
30
0.0
11
468.871
21
124.541
31
0.0
39
0.0
210
0.0
220
0.0
230
1.0
0
LINE
5
57
330
1C
100
AcDbEntity
67
0
8
DBDT
62
256
6
ByLayer
370
-1
48
1.0
60
0
100
AcDbLine
10
468.871
20
124.541
30
0.0
11
469.858
21
123.607
31
0.0
39
0.0
210
0.0
220
0.0
230
1.0
0
LINE
5
58
330
1C
100
AcDbEntity
67
0
8
DBDT
62
256
6
ByLayer
370
-1
48
1.0
60
0
100
AcDbLine
10
469.858
20
123.607
30
0.0
11
470.867
21
122.687
31
0.0
39
0.0
210
0.0
220
0.0
230
1.0
0
LINE
5
59
330
1C
100
AcDbEntity
67
0
8
DBDT
62
256
6
ByLayer
370
-1
48
1.0
60
0
100
AcDbLine
10
470.867
20
122.687
30
0.0
11
471.897
21
121.782
31
0.0
39
0.0
210
0.0
220
0.0
230
1.0
0
LINE
5
5A
330
1C
100
AcDbEntity
67
0
8
DBDT
62
256
6
ByLayer
370
-1
48
1.0
60
0
100
AcDbLine
10
471.897
20
121.782
30
0.0
11
472.948
21
120.892
31
0.0
39
0.0
210
0.0
220
0.0
230
1.0
0
LINE
5
5B
330
1C
100
AcDbEntity
67
0
8
DBDT
62
256
6
ByLayer
370
-1
48
1.0
60
0
100
AcDbLine
10
472.948
20
120.892
30
0.0
11
474.019
21
120.021
31
0.0
39
0.0
210
0.0
220
0.0
230
1.0
0
LINE
5
5C
330
1C
100
AcDbEntity
67
0
8
DBDT
62
256
6
ByLayer
370
-1
48
1.0
60
0
100
AcDbLine
10
474.019
20
120.021
30
0.0
11
475.108
21
119.167
31
0.0
39
0.0
210
0.0
220
0.0
230
1.0
0
LINE
5
5D
330
1C
100
AcDbEntity
67
0
8
DBDT
62
256
6
ByLayer
370
-1
48
1.0
60
0
100
AcDbLine
10
475.108
20
119.167
30
0.0
11
476.213
21
118.33
31
0.0
39
0.0
210
0.0
220
0.0
230
1.0
0
LINE
5
5E
330
1C
100
AcDbEntity
67
0
8
DBDT
62
256
6
ByLayer
370
-1
48
1.0
60
0
100
AcDbLine
10
476.213
20
118.33
30
0.0
11
477.336
21
117.514
31
0.0
39
0.0
210
0.0
220
0.0
230
1.0
0
LINE
5
5F
330
1C
100
AcDbEntity
67
0
8
DBDT
62
256
6
ByLayer
370
-1
48
1.0
60
0
100
AcDbLine
10
477.336
20
117.514
30
0.0
11
478.473
21
116.718
31
0.0
39
0.0
210
0.0
220
0.0
230
1.0
0
LINE
5
60
330
1C
100
AcDbEntity
67
0
8
DBDT
62
256
6
ByLayer
370
-1
48
1.0
60
0
100
AcDbLine
10
478.473
20
116.718
30
0.0
11
479.624
21
115.942
31
0.0
39
0.0
210
0.0
220
0.0
230
1.0
0
LINE
5
61
330
1C
100
AcDbEntity
67
0
8
DBDT
62
256
6
ByLayer
370
-1
48
1.0
60
0
100
AcDbLine
10
479.624
20
115.942
30
0.0
11
480.788
21
115.189
31
0.0
39
0.0
210
0.0
220
0.0
230
1.0
0
LINE
5
62
330
1C
100
AcDbEntity
67
0
8
DBDT
62
256
6
ByLayer
370
-1
48
1.0
60
0
100
AcDbLine
10
480.788
20
115.189
30
0.0
11
481.963
21
114.458
31
0.0
39
0.0
210
0.0
220
0.0
230
1.0
0
LINE
5
63
330
1C
100
AcDbEntity
67
0
8
DBDT
62
256
6
ByLayer
370
-1
48
1.0
60
0
100
AcDbLine
10
481.963
20
114.458
30
0.0
11
483.148
21
113.75
31
0.0
39
0.0
210
0.0
220
0.0
230
1.0
0
LINE
5
64
330
1C
100
AcDbEntity
67
0
8
DBDT
62
256
6
ByLayer
370
-1
48
1.0
60
0
100
AcDbLine
10
483.148
20
113.75
30
0.0
11
484.344
21
113.067
31
0.0
39
0.0
210
0.0
220
0.0
230
1.0
0
LINE
5
65
330
1C
100
AcDbEntity
67
0
8
DBDT
62
256
6
ByLayer
370
-1
48
1.0
60
0
100
AcDbLine
10
484.344
20
113.067
30
0.0
11
485.546
21
112.408
31
0.0
39
0.0
210
0.0
220
0.0
230
1.0
0
LINE
5
66
330
1C
100
AcDbEntity
67
0
8
DBDT
62
256
6
ByLayer
370
-1
48
1.0
60
0
100
AcDbLine
10
485.546
20
112.408
30
0.0
11
486.756
21
111.775
31
0.0
39
0.0
210
0.0
220
0.0
230
1.0
0
LINE
5
67
330
1C
100
AcDbEntity
67
0
8
DBDT
62
256
6
ByLayer
370
-1
48
1.0
60
0
100
AcDbLine
10
486.756
20
111.775
30
0.0
11
487.971
21
111.167
31
0.0
39
0.0
210
0.0
220
0.0
230
1.0
0
LINE
5
68
330
1C
100
AcDbEntity
67
0
8
DBDT
62
256
6
ByLayer
370
-1
48
1.0
60
0
100
AcDbLine
10
487.971
20
111.167
30
0.0
11
489.19
21
110.586
31
0.0
39
0.0
210
0.0
220
0.0
230
1.0
0
LINE
5
69
330
1C
100
AcDbEntity
67
0
8
DBDT
62
256
6
ByLayer
370
-1
48
1.0
60
0
100
AcDbLine
10
489.19
20
110.586
30
0.0
11
490.412
21
110.032
31
0.0
39
0.0
210
0.0
220
0.0
230
1.0
0
LINE
5
6A
330
1C
100
AcDbEntity
67
0
8
DBDT
62
256
6
ByLayer
370
-1
48
1.0
60
0
100
AcDbLine
10
490.412
20
110.032
30
0.0
11
491.637
21
109.506
31
0.0
39
0.0
210
0.0
220
0.0
230
1.0
0
LINE
5
6B
330
1C
100
AcDbEntity
67
0
8
DBDT
62
256
6
ByLayer
370
-1
48
1.0
60
0
100
AcDbLine
10
491.637
20
109.506
30
0.0
11
492.862
21
109.008
31
0.0
39
0.0
210
0.0
220
0.0
230
1.0
0
LINE
5
6C
330
1C
100
AcDbEntity
67
0
8
DBDT
62
256
6
ByLayer
370
-1
48
1.0
60
0
100
AcDbLine
10
492.862
20
109.008
30
0.0
11
494.085
21
108.54
31
0.0
39
0.0
210
0.0
220
0.0
230
1.0
0
LINE
5
6D
330
1C
100
AcDbEntity
67
0
8
DBDT
62
256
6
ByLayer
370
-1
48
1.0
60
0
100
AcDbLine
10
494.085
20
108.54
30
0.0
11
495.308
21
108.1
31
0.0
39
0.0
210
0.0
220
0.0
230
1.0
0
LINE
5
6E
330
1C
100
AcDbEntity
67
0
8
DBDT
62
256
6
ByLayer
370
-1
48
1.0
60
0
100
AcDbLine
10
495.308
20
108.1
30
0.0
11
496.528
21
107.69
31
0.0
39
0.0
210
0.0
220
0.0
230
1.0
0
LINE
5
6F
330
1C
100
AcDbEntity
67
0
8
DBDT
62
256
6
ByLayer
370
-1
48
1.0
60
0
100
AcDbLine
10
496.528
20
107.69
30
0.0
11
497.742
21
107.31
31
0.0
39
0.0
210
0.0
220
0.0
230
1.0
0
LINE
5
70
330
1C
100
AcDbEntity
67
0
8
DBDT
62
256
6
ByLayer
370
-1
48
1.0
60
0
100
AcDbLine
10
497.742
20
107.31
30
0.0
11
498.952
21
106.961
31
0.0
39
0.0
210
0.0
220
0.0
230
1.0
0
LINE
5
71
330
1C
100
AcDbEntity
67
0
8
DBDT
62
256
6
ByLayer
370
-1
48
1.0
60
0
100
AcDbLine
10
498.952
20
106.961
30
0.0
11
500.155
21
106.642
31
0.0
39
0.0
210
0.0
220
0.0
230
1.0
0
LINE
5
72
330
1C
100
AcDbEntity
67
0
8
DBDT
62
256
6
ByLayer
370
-1
48
1.0
60
0
100
AcDbLine
10
500.155
20
106.642
30
0.0
11
501.349
21
106.355
31
0.0
39
0.0
210
0.0
220
0.0
230
1.0
0
LINE
5
73
330
1C
100
AcDbEntity
67
0
8
DBDT
62
256
6
ByLayer
370
-1
48
1.0
60
0
100
AcDbLine
10
501.349
20
106.355
30
0.0
11
502.535
21
106.099
31
0.0
39
0.0
210
0.0
220
0.0
230
1.0
0
LINE
5
74
330
1C
100
AcDbEntity
67
0
8
DBDT
62
256
6
ByLayer
370
-1
48
1.0
60
0
100
AcDbLine
10
502.535
20
106.099
30
0.0
11
503.71
21
105.874
31
0.0
39
0.0
210
0.0
220
0.0
230
1.0
0
LINE
5
75
330
1C
100
AcDbEntity
67
0
8
DBDT
62
256
6
ByLayer
370
-1
48
1.0
60
0
100
AcDbLine
10
503.71
20
105.874
30
0.0
11
504.873
21
105.682
31
0.0
39
0.0
210
0.0
220
0.0
230
1.0
0
LINE
5
76
330
1C
100
AcDbEntity
67
0
8
DBDT
62
256
6
ByLayer
370
-1
48
1.0
60
0
100
AcDbLine
10
504.873
20
105.682
30
0.0
11
506.025
21
105.522
31
0.0
39
0.0
210
0.0
220
0.0
230
1.0
0
LINE
5
77
330
1C
100
AcDbEntity
67
0
8
DBDT
62
256
6
ByLayer
370
-1
48
1.0
60
0
100
AcDbLine
10
506.025
20
105.522
30
0.0
11
507.162
21
105.394
31
0.0
39
0.0
210
0.0
220
0.0
230
1.0
0
LINE
5
78
330
1C
100
AcDbEntity
67
0
8
DBDT
62
256
6
ByLayer
370
-1
48
1.0
60
0
100
AcDbLine
10
507.162
20
105.394
30
0.0
11
508.283
21
105.299
31
0.0
39
0.0
210
0.0
220
0.0
230
1.0
0
LINE
5
79
330
1C
100
AcDbEntity
67
0
8
DBDT
62
256
6
ByLayer
370
-1
48
1.0
60
0
100
AcDbLine
10
508.283
20
105.299
30
0.0
11
509.389
21
105.236
31
0.0
39
0.0
210
0.0
220
0.0
230
1.0
0
LINE
5
7A
330
1C
100
AcDbEntity
67
0
8
DBDT
62
256
6
ByLayer
370
-1
48
1.0
60
0
100
AcDbLine
10
509.389
20
105.236
30
0.0
11
510.478
21
105.205
31
0.0
39
0.0
210
0.0
220
0.0
230
1.0
0
LINE
5
7B
330
1C
100
AcDbEntity
67
0
8
DBDT
62
256
6
ByLayer
370
-1
48
1.0
60
0
100
AcDbLine
10
510.478
20
105.205
30
0.0
11
511.548
21
105.208
31
0.0
39
0.0
210
0.0
220
0.0
230
1.0
0
LINE
5
7C
330
1C
100
AcDbEntity
67
0
8
DBDT
62
256
6
ByLayer
370
-1
48
1.0
60
0
100
AcDbLine
10
511.548
20
105.208
30
0.0
11
512.599
21
105.242
31
0.0
39
0.0
210
0.0
220
0.0
230
1.0
0
LINE
5
7D
330
1C
100
AcDbEntity
67
0
8
DBDT
62
256
6
ByLayer
370
-1
48
1.0
60
0
100
AcDbLine
10
512.599
20
105.242
30
0.0
11
513.63
21
105.31
31
0.0
39
0.0
210
0.0
220
0.0
230
1.0
0
LINE
5
7E
330
1C
100
AcDbEntity
67
0
8
DBDT
62
256
6
ByLayer
370
-1
48
1.0
60
0
100
AcDbLine
10
513.63
20
105.31
30
0.0
11
514.638
21
105.41
31
0.0
39
0.0
210
0.0
220
0.0
230
1.0
0
LINE
5
7F
330
1C
100
AcDbEntity
67
0
8
DBDT
62
256
6
ByLayer
370
-1
48
1.0
60
0
100
AcDbLine
10
514.638
20
105.41
30
0.0
11
515.625
21
105.542
31
0.0
39
0.0
210
0.0
220
0.0
230
1.0
0
LINE
5
80
330
1C
100
AcDbEntity
67
0
8
DBDT
62
256
6
ByLayer
370
-1
48
1.0
60
0
100
AcDbLine
10
515.625
20
105.542
30
0.0
11
516.587
21
105.707
31
0.0
39
0.0
210
0.0
220
0.0
230
1.0
0
LINE
5
81
330
1C
100
AcDbEntity
67
0
8
DBDT
62
256
6
ByLayer
370
-1
48
1.0
60
0
100
AcDbLine
10
516.587
20
105.707
30
0.0
11
517.525
21
105.903
31
0.0
39
0.0
210
0.0
220
0.0
230
1.0
0
LINE
5
82
330
1C
100
AcDbEntity
67
0
8
DBDT
62
256
6
ByLayer
370
-1
48
1.0
60
0
100
AcDbLine
10
517.525
20
105.903
30
0.0
11
518.438
21
106.132
31
0.0
39
0.0
210
0.0
220
0.0
230
1.0
0
LINE
5
83
330
1C
100
AcDbEntity
67
0
8
DBDT
62
256
6
ByLayer
370
-1
48
1.0
60
0
100
AcDbLine
10
518.438
20
106.132
30
0.0
11
519.325
21
106.393
31
0.0
39
0.0
210
0.0
220
0.0
230
1.0
0
LINE
5
84
330
1C
100
AcDbEntity
67
0
8
DBDT
62
256
6
ByLayer
370
-1
48
1.0
60
0
100
AcDbLine
10
519.325
20
106.393
30
0.0
11
520.183
21
106.684
31
0.0
39
0.0
210
0.0
220
0.0
230
1.0
0
LINE
5
85
330
1C
100
AcDbEntity
67
0
8
DBDT
62
256
6
ByLayer
370
-1
48
1.0
60
0
100
AcDbLine
10
520.183
20
106.684
30
0.0
11
521.014
21
107.007
31
0.0
39
0.0
210
0.0
220
0.0
230
1.0
0
LINE
5
86
330
1C
100
AcDbEntity
67
0
8
DBDT
62
256
6
ByLayer
370
-1
48
1.0
60
0
100
AcDbLine
10
521.014
20
107.007
30
0.0
11
521.816
21
107.361
31
0.0
39
0.0
210
0.0
220
0.0
230
1.0
0
LINE
5
87
330
1C
100
AcDbEntity
67
0
8
DBDT
62
256
6
ByLayer
370
-1
48
1.0
60
0
100
AcDbLine
10
521.816
20
107.361
30
0.0
11
522.589
21
107.745
31
0.0
39
0.0
210
0.0
220
0.0
230
1.0
0
LINE
5
88
330
1C
100
AcDbEntity
67
0
8
DBDT
62
256
6
ByLayer
370
-1
48
1.0
60
0
100
AcDbLine
10
522.589
20
107.745
30
0.0
11
523.33
21
108.159
31
0.0
39
0.0
210
0.0
220
0.0
230
1.0
0
LINE
5
89
330
1C
100
AcDbEntity
67
0
8
DBDT
62
256
6
ByLayer
370
-1
48
1.0
60
0
100
AcDbLine
10
523.33
20
108.159
30
0.0
11
524.04
21
108.603
31
0.0
39
0.0
210
0.0
220
0.0
230
1.0
0
LINE
5
8A
330
1C
100
AcDbEntity
67
0
8
DBDT
62
256
6
ByLayer
370
-1
48
1.0
60
0
100
AcDbLine
10
524.04
20
108.603
30
0.0
11
524.718
21
109.076
31
0.0
39
0.0
210
0.0
220
0.0
230
1.0
0
LINE
5
8B
330
1C
100
AcDbEntity
67
0
8
DBDT
62
256
6
ByLayer
370
-1
48
1.0
60
0
100
AcDbLine
10
524.718
20
109.076
30
0.0
11
525.364
21
109.578
31
0.0
39
0.0
210
0.0
220
0.0
230
1.0
0
LINE
5
8C
330
1C
100
AcDbEntity
67
0
8
DBDT
62
256
6
ByLayer
370
-1
48
1.0
60
0
100
AcDbLine
10
525.364
20
109.578
30
0.0
11
525.976
21
110.107
31
0.0
39
0.0
210
0.0
220
0.0
230
1.0
0
LINE
5
8D
330
1C
100
AcDbEntity
67
0
8
DBDT
62
256
6
ByLayer
370
-1
48
1.0
60
0
100
AcDbLine
10
525.976
20
110.107
30
0.0
11
526.555
21
110.665
31
0.0
39
0.0
210
0.0
220
0.0
230
1.0
0
LINE
5
8E
330
1C
100
AcDbEntity
67
0
8
DBDT
62
256
6
ByLayer
370
-1
48
1.0
60
0
100
AcDbLine
10
526.555
20
110.665
30
0.0
11
527.098
21
111.249
31
0.0
39
0.0
210
0.0
220
0.0
230
1.0
0
LINE
5
8F
330
1C
100
AcDbEntity
67
0
8
DBDT
62
256
6
ByLayer
370
-1
48
1.0
60
0
100
AcDbLine
10
527.098
20
111.249
30
0.0
11
527.607
21
111.861
31
0.0
39
0.0
210
0.0
220
0.0
230
1.0
0
LINE
5
90
330
1C
100
AcDbEntity
67
0
8
DBDT
62
256
6
ByLayer
370
-1
48
1.0
60
0
100
AcDbLine
10
527.607
20
111.861
30
0.0
11
528.08
21
112.498
31
0.0
39
0.0
210
0.0
220
0.0
230
1.0
0
LINE
5
91
330
1C
100
AcDbEntity
67
0
8
DBDT
62
256
6
ByLayer
370
-1
48
1.0
60
0
100
AcDbLine
10
528.08
20
112.498
30
0.0
11
528.517
21
113.16
31
0.0
39
0.0
210
0.0
220
0.0
230
1.0
0
LINE
5
92
330
1C
100
AcDbEntity
67
0
8
DBDT
62
256
6
ByLayer
370
-1
48
1.0
60
0
100
AcDbLine
10
528.517
20
113.16
30
0.0
11
528.917
21
113.848
31
0.0
39
0.0
210
0.0
220
0.0
230
1.0
0
LINE
5
93
330
1C
100
AcDbEntity
67
0
8
DBDT
62
256
6
ByLayer
370
-1
48
1.0
60
0
100
AcDbLine
10
528.917
20
113.848
30
0.0
11
529.28
21
114.558
31
0.0
39
0.0
210
0.0
220
0.0
230
1.0
0
LINE
5
94
330
1C
100
AcDbEntity
67
0
8
DBDT
62
256
6
ByLayer
370
-1
48
1.0
60
0
100
AcDbLine
10
529.28
20
114.558
30
0.0
11
529.607
21
115.293
31
0.0
39
0.0
210
0.0
220
0.0
230
1.0
0
LINE
5
95
330
1C
100
AcDbEntity
67
0
8
DBDT
62
256
6
ByLayer
370
-1
48
1.0
60
0
100
AcDbLine
10
529.607
20
115.293
30
0.0
11
529.895
21
116.049
31
0.0
39
0.0
210
0.0
220
0.0
230
1.0
0
LINE
5
96
330
1C
100
AcDbEntity
67
0
8
DBDT
62
256
6
ByLayer
370
-1
48
1.0
60
0
100
AcDbLine
10
529.895
20
116.049
30
0.0
11
530.145
21
116.827
31
0.0
39
0.0
210
0.0
220
0.0
230
1.0
0
LINE
5
97
330
1C
100
AcDbEntity
67
0
8
DBDT
62
256
6
ByLayer
370
-1
48
1.0
60
0
100
AcDbLine
10
530.145
20
116.827
30
0.0
11
530.358
21
117.627
31
0.0
39
0.0
210
0.0
220
0.0
230
1.0
0
LINE
5
98
330
1C
100
AcDbEntity
67
0
8
DBDT
62
256
6
ByLayer
370
-1
48
1.0
60
0
100
AcDbLine
10
530.358
20
117.627
30
0.0
11
530.533
21
118.446
31
0.0
39
0.0
210
0.0
220
0.0
230
1.0
0
LINE
5
99
330
1C
100
AcDbEntity
67
0
8
DBDT
62
256
6
ByLayer
370
-1
48
1.0
60
0
100
AcDbLine
10
530.533
20
118.446
30
0.0
11
530.668
21
119.284
31
0.0
39
0.0
210
0.0
220
0.0
230
1.0
0
LINE
5
9A
330
1C
100
AcDbEntity
67
0
8
DBDT
62
256
6
ByLayer
370
-1
48
1.0
60
0
100
AcDbLine
10
530.668
20
119.284
30
0.0
11
530.765
21
120.141
31
0.0
39
0.0
210
0.0
220
0.0
230
1.0
0
LINE
5
9B
330
1C
100
AcDbEntity
67
0
8
DBDT
62
256
6
ByLayer
370
-1
48
1.0
60
0
100
AcDbLine
10
530.765
20
120.141
30
0.0
11
530.824
21
121.016
31
0.0
39
0.0
210
0.0
220
0.0
230
1.0
0
LINE
5
9C
330
1C
100
AcDbEntity
67
0
8
DBDT
62
256
6
ByLayer
370
-1
48
1.0
60
0
100
AcDbLine
10
530.824
20
121.016
30
0.0
11
530.842
21
121.907
31
0.0
39
0.0
210
0.0
220
0.0
230
1.0
0
LINE
5
9D
330
1C
100
AcDbEntity
67
0
8
DBDT
62
256
6
ByLayer
370
-1
48
1.0
60
0
100
AcDbLine
10
530.842
20
121.907
30
0.0
11
530.822
21
122.813
31
0.0
39
0.0
210
0.0
220
0.0
230
1.0
0
LINE
5
9E
330
1C
100
AcDbEntity
67
0
8
DBDT
62
256
6
ByLayer
370
-1
48
1.0
60
0
100
AcDbLine
10
530.822
20
122.813
30
0.0
11
530.764
21
123.736
31
0.0
39
0.0
210
0.0
220
0.0
230
1.0
0
LINE
5
9F
330
1C
100
AcDbEntity
67
0
8
DBDT
62
256
6
ByLayer
370
-1
48
1.0
60
0
100
AcDbLine
10
530.764
20
123.736
30
0.0
11
530.667
21
124.672
31
0.0
39
0.0
210
0.0
220
0.0
230
1.0
0
LINE
5
A0
330
1C
100
AcDbEntity
67
0
8
DBDT
62
256
6
ByLayer
370
-1
48
1.0
60
0
100
AcDbLine
10
530.667
20
124.672
30
0.0
11
530.531
21
125.62
31
0.0
39
0.0
210
0.0
220
0.0
230
1.0
0
LINE
5
A1
330
1C
100
AcDbEntity
67
0
8
DBDT
62
256
6
ByLayer
370
-1
48
1.0
60
0
100
AcDbLine
10
530.531
20
125.62
30
0.0
11
530.356
21
126.581
31
0.0
39
0.0
210
0.0
220
0.0
230
1.0
0
LINE
5
A2
330
1C
100
AcDbEntity
67
0
8
DBDT
62
256
6
ByLayer
370
-1
48
1.0
60
0
100
AcDbLine
10
530.356
20
126.581
30
0.0
11
530.143
21
127.553
31
0.0
39
0.0
210
0.0
220
0.0
230
1.0
0
LINE
5
A3
330
1C
100
AcDbEntity
67
0
8
DBDT
62
256
6
ByLayer
370
-1
48
1.0
60
0
100
AcDbLine
10
530.143
20
127.553
30
0.0
11
529.892
21
128.535
31
0.0
39
0.0
210
0.0
220
0.0
230
1.0
0
LINE
5
A4
330
1C
100
AcDbEntity
67
0
8
DBDT
62
256
6
ByLayer
370
-1
48
1.0
60
0
100
AcDbLine
10
529.892
20
128.535
30
0.0
11
529.604
21
129.527
31
0.0
39
0.0
210
0.0
220
0.0
230
1.0
0
LINE
5
A5
330
1C
100
AcDbEntity
67
0
8
DBDT
62
256
6
ByLayer
370
-1
48
1.0
60
0
100
AcDbLine
10
529.604
20
129.527
30
0.0
11
529.277
21
130.526
31
0.0
39
0.0
210
0.0
220
0.0
230
1.0
0
LINE
5
A6
330
1C
100
AcDbEntity
67
0
8
DBDT
62
256
6
ByLayer
370
-1
48
1.0
60
0
100
AcDbLine
10
529.277
20
130.526
30
0.0
11
528.912
21
131.533
31
0.0
39
0.0
210
0.0
220
0.0
230
1.0
0
LINE
5
A7
330
1C
100
AcDbEntity
67
0
8
DBDT
62
256
6
ByLayer
370
-1
48
1.0
60
0
100
AcDbLine
10
528.912
20
131.533
30
0.0
11
528.511
21
132.545
31
0.0
39
0.0
210
0.0
220
0.0
230
1.0
0
LINE
5
A8
330
1C
100
AcDbEntity
67
0
8
DBDT
62
256
6
ByLayer
370
-1
48
1.0
60
0
100
AcDbLine
10
528.511
20
132.545
30
0.0
11
528.074
21
133.563
31
0.0
39
0.0
210
0.0
220
0.0
230
1.0
0
LINE
5
A9
330
1C
100
AcDbEntity
67
0
8
DBDT
62
256
6
ByLayer
370
-1
48
1.0
60
0
100
AcDbLine
10
528.074
20
133.563
30
0.0
11
527.601
21
134.584
31
0.0
39
0.0
210
0.0
220
0.0
230
1.0
0
LINE
5
AA
330
1C
100
AcDbEntity
67
0
8
DBDT
62
256
6
ByLayer
370
-1
48
1.0
60
0
100
AcDbLine
10
527.601
20
134.584
30
0.0
11
527.092
21
135.609
31
0.0
39
0.0
210
0.0
220
0.0
230
1.0
0
LINE
5
AB
330
1C
100
AcDbEntity
67
0
8
DBDT
62
256
6
ByLayer
370
-1
48
1.0
60
0
100
AcDbLine
10
527.092
20
135.609
30
0.0
11
526.548
21
136.636
31
0.0
39
0.0
210
0.0
220
0.0
230
1.0
0
LINE
5
AC
330
1C
100
AcDbEntity
67
0
8
DBDT
62
256
6
ByLayer
370
-1
48
1.0
60
0
100
AcDbLine
10
526.548
20
136.636
30
0.0
11
525.969
21
137.664
31
0.0
39
0.0
210
0.0
220
0.0
230
1.0
0
LINE
5
AD
330
1C
100
AcDbEntity
67
0
8
DBDT
62
256
6
ByLayer
370
-1
48
1.0
60
0
100
AcDbLine
10
525.969
20
137.664
30
0.0
11
525.356
21
138.691
31
0.0
39
0.0
210
0.0
220
0.0
230
1.0
0
LINE
5
AE
330
1C
100
AcDbEntity
67
0
8
DBDT
62
256
6
ByLayer
370
-1
48
1.0
60
0
100
AcDbLine
10
525.356
20
138.691
30
0.0
11
524.71
21
139.718
31
0.0
39
0.0
210
0.0
220
0.0
230
1.0
0
LINE
5
AF
330
1C
100
AcDbEntity
67
0
8
DBDT
62
256
6
ByLayer
370
-1
48
1.0
60
0
100
AcDbLine
10
524.71
20
139.718
30
0.0
11
524.032
21
140.742
31
0.0
39
0.0
210
0.0
220
0.0
230
1.0
0
LINE
5
B0
330
1C
100
AcDbEntity
67
0
8
DBDT
62
256
6
ByLayer
370
-1
48
1.0
60
0
100
AcDbLine
10
524.032
20
140.742
30
0.0
11
523.321
21
141.763
31
0.0
39
0.0
210
0.0
220
0.0
230
1.0
0
LINE
5
B1
330
1C
100
AcDbEntity
67
0
8
DBDT
62
256
6
ByLayer
370
-1
48
1.0
60
0
100
AcDbLine
10
523.321
20
141.763
30
0.0
11
522.579
21
142.781
31
0.0
39
0.0
210
0.0
220
0.0
230
1.0
0
LINE
5
B2
330
1C
100
AcDbEntity
67
0
8
DBDT
62
256
6
ByLayer
370
-1
48
1.0
60
0
100
AcDbLine
10
522.579
20
142.781
30
0.0
11
521.807
21
143.792
31
0.0
39
0.0
210
0.0
220
0.0
230
1.0
0
LINE
5
B3
330
1C
100
AcDbEntity
67
0
8
DBDT
62
256
6
ByLayer
370
-1
48
1.0
60
0
100
AcDbLine
10
521.807
20
143.792
30
0.0
11
521.004
21
144.798
31
0.0
39
0.0
210
0.0
220
0.0
230
1.0
0
LINE
5
B4
330
1C
100
AcDbEntity
67
0
8
DBDT
62
256
6
ByLayer
370
-1
48
1.0
60
0
100
AcDbLine
10
521.004
20
144.798
30
0.0
11
520.173
21
145.796
31
0.0
39
0.0
210
0.0
220
0.0
230
1.0
0
LINE
5
B5
330
1C
100
AcDbEntity
67
0
8
DBDT
62
256
6
ByLayer
370
-1
48
1.0
60
0
100
AcDbLine
10
520.173
20
145.796
30
0.0
11
519.314
21
146.786
31
0.0
39
0.0
210
0.0
220
0.0
230
1.0
0
LINE
5
B6
330
1C
100
AcDbEntity
67
0
8
DBDT
62
256
6
ByLayer
370
-1
48
1.0
60
0
100
AcDbLine
10
519.314
20
146.786
30
0.0
11
518.427
21
147.767
31
0.0
39
0.0
210
0.0
220
0.0
230
1.0
0
LINE
5
B7
330
1C
100
AcDbEntity
67
0
8
DBDT
62
256
6
ByLayer
370
-1
48
1.0
60
0
100
AcDbLine
10
518.427
20
147.767
30
0.0
11
517.514
21
148.737
31
0.0
39
0.0
210
0.0
220
0.0
230
1.0
0
LINE
5
B8
330
1C
100
AcDbEntity
67
0
8
DBDT
62
256
6
ByLayer
370
-1
48
1.0
60
0
100
AcDbLine
10
517.514
20
148.737
30
0.0
11
516.576
21
149.697
31
0.0
39
0.0
210
0.0
220
0.0
230
1.0
0
LINE
5
B9
330
1C
100
AcDbEntity
67
0
8
DBDT
62
256
6
ByLayer
370
-1
48
1.0
60
0
100
AcDbLine
10
516.576
20
149.697
30
0.0
11
515.612
21
150.644
31
0.0
39
0.0
210
0.0
220
0.0
230
1.0
0
LINE
5
BA
330
1C
100
AcDbEntity
67
0
8
DBDT
62
256
6
ByLayer
370
-1
48
1.0
60
0
100
AcDbLine
10
515.612
20
150.644
30
0.0
11
514.626
21
151.577
31
0.0
39
0.0
210
0.0
220
0.0
230
1.0
0
LINE
5
BB
330
1C
100
AcDbEntity
67
0
8
DBDT
62
256
6
ByLayer
370
-1
48
1.0
60
0
100
AcDbLine
10
514.626
20
151.577
30
0.0
11
513.617
21
152.497
31
0.0
39
0.0
210
0.0
220
0.0
230
1.0
0
LINE
5
BC
330
1C
100
AcDbEntity
67
0
8
DBDT
62
256
6
ByLayer
370
-1
48
1.0
60
0
100
AcDbLine
10
513.617
20
152.497
30
0.0
11
512.586
21
153.402
31
0.0
39
0.0
210
0.0
220
0.0
230
1.0
0
LINE
5
BD
330
1C
100
AcDbEntity
67
0
8
DBDT
62
256
6
ByLayer
370
-1
48
1.0
60
0
100
AcDbLine
10
512.586
20
153.402
30
0.0
11
511.536
21
154.292
31
0.0
39
0.0
210
0.0
220
0.0
230
1.0
0
LINE
5
BE
330
1C
100
AcDbEntity
67
0
8
DBDT
62
256
6
ByLayer
370
-1
48
1.0
60
0
100
AcDbLine
10
511.536
20
154.292
30
0.0
11
510.465
21
155.163
31
0.0
39
0.0
210
0.0
220
0.0
230
1.0
0
LINE
5
BF
330
1C
100
AcDbEntity
67
0
8
DBDT
62
256
6
ByLayer
370
-1
48
1.0
60
0
100
AcDbLine
10
510.465
20
155.163
30
0.0
11
509.376
21
156.018
31
0.0
39
0.0
210
0.0
220
0.0
230
1.0
0
LINE
5
C0
330
1C
100
AcDbEntity
67
0
8
DBDT
62
256
6
ByLayer
370
-1
48
1.0
60
0
100
AcDbLine
10
509.376
20
156.018
30
0.0
11
508.271
21
156.854
31
0.0
39
0.0
210
0.0
220
0.0
230
1.0
0
LINE
5
C1
330
1C
100
AcDbEntity
67
0
8
DBDT
62
256
6
ByLayer
370
-1
48
1.0
60
0
100
AcDbLine
10
508.271
20
156.854
30
0.0
11
507.148
21
157.67
31
0.0
39
0.0
210
0.0
220
0.0
230
1.0
0
LINE
5
C2
330
1C
100
AcDbEntity
67
0
8
DBDT
62
256
6
ByLayer
370
-1
48
1.0
60
0
100
AcDbLine
10
507.148
20
157.67
30
0.0
11
506.011
21
158.466
31
0.0
39
0.0
210
0.0
220
0.0
230
1.0
0
LINE
5
C3
330
1C
100
AcDbEntity
67
0
8
DBDT
62
256
6
ByLayer
370
-1
48
1.0
60
0
100
AcDbLine
10
506.011
20
158.466
30
0.0
11
504.86
21
159.242
31
0.0
39
0.0
210
0.0
220
0.0
230
1.0
0
LINE
5
C4
330
1C
100
AcDbEntity
67
0
8
DBDT
62
256
6
ByLayer
370
-1
48
1.0
60
0
100
AcDbLine
10
504.86
20
159.242
30
0.0
11
503.696
21
159.995
31
0.0
39
0.0
210
0.0
220
0.0
230
1.0
0
LINE
5
C5
330
1C
100
AcDbEntity
67
0
8
DBDT
62
256
6
ByLayer
370
-1
48
1.0
60
0
100
AcDbLine
10
503.696
20
159.995
30
0.0
11
502.521
21
160.726
31
0.0
39
0.0
210
0.0
220
0.0
230
1.0
0
LINE
5
C6
330
1C
100
AcDbEntity
67
0
8
DBDT
62
256
6
ByLayer
370
-1
48
1.0
60
0
100
AcDbLine
10
502.521
20
160.726
30
0.0
11
501.336
21
161.434
31
0.0
39
0.0
210
0.0
220
0.0
230
1.0
0
LINE
5
C7
330
1C
100
AcDbEntity
67
0
8
DBDT
62
256
6
ByLayer
370
-1
48
1.0
60
0
100
AcDbLine
10
501.336
20
161.434
30
0.0
11
500.14
21
162.117
31
0.0
39
0.0
210
0.0
220
0.0
230
1.0
0
LINE
5
C8
330
1C
100
AcDbEntity
67
0
8
DBDT
62
256
6
ByLayer
370
-1
48
1.0
60
0
100
AcDbLine
10
500.14
20
162.117
30
0.0
11
498.938
21
162.776
31
0.0
39
0.0
210
0.0
220
0.0
230
1.0
0
LINE
5
C9
330
1C
100
AcDbEntity
67
0
8
DBDT
62
256
6
ByLayer
370
-1
48
1.0
60
0
100
AcDbLine
10
498.938
20
162.776
30
0.0
11
497.728
21
163.409
31
0.0
39
0.0
210
0.0
220
0.0
230
1.0
0
LINE
5
CA
330
1C
100
AcDbEntity
67
0
8
DBDT
62
256
6
ByLayer
370
-1
48
1.0
60
0
100
AcDbLine
10
497.728
20
163.409
30
0.0
11
496.513
21
164.017
31
0.0
39
0.0
210
0.0
220
0.0
230
1.0
0
LINE
5
CB
330
1C
100
AcDbEntity
67
0
8
DBDT
62
256
6
ByLayer
370
-1
48
1.0
60
0
100
AcDbLine
10
496.513
20
164.017
30
0.0
11
495.294
21
164.598
31
0.0
39
0.0
210
0.0
220
0.0
230
1.0
0
LINE
5
CC
330
1C
100
AcDbEntity
67
0
8
DBDT
62
256
6
ByLayer
370
-1
48
1.0
60
0
100
AcDbLine
10
495.294
20
164.598
30
0.0
11
494.071
21
165.152
31
0.0
39
0.0
210
0.0
220
0.0
230
1.0
0
LINE
5
CD
330
1C
100
AcDbEntity
67
0
8
DBDT
62
256
6
ByLayer
370
-1
48
1.0
60
0
100
AcDbLine
10
494.071
20
165.152
30
0.0
11
492.847
21
165.678
31
0.0
39
0.0
210
0.0
220
0.0
230
1.0
0
LINE
5
CE
330
1C
100
AcDbEntity
67
0
8
DBDT
62
256
6
ByLayer
370
-1
48
1.0
60
0
100
AcDbLine
10
492.847
20
165.678
30
0.0
11
491.622
21
166.176
31
0.0
39
0.0
210
0.0
220
0.0
230
1.0
0
LINE
5
CF
330
1C
100
AcDbEntity
67
0
8
DBDT
62
256
6
ByLayer
370
-1
48
1.0
60
0
100
AcDbLine
10
491.622
20
166.176
30
0.0
11
490.398
21
166.645
31
0.0
39
0.0
210
0.0
220
0.0
230
1.0
0
LINE
5
D0
330
1C
100
AcDbEntity
67
0
8
DBDT
62
256
6
ByLayer
370
-1
48
1.0
60
0
100
AcDbLine
10
490.398
20
166.645
30
0.0
11
489.175
21
167.085
31
0.0
39
0.0
210
0.0
220
0.0
230
1.0
0
LINE
5
D1
330
1C
100
AcDbEntity
67
0
8
DBDT
62
256
6
ByLayer
370
-1
48
1.0
60
0
100
AcDbLine
10
489.175
20
167.085
30
0.0
11
487.956
21
167.494
31
0.0
39
0.0
210
0.0
220
0.0
230
1.0
0
LINE
5
D2
330
1C
100
AcDbEntity
67
0
8
DBDT
62
256
6
ByLayer
370
-1
48
1.0
60
0
100
AcDbLine
10
487.956
20
167.494
30
0.0
11
486.741
21
167.875
31
0.0
39
0.0
210
0.0
220
0.0
230
1.0
0
LINE
5
D3
330
1C
100
AcDbEntity
67
0
8
DBDT
62
256
6
ByLayer
370
-1
48
1.0
60
0
100
AcDbLine
10
486.741
20
167.875
30
0.0
11
485.532
21
168.223
31
0.0
39
0.0
210
0.0
220
0.0
230
1.0
0
LINE
5
D4
330
1C
100
AcDbEntity
67
0
8
DBDT
62
256
6
ByLayer
370
-1
48
1.0
60
0
100
AcDbLine
10
485.532
20
168.223
30
0.0
11
484.329
21
168.542
31
0.0
39
0.0
210
0.0
220
0.0
230
1.0
0
LINE
5
D5
330
1C
100
AcDbEntity
67
0
8
DBDT
62
256
6
ByLayer
370
-1
48
1.0
60
0
100
AcDbLine
10
484.329
20
168.542
30
0.0
11
483.135
21
168.829
31
0.0
39
0.0
210
0.0
220
0.0
230
1.0
0
LINE
5
D6
330
1C
100
AcDbEntity
67
0
8
DBDT
62
256
6
ByLayer
370
-1
48
1.0
60
0
100
AcDbLine
10
483.135
20
168.829
30
0.0
11
481.949
21
169.085
31
0.0
39
0.0
210
0.0
220
0.0
230
1.0
0
LINE
5
D7
330
1C
100
AcDbEntity
67
0
8
DBDT
62
256
6
ByLayer
370
-1
48
1.0
60
0
100
AcDbLine
10
481.949
20
169.085
30
0.0
11
480.774
21
169.31
31
0.0
39
0.0
210
0.0
220
0.0
230
1.0
0
LINE
5
D8
330
1C
100
AcDbEntity
67
0
8
DBDT
62
256
6
ByLayer
370
-1
48
1.0
60
0
100
AcDbLine
10
480.774
20
169.31
30
0.0
11
479.61
21
169.502
31
0.0
39
0.0
210
0.0
220
0.0
230
1.0
0
LINE
5
D9
330
1C
100
AcDbEntity
67
0
8
DBDT
62
256
6
ByLayer
370
-1
48
1.0
60
0
100
AcDbLine
10
479.61
20
169.502
30
0.0
11
478.459
21
169.662
31
0.0
39
0.0
210
0.0
220
0.0
230
1.0
0
LINE
5
DA
330
1C
100
AcDbEntity
67
0
8
DBDT
62
256
6
ByLayer
370
-1
48
1.0
60
0
100
AcDbLine
10
478.459
20
169.662
30
0.0
11
477.322
21
169.79
31
0.0
39
0.0
210
0.0
220
0.0
230
1.0
0
LINE
5
DB
330
1C
100
AcDbEntity
67
0
8
DBDT
62
256
6
ByLayer
370
-1
48
1.0
60
0
100
AcDbLine
10
477.322
20
169.79
30
0.0
11
476.2
21
169.885
31
0.0
39
0.0
210
0.0
220
0.0
230
1.0
0
LINE
5
DC
330
1C
100
AcDbEntity
67
0
8
DBDT
62
256
6
ByLayer
370
-1
48
1.0
60
0
100
AcDbLine
10
476.2
20
169.885
30
0.0
11
475.094
21
169.948
31
0.0
39
0.0
210
0.0
220
0.0
230
1.0
0
LINE
5
DD
330
1C
100
AcDbEntity
67
0
8
DBDT
62
256
6
ByLayer
370
-1
48
1.0
60
0
100
AcDbLine
10
475.094
20
169.948
30
0.0
11
474.006
21
169.979
31
0.0
39
0.0
210
0.0
220
0.0
230
1.0
0
LINE
5
DE
330
1C
100
AcDbEntity
67
0
8
DBDT
62
256
6
ByLayer
370
-1
48
1.0
60
0
100
AcDbLine
10
474.006
20
169.979
30
0.0
11
472.935
21
169.977
31
0.0
39
0.0
210
0.0
220
0.0
230
1.0
0
LINE
5
DF
330
1C
100
AcDbEntity
67
0
8
DBDT
62
256
6
ByLayer
370
-1
48
1.0
60
0
100
AcDbLine
10
472.935
20
169.977
30
0.0
11
471.884
21
169.942
31
0.0
39
0.0
210
0.0
220
0.0
230
1.0
0
LINE
5
E0
330
1C
100
AcDbEntity
67
0
8
DBDT
62
256
6
ByLayer
370
-1
48
1.0
60
0
100
AcDbLine
10
471.884
20
169.942
30
0.0
11
470.854
21
169.874
31
0.0
39
0.0
210
0.0
220
0.0
230
1.0
0
LINE
5
E1
330
1C
100
AcDbEntity
67
0
8
DBDT
62
256
6
ByLayer
370
-1
48
1.0
60
0
100
AcDbLine
10
470.854
20
169.874
30
0.0
11
469.845
21
169.774
31
0.0
39
0.0
210
0.0
220
0.0
230
1.0
0
LINE
5
E2
330
1C
100
AcDbEntity
67
0
8
DBDT
62
256
6
ByLayer
370
-1
48
1.0
60
0
100
AcDbLine
10
469.845
20
169.774
30
0.0
11
468.859
21
169.642
31
0.0
39
0.0
210
0.0
220
0.0
230
1.0
0
LINE
5
E3
330
1C
100
AcDbEntity
67
0
8
DBDT
62
256
6
ByLayer
370
-1
48
1.0
60
0
100
AcDbLine
10
468.859
20
169.642
30
0.0
11
467.897
21
169.477
31
0.0
39
0.0
210
0.0
220
0.0
230
1.0
0
LINE
5
E4
330
1C
100
AcDbEntity
67
0
8
DBDT
62
256
6
ByLayer
370
-1
48
1.0
60
0
100
AcDbLine
10
467.897
20
169.477
30
0.0
11
466.958
21
169.281
31
0.0
39
0.0
210
0.0
220
0.0
230
1.0
0
LINE
5
E5
330
1C
100
AcDbEntity
67
0
8
DBDT
62
256
6
ByLayer
370
-1
48
1.0
60
0
100
AcDbLine
10
466.958
20
169.281
30
0.0
11
466.046
21
169.052
31
0.0
39
0.0
210
0.0
220
0.0
230
1.0
0
LINE
5
E6
330
1C
100
AcDbEntity
67
0
8
DBDT
62
256
6
ByLayer
370
-1
48
1.0
60
0
100
AcDbLine
10
466.046
20
169.052
30
0.0
11
465.159
21
168.791
31
0.0
39
0.0
210
0.0
220
0.0
230
1.0
0
LINE
5
E7
330
1C
100
AcDbEntity
67
0
8
DBDT
62
256
6
ByLayer
370
-1
48
1.0
60
0
100
AcDbLine
10
465.159
20
168.791
30
0.0
11
464.301
21
168.5
31
0.0
39
0.0
210
0.0
220
0.0
230
1.0
0
LINE
5
E8
330
1C
100
AcDbEntity
67
0
8
DBDT
62
256
6
ByLayer
370
-1
48
1.0
60
0
100
AcDbLine
10
464.301
20
168.5
30
0.0
11
463.47
21
168.178
31
0.0
39
0.0
210
0.0
220
0.0
230
1.0
0
LINE
5
E9
330
1C
100
AcDbEntity
67
0
8
DBDT
62
256
6
ByLayer
370
-1
48
1.0
60
0
100
AcDbLine
10
463.47
20
168.178
30
0.0
11
462.667
21
167.824
31
0.0
39
0.0
210
0.0
220
0.0
230
1.0
0
LINE
5
EA
330
1C
100
AcDbEntity
67
0
8
DBDT
62
256
6
ByLayer
370
-1
48
1.0
60
0
100
AcDbLine
10
462.667
20
167.824
30
0.0
11
461.895
21
167.439
31
0.0
39
0.0
210
0.0
220
0.0
230
1.0
0
LINE
5
EB
330
1C
100
AcDbEntity
67
0
8
DBDT
62
256
6
ByLayer
370
-1
48
1.0
60
0
100
AcDbLine
10
461.895
20
167.439
30
0.0
11
461.154
21
167.025
31
0.0
39
0.0
210
0.0
220
0.0
230
1.0
0
LINE
5
EC
330
1C
100
AcDbEntity
67
0
8
DBDT
62
256
6
ByLayer
370
-1
48
1.0
60
0
100
AcDbLine
10
461.154
20
167.025
30
0.0
11
460.444
21
166.581
31
0.0
39
0.0
210
0.0
220
0.0
230
1.0
0
LINE
5
ED
330
1C
100
AcDbEntity
67
0
8
DBDT
62
256
6
ByLayer
370
-1
48
1.0
60
0
100
AcDbLine
10
460.444
20
166.581
30
0.0
11
459.766
21
166.108
31
0.0
39
0.0
210
0.0
220
0.0
230
1.0
0
LINE
5
EE
330
1C
100
AcDbEntity
67
0
8
DBDT
62
256
6
ByLayer
370
-1
48
1.0
60
0
100
AcDbLine
10
459.766
20
166.108
30
0.0
11
459.12
21
165.606
31
0.0
39
0.0
210
0.0
220
0.0
230
1.0
0
LINE
5
EF
330
1C
100
AcDbEntity
67
0
8
DBDT
62
256
6
ByLayer
370
-1
48
1.0
60
0
100
AcDbLine
10
459.12
20
165.606
30
0.0
11
458.508
21
165.077
31
0.0
39
0.0
210
0.0
220
0.0
230
1.0
0
LINE
5
F0
330
1C
100
AcDbEntity
67
0
8
DBDT
62
256
6
ByLayer
370
-1
48
1.0
60
0
100
AcDbLine
10
458.508
20
165.077
30
0.0
11
457.929
21
164.519
31
0.0
39
0.0
210
0.0
220
0.0
230
1.0
0
LINE
5
F1
330
1C
100
AcDbEntity
67
0
8
DBDT
62
256
6
ByLayer
370
-1
48
1.0
60
0
100
AcDbLine
10
457.929
20
164.519
30
0.0
11
457.386
21
163.935
31
0.0
39
0.0
210
0.0
220
0.0
230
1.0
0
LINE
5
F2
330
1C
100
AcDbEntity
67
0
8
DBDT
62
256
6
ByLayer
370
-1
48
1.0
60
0
100
AcDbLine
10
457.386
20
163.935
30
0.0
11
456.877
21
163.323
31
0.0
39
0.0
210
0.0
220
0.0
230
1.0
0
LINE
5
F3
330
1C
100
AcDbEntity
67
0
8
DBDT
62
256
6
ByLayer
370
-1
48
1.0
60
0
100
AcDbLine
10
456.877
20
163.323
30
0.0
11
456.404
21
162.686
31
0.0
39
0.0
210
0.0
220
0.0
230
1.0
0
LINE
5
F4
330
1C
100
AcDbEntity
67
0
8
DBDT
62
256
6
ByLayer
370
-1
48
1.0
60
0
100
AcDbLine
10
456.404
20
162.686
30
0.0
11
456.404
21
162.686
31
0.0
39
0.0
210
0.0
220
0.0
230
1.0
0
LINE
5
F5
330
1C
100
AcDbEntity
67
0
8
DBDT
62
256
6
ByLayer
370
-1
48
1.0
60
0
100
AcDbLine
10
567.011
20
237.835
30
0.0
11
560.867
21
242.137
31
0.0
39
0.0
210
0.0
220
0.0
230
1.0
0
LINE
5
F6
330
1C
100
AcDbEntity
67
0
8
DBDT
62
256
6
ByLayer
370
-1
48
1.0
60
0
100
AcDbLine
10
466.622
20
2.934
30
0.0
11
579.903
21
164.717
31
0.0
39
0.0
210
0.0
220
0.0
230
1.0
0
LINE
5
F7
330
1C
100
AcDbEntity
67
0
8
DBDT
62
256
6
ByLayer
370
-1
48
1.0
60
0
100
AcDbLine
10
374.468
20
67.462
30
0.0
11
466.622
21
2.934
31
0.0
39
0.0
210
0.0
220
0.0
230
1.0
0
LINE
5
F8
330
1C
100
AcDbEntity
67
0
8
DBDT
62
256
6
ByLayer
370
-1
48
1.0
60
0
100
AcDbLine
10
487.749
20
229.244
30
0.0
11
374.468
21
67.462
31
0.0
39
0.0
210
0.0
220
0.0
230
1.0
0
CIRCLE
5
F9
330
1C
100
AcDbEntity
67
0
8
DBDT
62
256
6
ByLayer
370
-1
48
1.0
60
0
100
AcDbCircle
10
438.469
20
60.797
30
0.0
40
15.625
39
0.0
210
0.0
220
0.0
230
1.0
0
ARC
5
FA
330
1C
100
AcDbEntity
67
0
8
DBDT
62
256
6
ByLayer
370
-1
48
1.0
60
0
100
AcDbCircle
39
0.0
10
530.754
20
199.131
30
0.0
40
52.5
210
0.0
220
0.0
230
1.0
100
AcDbArc
50
55.0
51
145.0
0
ARC
5
FB
330
1C
100
AcDbEntity
67
0
8
DBDT
62
256
6
ByLayer
370
-1
48
1.0
60
0
100
AcDbCircle
39
0.0
10
536.898
20
194.83
30
0.0
40
52.5
210
0.0
220
0.0
230
1.0
100
AcDbArc
50
325.0
51
55.0
0
LINE
5
FC
330
1C
100
AcDbEntity
67
0
8
DBDT
62
256
6
ByLayer
370
-1
48
1.0
60
0
100
AcDbLine
10
20.8
20
183.4
30
0.0
11
42.8
21
161.4
31
0.0
39
0.0
210
0.0
220
0.0
230
1.0
0
VIEWPORT
5
FE
330
1C
100
AcDbEntity
67
0
8
0
62
256
6
ByLayer
370
-1
48
1.0
60
0
100
AcDbViewport
10
122.8
20
263.4
30
0.0
40
200.0
41
150.0
68
2
69
2
12
0.0
22
0.0
13
0.0
23
0.0
14
10.0
24
10.0
15
10.0
25
10.0
16
0.0
26
0.0
36
1.0
17
0.0
27
0.0
37
0.0
42
50.0
43
0.0
44
0.0
45
250.0
50
0.0
51
0.0
72
1000
90
885280
340
FD
110
0.0
120
0.0
130
0.0
111
1.0
121
0.0
131
0.0
112
0.0
122
1.0
132
0.0
0
ELLIPSE
5
FD
102
{ACAD_REACTORS
330
FE
102
}
330
1C
100
AcDbEntity
67
0
8
DBDT
62
256
6
ByLayer
370
-1
48
1.0
60
0
100
AcDbEllipse
10
122.8
20
263.4
30
0.0
11
100.0
21
0.0
31
0.0
210
0.0
220
0.0
230
1.0
40
0.75
41
0.0
42
6.28318530717959
0
LINE
5
FF
330
1C
100
AcDbEntity
67
0
8
DBDT
62
256
6
ByLayer
370
-1
48
1.0
60
0
100
AcDbLine
10
-227.2
20
438.95
30
0.0
11
-226.407
21
438.972
31
0.0
39
0.0
210
0.0
220
0.0
230
1.0
0
LINE
5
100
330
1C
100
AcDbEntity
67
0
8
DBDT
62
256
6
ByLayer
370
-1
48
1.0
60
0
100
AcDbLine
10
-226.407
20
438.972
30
0.0
11
-225.614
21
439.038
31
0.0
39
0.0
210
0.0
220
0.0
230
1.0
0
LINE
5
101
330
1C
100
AcDbEntity
67
0
8
DBDT
62
256
6
ByLayer
370
-1
48
1.0
60
0
100
AcDbLine
10
-225.614
20
439.038
30
0.0
11
-224.824
21
439.148
31
0.0
39
0.0
210
0.0
220
0.0
230
1.0
0
LINE
5
102
330
1C
100
AcDbEntity
67
0
8
DBDT
62
256
6
ByLayer
370
-1
48
1.0
60
0
100
AcDbLine
10
-224.824
20
439.148
30
0.0
11
-224.035
21
439.302
31
0.0
39
0.0
210
0.0
220
0.0
230
1.0
0
LINE
5
103
330
1C
100
AcDbEntity
67
0
8
DBDT
62
256
6
ByLayer
370
-1
48
1.0
60
0
100
AcDbLine
10
-224.035
20
439.302
30
0.0
11
-223.25
21
439.5
31
0.0
39
0.0
210
0.0
220
0.0
230
1.0
0
LINE
5
104
330
1C
100
AcDbEntity
67
0
8
DBDT
62
256
6
ByLayer
370
-1
48
1.0
60
0
100
AcDbLine
10
-223.25
20
439.5
30
0.0
11
-222.469
21
439.741
31
0.0
39
0.0
210
0.0
220
0.0
230
1.0
0
LINE
5
105
330
1C
100
AcDbEntity
67
0
8
DBDT
62
256
6
ByLayer
370
-1
48
1.0
60
0
100
AcDbLine
10
-222.469
20
439.741
30
0.0
11
-221.692
21
440.025
31
0.0
39
0.0
210
0.0
220
0.0
230
1.0
0
LINE
5
106
330
1C
100
AcDbEntity
67
0
8
DBDT
62
256
6
ByLayer
370
-1
48
1.0
60
0
100
AcDbLine
10
-221.692
20
440.025
30
0.0
11
-220.921
21
440.352
31
0.0
39
0.0
210
0.0
220
0.0
230
1.0
0
LINE
5
107
330
1C
100
AcDbEntity
67
0
8
DBDT
62
256
6
ByLayer
370
-1
48
1.0
60
0
100
AcDbLine
10
-220.921
20
440.352
30
0.0
11
-220.157
21
440.722
31
0.0
39
0.0
210
0.0
220
0.0
230
1.0
0
LINE
5
108
330
1C
100
AcDbEntity
67
0
8
DBDT
62
256
6
ByLayer
370
-1
48
1.0
60
0
100
AcDbLine
10
-220.157
20
440.722
30
0.0
11
-219.399
21
441.134
31
0.0
39
0.0
210
0.0
220
0.0
230
1.0
0
LINE
5
109
330
1C
100
AcDbEntity
67
0
8
DBDT
62
256
6
ByLayer
370
-1
48
1.0
60
0
100
AcDbLine
10
-219.399
20
441.134
30
0.0
11
-218.649
21
441.588
31
0.0
39
0.0
210
0.0
220
0.0
230
1.0
0
LINE
5
10A
330
1C
100
AcDbEntity
67
0
8
DBDT
62
256
6
ByLayer
370
-1
48
1.0
60
0
100
AcDbLine
10
-218.649
20
441.588
30
0.0
11
-217.908
21
442.084
31
0.0
39
0.0
210
0.0
220
0.0
230
1.0
0
LINE
5
10B
330
1C
100
AcDbEntity
67
0
8
DBDT
62
256
6
ByLayer
370
-1
48
1.0
60
0
100
AcDbLine
10
-217.908
20
442.084
30
0.0
11
-217.177
21
442.62
31
0.0
39
0.0
210
0.0
220
0.0
230
1.0
0
LINE
5
10C
330
1C
100
AcDbEntity
67
0
8
DBDT
62
256
6
ByLayer
370
-1
48
1.0
60
0
100
AcDbLine
10
-217.177
20
442.62
30
0.0
11
-216.455
21
443.197
31
0.0
39
0.0
210
0.0
220
0.0
230
1.0
0
LINE
5
10D
330
1C
100
AcDbEntity
67
0
8
DBDT
62
256
6
ByLayer
370
-1
48
1.0
60
0
100
AcDbLine
10
-216.455
20
443.197
30
0.0
11
-215.744
21
443.813
31
0.0
39
0.0
210
0.0
220
0.0
230
1.0
0
LINE
5
10E
330
1C
100
AcDbEntity
67
0
8
DBDT
62
256
6
ByLayer
370
-1
48
1.0
60
0
100
AcDbLine
10
-215.744
20
443.813
30
0.0
11
-215.045
21
444.469
31
0.0
39
0.0
210
0.0
220
0.0
230
1.0
0
LINE
5
10F
330
1C
100
AcDbEntity
67
0
8
DBDT
62
256
6
ByLayer
370
-1
48
1.0
60
0
100
AcDbLine
10
-215.045
20
444.469
30
0.0
11
-214.358
21
445.163
31
0.0
39
0.0
210
0.0
220
0.0
230
1.0
0
LINE
5
110
330
1C
100
AcDbEntity
67
0
8
DBDT
62
256
6
ByLayer
370
-1
48
1.0
60
0
100
AcDbLine
10
-214.358
20
445.163
30
0.0
11
-213.684
21
445.895
31
0.0
39
0.0
210
0.0
220
0.0
230
1.0
0
LINE
5
111
330
1C
100
AcDbEntity
67
0
8
DBDT
62
256
6
ByLayer
370
-1
48
1.0
60
0
100
AcDbLine
10
-213.684
20
445.895
30
0.0
11
-213.024
21
446.664
31
0.0
39
0.0
210
0.0
220
0.0
230
1.0
0
LINE
5
112
330
1C
100
AcDbEntity
67
0
8
DBDT
62
256
6
ByLayer
370
-1
48
1.0
60
0
100
AcDbLine
10
-213.024
20
446.664
30
0.0
11
-212.377
21
447.469
31
0.0
39
0.0
210
0.0
220
0.0
230
1.0
0
LINE
5
113
330
1C
100
AcDbEntity
67
0
8
DBDT
62
256
6
ByLayer
370
-1
48
1.0
60
0
100
AcDbLine
10
-212.377
20
447.469
30
0.0
11
-211.746
21
448.31
31
0.0
39
0.0
210
0.0
220
0.0
230
1.0
0
LINE
5
114
330
1C
100
AcDbEntity
67
0
8
DBDT
62
256
6
ByLayer
370
-1
48
1.0
60
0
100
AcDbLine
10
-211.746
20
448.31
30
0.0
11
-211.13
21
449.186
31
0.0
39
0.0
210
0.0
220
0.0
230
1.0
0
LINE
5
115
330
1C
100
AcDbEntity
67
0
8
DBDT
62
256
6
ByLayer
370
-1
48
1.0
60
0
100
AcDbLine
10
-211.13
20
449.186
30
0.0
11
-210.531
21
450.095
31
0.0
39
0.0
210
0.0
220
0.0
230
1.0
0
LINE
5
116
330
1C
100
AcDbEntity
67
0
8
DBDT
62
256
6
ByLayer
370
-1
48
1.0
60
0
100
AcDbLine
10
-210.531
20
450.095
30
0.0
11
-209.948
21
451.037
31
0.0
39
0.0
210
0.0
220
0.0
230
1.0
0
LINE
5
117
330
1C
100
AcDbEntity
67
0
8
DBDT
62
256
6
ByLayer
370
-1
48
1.0
60
0
100
AcDbLine
10
-209.948
20
451.037
30
0.0
11
-209.383
21
452.01
31
0.0
39
0.0
210
0.0
220
0.0
230
1.0
0
LINE
5
118
330
1C
100
AcDbEntity
67
0
8
DBDT
62
256
6
ByLayer
370
-1
48
1.0
60
0
100
AcDbLine
10
-209.383
20
452.01
30
0.0
11
-208.835
21
453.015
31
0.0
39
0.0
210
0.0
220
0.0
230
1.0
0
LINE
5
119
330
1C
100
AcDbEntity
67
0
8
DBDT
62
256
6
ByLayer
370
-1
48
1.0
60
0
100
AcDbLine
10
-208.835
20
453.015
30
0.0
11
-208.306
21
454.05
31
0.0
39
0.0
210
0.0
220
0.0
230
1.0
0
LINE
5
11A
330
1C
100
AcDbEntity
67
0
8
DBDT
62
256
6
ByLayer
370
-1
48
1.0
60
0
100
AcDbLine
10
-208.306
20
454.05
30
0.0
11
-207.796
21
455.113
31
0.0
39
0.0
210
0.0
220
0.0
230
1.0
0
LINE
5
11B
330
1C
100
AcDbEntity
67
0
8
DBDT
62
256
6
ByLayer
370
-1
48
1.0
60
0
100
AcDbLine
10
-207.796
20
455.113
30
0.0
11
-207.306
21
456.205
31
0.0
39
0.0
210
0.0
220
0.0
230
1.0
0
LINE
5
11C
330
1C
100
AcDbEntity
67
0
8
DBDT
62
256
6
ByLayer
370
-1
48
1.0
60
0
100
AcDbLine
10
-207.306
20
456.205
30
0.0
11
-206.836
21
457.323
31
0.0
39
0.0
210
0.0
220
0.0
230
1.0
0
LINE
5
11D
330
1C
100
AcDbEntity
67
0
8
DBDT
62
256
6
ByLayer
370
-1
48
1.0
60
0
100
AcDbLine
10
-206.836
20
457.323
30
0.0
11
-206.386
21
458.466
31
0.0
39
0.0
210
0.0
220
0.0
230
1.0
0
LINE
5
11E
330
1C
100
AcDbEntity
67
0
8
DBDT
62
256
6
ByLayer
370
-1
48
1.0
60
0
100
AcDbLine
10
-206.386
20
458.466
30
0.0
11
-205.957
21
459.634
31
0.0
39
0.0
210
0.0
220
0.0
230
1.0
0
LINE
5
11F
330
1C
100
AcDbEntity
67
0
8
DBDT
62
256
6
ByLayer
370
-1
48
1.0
60
0
100
AcDbLine
10
-205.957
20
459.634
30
0.0
11
-205.549
21
460.825
31
0.0
39
0.0
210
0.0
220
0.0
230
1.0
0
LINE
5
120
330
1C
100
AcDbEntity
67
0
8
DBDT
62
256
6
ByLayer
370
-1
48
1.0
60
0
100
AcDbLine
10
-205.549
20
460.825
30
0.0
11
-205.164
21
462.038
31
0.0
39
0.0
210
0.0
220
0.0
230
1.0
0
LINE
5
121
330
1C
100
AcDbEntity
67
0
8
DBDT
62
256
6
ByLayer
370
-1
48
1.0
60
0
100
AcDbLine
10
-205.164
20
462.038
30
0.0
11
-204.8
21
463.272
31
0.0
39
0.0
210
0.0
220
0.0
230
1.0
0
LINE
5
122
330
1C
100
AcDbEntity
67
0
8
DBDT
62
256
6
ByLayer
370
-1
48
1.0
60
0
100
AcDbLine
10
-204.8
20
463.272
30
0.0
11
-204.459
21
464.526
31
0.0
39
0.0
210
0.0
220
0.0
230
1.0
0
LINE
5
123
330
1C
100
AcDbEntity
67
0
8
DBDT
62
256
6
ByLayer
370
-1
48
1.0
60
0
100
AcDbLine
10
-204.459
20
464.526
30
0.0
11
-204.141
21
465.797
31
0.0
39
0.0
210
0.0
220
0.0
230
1.0
0
LINE
5
124
330
1C
100
AcDbEntity
67
0
8
DBDT
62
256
6
ByLayer
370
-1
48
1.0
60
0
100
AcDbLine
10
-204.141
20
465.797
30
0.0
11
-203.846
21
467.086
31
0.0
39
0.0
210
0.0
220
0.0
230
1.0
0
LINE
5
125
330
1C
100
AcDbEntity
67
0
8
DBDT
62
256
6
ByLayer
370
-1
48
1.0
60
0
100
AcDbLine
10
-203.846
20
467.086
30
0.0
11
-203.575
21
468.391
31
0.0
39
0.0
210
0.0
220
0.0
230
1.0
0
LINE
5
126
330
1C
100
AcDbEntity
67
0
8
DBDT
62
256
6
ByLayer
370
-1
48
1.0
60
0
100
AcDbLine
10
-203.575
20
468.391
30
0.0
11
-203.327
21
469.71
31
0.0
39
0.0
210
0.0
220
0.0
230
1.0
0
LINE
5
127
330
1C
100
AcDbEntity
67
0
8
DBDT
62
256
6
ByLayer
370
-1
48
1.0
60
0
100
AcDbLine
10
-203.327
20
469.71
30
0.0
11
-203.104
21
471.042
31
0.0
39
0.0
210
0.0
220
0.0
230
1.0
0
LINE
5
128
330
1C
100
AcDbEntity
67
0
8
DBDT
62
256
6
ByLayer
370
-1
48
1.0
60
0
100
AcDbLine
10
-203.104
20
471.042
30
0.0
11
-202.905
21
472.386
31
0.0
39
0.0
210
0.0
220
0.0
230
1.0
0
LINE
5
129
330
1C
100
AcDbEntity
67
0
8
DBDT
62
256
6
ByLayer
370
-1
48
1.0
60
0
100
AcDbLine
10
-202.905
20
472.386
30
0.0
11
-202.73
21
473.74
31
0.0
39
0.0
210
0.0
220
0.0
230
1.0
0
LINE
5
12A
330
1C
100
AcDbEntity
67
0
8
DBDT
62
256
6
ByLayer
370
-1
48
1.0
60
0
100
AcDbLine
10
-202.73
20
473.74
30
0.0
11
-202.58
21
475.103
31
0.0
39
0.0
210
0.0
220
0.0
230
1.0
0
LINE
5
12B
330
1C
100
AcDbEntity
67
0
8
DBDT
62
256
6
ByLayer
370
-1
48
1.0
60
0
100
AcDbLine
10
-202.58
20
475.103
30
0.0
11
-202.454
21
476.474
31
0.0
39
0.0
210
0.0
220
0.0
230
1.0
0
LINE
5
12C
330
1C
100
AcDbEntity
67
0
8
DBDT
62
256
6
ByLayer
370
-1
48
1.0
60
0
100
AcDbLine
10
-202.454
20
476.474
30
0.0
11
-202.354
21
477.851
31
0.0
39
0.0
210
0.0
220
0.0
230
1.0
0
LINE
5
12D
330
1C
100
AcDbEntity
67
0
8
DBDT
62
256
6
ByLayer
370
-1
48
1.0
60
0
100
AcDbLine
10
-202.354
20
477.851
30
0.0
11
-202.279
21
479.233
31
0.0
39
0.0
210
0.0
220
0.0
230
1.0
0
LINE
5
12E
330
1C
100
AcDbEntity
67
0
8
DBDT
62
256
6
ByLayer
370
-1
48
1.0
60
0
100
AcDbLine
10
-202.279
20
479.233
30
0.0
11
-202.228
21
480.618
31
0.0
39
0.0
210
0.0
220
0.0
230
1.0
0
LINE
5
12F
330
1C
100
AcDbEntity
67
0
8
DBDT
62
256
6
ByLayer
370
-1
48
1.0
60
0
100
AcDbLine
10
-202.228
20
480.618
30
0.0
11
-202.203
21
482.006
31
0.0
39
0.0
210
0.0
220
0.0
230
1.0
0
LINE
5
130
330
1C
100
AcDbEntity
67
0
8
DBDT
62
256
6
ByLayer
370
-1
48
1.0
60
0
100
AcDbLine
10
-202.203
20
482.006
30
0.0
11
-202.203
21
483.394
31
0.0
39
0.0
210
0.0
220
0.0
230
1.0
0
LINE
5
131
330
1C
100
AcDbEntity
67
0
8
DBDT
62
256
6
ByLayer
370
-1
48
1.0
60
0
100
AcDbLine
10
-202.203
20
483.394
30
0.0
11
-202.228
21
484.782
31
0.0
39
0.0
210
0.0
220
0.0
230
1.0
0
LINE
5
132
330
1C
100
AcDbEntity
67
0
8
DBDT
62
256
6
ByLayer
370
-1
48
1.0
60
0
100
AcDbLine
10
-202.228
20
484.782
30
0.0
11
-202.279
21
486.167
31
0.0
39
0.0
210
0.0
220
0.0
230
1.0
0
LINE
5
133
330
1C
100
AcDbEntity
67
0
8
DBDT
62
256
6
ByLayer
370
-1
48
1.0
60
0
100
AcDbLine
10
-202.279
20
486.167
30
0.0
11
-202.354
21
487.549
31
0.0
39
0.0
210
0.0
220
0.0
230
1.0
0
LINE
5
134
330
1C
100
AcDbEntity
67
0
8
DBDT
62
256
6
ByLayer
370
-1
48
1.0
60
0
100
AcDbLine
10
-202.354
20
487.549
30
0.0
11
-202.454
21
488.926
31
0.0
39
0.0
210
0.0
220
0.0
230
1.0
0
LINE
5
135
330
1C
100
AcDbEntity
67
0
8
DBDT
62
256
6
ByLayer
370
-1
48
1.0
60
0
100
AcDbLine
10
-202.454
20
488.926
30
0.0
11
-202.58
21
490.297
31
0.0
39
0.0
210
0.0
220
0.0
230
1.0
0
LINE
5
136
330
1C
100
AcDbEntity
67
0
8
DBDT
62
256
6
ByLayer
370
-1
48
1.0
60
0
100
AcDbLine
10
-202.58
20
490.297
30
0.0
11
-202.73
21
491.66
31
0.0
39
0.0
210
0.0
220
0.0
230
1.0
0
LINE
5
137
330
1C
100
AcDbEntity
67
0
8
DBDT
62
256
6
ByLayer
370
-1
48
1.0
60
0
100
AcDbLine
10
-202.73
20
491.66
30
0.0
11
-202.905
21
493.014
31
0.0
39
0.0
210
0.0
220
0.0
230
1.0
0
LINE
5
138
330
1C
100
AcDbEntity
67
0
8
DBDT
62
256
6
ByLayer
370
-1
48
1.0
60
0
100
AcDbLine
10
-202.905
20
493.014
30
0.0
11
-203.104
21
494.358
31
0.0
39
0.0
210
0.0
220
0.0
230
1.0
0
LINE
5
139
330
1C
100
AcDbEntity
67
0
8
DBDT
62
256
6
ByLayer
370
-1
48
1.0
60
0
100
AcDbLine
10
-203.104
20
494.358
30
0.0
11
-203.327
21
495.69
31
0.0
39
0.0
210
0.0
220
0.0
230
1.0
0
LINE
5
13A
330
1C
100
AcDbEntity
67
0
8
DBDT
62
256
6
ByLayer
370
-1
48
1.0
60
0
100
AcDbLine
10
-203.327
20
495.69
30
0.0
11
-203.575
21
497.009
31
0.0
39
0.0
210
0.0
220
0.0
230
1.0
0
LINE
5
13B
330
1C
100
AcDbEntity
67
0
8
DBDT
62
256
6
ByLayer
370
-1
48
1.0
60
0
100
AcDbLine
10
-203.575
20
497.009
30
0.0
11
-203.846
21
498.314
31
0.0
39
0.0
210
0.0
220
0.0
230
1.0
0
LINE
5
13C
330
1C
100
AcDbEntity
67
0
8
DBDT
62
256
6
ByLayer
370
-1
48
1.0
60
0
100
AcDbLine
10
-203.846
20
498.314
30
0.0
11
-204.141
21
499.603
31
0.0
39
0.0
210
0.0
220
0.0
230
1.0
0
LINE
5
13D
330
1C
100
AcDbEntity
67
0
8
DBDT
62
256
6
ByLayer
370
-1
48
1.0
60
0
100
AcDbLine
10
-204.141
20
499.603
30
0.0
11
-204.459
21
500.874
31
0.0
39
0.0
210
0.0
220
0.0
230
1.0
0
LINE
5
13E
330
1C
100
AcDbEntity
67
0
8
DBDT
62
256
6
ByLayer
370
-1
48
1.0
60
0
100
AcDbLine
10
-204.459
20
500.874
30
0.0
11
-204.8
21
502.128
31
0.0
39
0.0
210
0.0
220
0.0
230
1.0
0
LINE
5
13F
330
1C
100
AcDbEntity
67
0
8
DBDT
62
256
6
ByLayer
370
-1
48
1.0
60
0
100
AcDbLine
10
-204.8
20
502.128
30
0.0
11
-205.164
21
503.362
31
0.0
39
0.0
210
0.0
220
0.0
230
1.0
0
LINE
5
140
330
1C
100
AcDbEntity
67
0
8
DBDT
62
256
6
ByLayer
370
-1
48
1.0
60
0
100
AcDbLine
10
-205.164
20
503.362
30
0.0
11
-205.549
21
504.575
31
0.0
39
0.0
210
0.0
220
0.0
230
1.0
0
LINE
5
141
330
1C
100
AcDbEntity
67
0
8
DBDT
62
256
6
ByLayer
370
-1
48
1.0
60
0
100
AcDbLine
10
-205.549
20
504.575
30
0.0
11
-205.957
21
505.766
31
0.0
39
0.0
210
0.0
220
0.0
230
1.0
0
LINE
5
142
330
1C
100
AcDbEntity
67
0
8
DBDT
62
256
6
ByLayer
370
-1
48
1.0
60
0
100
AcDbLine
10
-205.957
20
505.766
30
0.0
11
-206.386
21
506.934
31
0.0
39
0.0
210
0.0
220
0.0
230
1.0
0
LINE
5
143
330
1C
100
AcDbEntity
67
0
8
DBDT
62
256
6
ByLayer
370
-1
48
1.0
60
0
100
AcDbLine
10
-206.386
20
506.934
30
0.0
11
-206.836
21
508.077
31
0.0
39
0.0
210
0.0
220
0.0
230
1.0
0
LINE
5
144
330
1C
100
AcDbEntity
67
0
8
DBDT
62
256
6
ByLayer
370
-1
48
1.0
60
0
100
AcDbLine
10
-206.836
20
508.077
30
0.0
11
-207.306
21
509.195
31
0.0
39
0.0
210
0.0
220
0.0
230
1.0
0
LINE
5
145
330
1C
100
AcDbEntity
67
0
8
DBDT
62
256
6
ByLayer
370
-1
48
1.0
60
0
100
AcDbLine
10
-207.306
20
509.195
30
0.0
11
-207.796
21
510.287
31
0.0
39
0.0
210
0.0
220
0.0
230
1.0
0
LINE
5
146
330
1C
100
AcDbEntity
67
0
8
DBDT
62
256
6
ByLayer
370
-1
48
1.0
60
0
100
AcDbLine
10
-207.796
20
510.287
30
0.0
11
-208.306
21
511.35
31
0.0
39
0.0
210
0.0
220
0.0
230
1.0
0
LINE
5
147
330
1C
100
AcDbEntity
67
0
8
DBDT
62
256
6
ByLayer
370
-1
48
1.0
60
0
100
AcDbLine
10
-208.306
20
511.35
30
0.0
11
-208.835
21
512.385
31
0.0
39
0.0
210
0.0
220
0.0
230
1.0
0
LINE
5
148
330
1C
100
AcDbEntity
67
0
8
DBDT
62
256
6
ByLayer
370
-1
48
1.0
60
0
100
AcDbLine
10
-208.835
20
512.385
30
0.0
11
-209.383
21
513.39
31
0.0
39
0.0
210
0.0
220
0.0
230
1.0
0
LINE
5
149
330
1C
100
AcDbEntity
67
0
8
DBDT
62
256
6
ByLayer
370
-1
48
1.0
60
0
100
AcDbLine
10
-209.383
20
513.39
30
0.0
11
-209.948
21
514.363
31
0.0
39
0.0
210
0.0
220
0.0
230
1.0
0
LINE
5
14A
330
1C
100
AcDbEntity
67
0
8
DBDT
62
256
6
ByLayer
370
-1
48
1.0
60
0
100
AcDbLine
10
-209.948
20
514.363
30
0.0
11
-210.531
21
515.305
31
0.0
39
0.0
210
0.0
220
0.0
230
1.0
0
LINE
5
14B
330
1C
100
AcDbEntity
67
0
8
DBDT
62
256
6
ByLayer
370
-1
48
1.0
60
0
100
AcDbLine
10
-210.531
20
515.305
30
0.0
11
-211.13
21
516.214
31
0.0
39
0.0
210
0.0
220
0.0
230
1.0
0
LINE
5
14C
330
1C
100
AcDbEntity
67
0
8
DBDT
62
256
6
ByLayer
370
-1
48
1.0
60
0
100
AcDbLine
10
-211.13
20
516.214
30
0.0
11
-211.746
21
517.09
31
0.0
39
0.0
210
0.0
220
0.0
230
1.0
0
LINE
5
14D
330
1C
100
AcDbEntity
67
0
8
DBDT
62
256
6
ByLayer
370
-1
48
1.0
60
0
100
AcDbLine
10
-211.746
20
517.09
30
0.0
11
-212.377
21
517.931
31
0.0
39
0.0
210
0.0
220
0.0
230
1.0
0
LINE
5
14E
330
1C
100
AcDbEntity
67
0
8
DBDT
62
256
6
ByLayer
370
-1
48
1.0
60
0
100
AcDbLine
10
-212.377
20
517.931
30
0.0
11
-213.024
21
518.736
31
0.0
39
0.0
210
0.0
220
0.0
230
1.0
0
LINE
5
14F
330
1C
100
AcDbEntity
67
0
8
DBDT
62
256
6
ByLayer
370
-1
48
1.0
60
0
100
AcDbLine
10
-213.024
20
518.736
30
0.0
11
-213.684
21
519.505
31
0.0
39
0.0
210
0.0
220
0.0
230
1.0
0
LINE
5
150
330
1C
100
AcDbEntity
67
0
8
DBDT
62
256
6
ByLayer
370
-1
48
1.0
60
0
100
AcDbLine
10
-213.684
20
519.505
30
0.0
11
-214.358
21
520.237
31
0.0
39
0.0
210
0.0
220
0.0
230
1.0
0
LINE
5
151
330
1C
100
AcDbEntity
67
0
8
DBDT
62
256
6
ByLayer
370
-1
48
1.0
60
0
100
AcDbLine
10
-214.358
20
520.237
30
0.0
11
-215.045
21
520.931
31
0.0
39
0.0
210
0.0
220
0.0
230
1.0
0
LINE
5
152
330
1C
100
AcDbEntity
67
0
8
DBDT
62
256
6
ByLayer
370
-1
48
1.0
60
0
100
AcDbLine
10
-215.045
20
520.931
30
0.0
11
-215.744
21
521.587
31
0.0
39
0.0
210
0.0
220
0.0
230
1.0
0
LINE
5
153
330
1C
100
AcDbEntity
67
0
8
DBDT
62
256
6
ByLayer
370
-1
48
1.0
60
0
100
AcDbLine
10
-215.744
20
521.587
30
0.0
11
-216.455
21
522.203
31
0.0
39
0.0
210
0.0
220
0.0
230
1.0
0
LINE
5
154
330
1C
100
AcDbEntity
67
0
8
DBDT
62
256
6
ByLayer
370
-1
48
1.0
60
0
100
AcDbLine
10
-216.455
20
522.203
30
0.0
11
-217.177
21
522.78
31
0.0
39
0.0
210
0.0
220
0.0
230
1.0
0
LINE
5
155
330
1C
100
AcDbEntity
67
0
8
DBDT
62
256
6
ByLayer
370
-1
48
1.0
60
0
100
AcDbLine
10
-217.177
20
522.78
30
0.0
11
-217.908
21
523.316
31
0.0
39
0.0
210
0.0
220
0.0
230
1.0
0
LINE
5
156
330
1C
100
AcDbEntity
67
0
8
DBDT
62
256
6
ByLayer
370
-1
48
1.0
60
0
100
AcDbLine
10
-217.908
20
523.316
30
0.0
11
-218.649
21
523.812
31
0.0
39
0.0
210
0.0
220
0.0
230
1.0
0
LINE
5
157
330
1C
100
AcDbEntity
67
0
8
DBDT
62
256
6
ByLayer
370
-1
48
1.0
60
0
100
AcDbLine
10
-218.649
20
523.812
30
0.0
11
-219.399
21
524.266
31
0.0
39
0.0
210
0.0
220
0.0
230
1.0
0
LINE
5
158
330
1C
100
AcDbEntity
67
0
8
DBDT
62
256
6
ByLayer
370
-1
48
1.0
60
0
100
AcDbLine
10
-219.399
20
524.266
30
0.0
11
-220.157
21
524.678
31
0.0
39
0.0
210
0.0
220
0.0
230
1.0
0
LINE
5
159
330
1C
100
AcDbEntity
67
0
8
DBDT
62
256
6
ByLayer
370
-1
48
1.0
60
0
100
AcDbLine
10
-220.157
20
524.678
30
0.0
11
-220.921
21
525.048
31
0.0
39
0.0
210
0.0
220
0.0
230
1.0
0
LINE
5
15A
330
1C
100
AcDbEntity
67
0
8
DBDT
62
256
6
ByLayer
370
-1
48
1.0
60
0
100
AcDbLine
10
-220.921
20
525.048
30
0.0
11
-221.692
21
525.375
31
0.0
39
0.0
210
0.0
220
0.0
230
1.0
0
LINE
5
15B
330
1C
100
AcDbEntity
67
0
8
DBDT
62
256
6
ByLayer
370
-1
48
1.0
60
0
100
AcDbLine
10
-221.692
20
525.375
30
0.0
11
-222.469
21
525.659
31
0.0
39
0.0
210
0.0
220
0.0
230
1.0
0
LINE
5
15C
330
1C
100
AcDbEntity
67
0
8
DBDT
62
256
6
ByLayer
370
-1
48
1.0
60
0
100
AcDbLine
10
-222.469
20
525.659
30
0.0
11
-223.25
21
525.9
31
0.0
39
0.0
210
0.0
220
0.0
230
1.0
0
LINE
5
15D
330
1C
100
AcDbEntity
67
0
8
DBDT
62
256
6
ByLayer
370
-1
48
1.0
60
0
100
AcDbLine
10
-223.25
20
525.9
30
0.0
11
-224.035
21
526.098
31
0.0
39
0.0
210
0.0
220
0.0
230
1.0
0
LINE
5
15E
330
1C
100
AcDbEntity
67
0
8
DBDT
62
256
6
ByLayer
370
-1
48
1.0
60
0
100
AcDbLine
10
-224.035
20
526.098
30
0.0
11
-224.824
21
526.252
31
0.0
39
0.0
210
0.0
220
0.0
230
1.0
0
LINE
5
15F
330
1C
100
AcDbEntity
67
0
8
DBDT
62
256
6
ByLayer
370
-1
48
1.0
60
0
100
AcDbLine
10
-224.824
20
526.252
30
0.0
11
-225.614
21
526.362
31
0.0
39
0.0
210
0.0
220
0.0
230
1.0
0
LINE
5
160
330
1C
100
AcDbEntity
67
0
8
DBDT
62
256
6
ByLayer
370
-1
48
1.0
60
0
100
AcDbLine
10
-225.614
20
526.362
30
0.0
11
-226.407
21
526.428
31
0.0
39
0.0
210
0.0
220
0.0
230
1.0
0
LINE
5
161
330
1C
100
AcDbEntity
67
0
8
DBDT
62
256
6
ByLayer
370
-1
48
1.0
60
0
100
AcDbLine
10
-226.407
20
526.428
30
0.0
11
-227.2
21
526.45
31
0.0
39
0.0
210
0.0
220
0.0
230
1.0
0
LINE
5
162
330
1C
100
AcDbEntity
67
0
8
DBDT
62
256
6
ByLayer
370
-1
48
1.0
60
0
100
AcDbLine
10
-227.2
20
526.45
30
0.0
11
-227.993
21
526.428
31
0.0
39
0.0
210
0.0
220
0.0
230
1.0
0
LINE
5
163
330
1C
100
AcDbEntity
67
0
8
DBDT
62
256
6
ByLayer
370
-1
48
1.0
60
0
100
AcDbLine
10
-227.993
20
526.428
30
0.0
11
-228.786
21
526.362
31
0.0
39
0.0
210
0.0
220
0.0
230
1.0
0
LINE
5
164
330
1C
100
AcDbEntity
67
0
8
DBDT
62
256
6
ByLayer
370
-1
48
1.0
60
0
100
AcDbLine
10
-228.786
20
526.362
30
0.0
11
-229.576
21
526.252
31
0.0
39
0.0
210
0.0
220
0.0
230
1.0
0
LINE
5
165
330
1C
100
AcDbEntity
67
0
8
DBDT
62
256
6
ByLayer
370
-1
48
1.0
60
0
100
AcDbLine
10
-229.576
20
526.252
30
0.0
11
-230.365
21
526.098
31
0.0
39
0.0
210
0.0
220
0.0
230
1.0
0
LINE
5
166
330
1C
100
AcDbEntity
67
0
8
DBDT
62
256
6
ByLayer
370
-1
48
1.0
60
0
100
AcDbLine
10
-230.365
20
526.098
30
0.0
11
-231.15
21
525.9
31
0.0
39
0.0
210
0.0
220
0.0
230
1.0
0
LINE
5
167
330
1C
100
AcDbEntity
67
0
8
DBDT
62
256
6
ByLayer
370
-1
48
1.0
60
0
100
AcDbLine
10
-231.15
20
525.9
30
0.0
11
-231.931
21
525.659
31
0.0
39
0.0
210
0.0
220
0.0
230
1.0
0
LINE
5
168
330
1C
100
AcDbEntity
67
0
8
DBDT
62
256
6
ByLayer
370
-1
48
1.0
60
0
100
AcDbLine
10
-231.931
20
525.659
30
0.0
11
-232.708
21
525.375
31
0.0
39
0.0
210
0.0
220
0.0
230
1.0
0
LINE
5
169
330
1C
100
AcDbEntity
67
0
8
DBDT
62
256
6
ByLayer
370
-1
48
1.0
60
0
100
AcDbLine
10
-232.708
20
525.375
30
0.0
11
-233.479
21
525.048
31
0.0
39
0.0
210
0.0
220
0.0
230
1.0
0
LINE
5
16A
330
1C
100
AcDbEntity
67
0
8
DBDT
62
256
6
ByLayer
370
-1
48
1.0
60
0
100
AcDbLine
10
-233.479
20
525.048
30
0.0
11
-234.243
21
524.678
31
0.0
39
0.0
210
0.0
220
0.0
230
1.0
0
LINE
5
16B
330
1C
100
AcDbEntity
67
0
8
DBDT
62
256
6
ByLayer
370
-1
48
1.0
60
0
100
AcDbLine
10
-234.243
20
524.678
30
0.0
11
-235.001
21
524.266
31
0.0
39
0.0
210
0.0
220
0.0
230
1.0
0
LINE
5
16C
330
1C
100
AcDbEntity
67
0
8
DBDT
62
256
6
ByLayer
370
-1
48
1.0
60
0
100
AcDbLine
10
-235.001
20
524.266
30
0.0
11
-235.751
21
523.812
31
0.0
39
0.0
210
0.0
220
0.0
230
1.0
0
LINE
5
16D
330
1C
100
AcDbEntity
67
0
8
DBDT
62
256
6
ByLayer
370
-1
48
1.0
60
0
100
AcDbLine
10
-235.751
20
523.812
30
0.0
11
-236.492
21
523.316
31
0.0
39
0.0
210
0.0
220
0.0
230
1.0
0
LINE
5
16E
330
1C
100
AcDbEntity
67
0
8
DBDT
62
256
6
ByLayer
370
-1
48
1.0
60
0
100
AcDbLine
10
-236.492
20
523.316
30
0.0
11
-237.223
21
522.78
31
0.0
39
0.0
210
0.0
220
0.0
230
1.0
0
LINE
5
16F
330
1C
100
AcDbEntity
67
0
8
DBDT
62
256
6
ByLayer
370
-1
48
1.0
60
0
100
AcDbLine
10
-237.223
20
522.78
30
0.0
11
-237.945
21
522.203
31
0.0
39
0.0
210
0.0
220
0.0
230
1.0
0
LINE
5
170
330
1C
100
AcDbEntity
67
0
8
DBDT
62
256
6
ByLayer
370
-1
48
1.0
60
0
100
AcDbLine
10
-237.945
20
522.203
30
0.0
11
-238.656
21
521.587
31
0.0
39
0.0
210
0.0
220
0.0
230
1.0
0
LINE
5
171
330
1C
100
AcDbEntity
67
0
8
DBDT
62
256
6
ByLayer
370
-1
48
1.0
60
0
100
AcDbLine
10
-238.656
20
521.587
30
0.0
11
-239.355
21
520.931
31
0.0
39
0.0
210
0.0
220
0.0
230
1.0
0
LINE
5
172
330
1C
100
AcDbEntity
67
0
8
DBDT
62
256
6
ByLayer
370
-1
48
1.0
60
0
100
AcDbLine
10
-239.355
20
520.931
30
0.0
11
-240.042
21
520.237
31
0.0
39
0.0
210
0.0
220
0.0
230
1.0
0
LINE
5
173
330
1C
100
AcDbEntity
67
0
8
DBDT
62
256
6
ByLayer
370
-1
48
1.0
60
0
100
AcDbLine
10
-240.042
20
520.237
30
0.0
11
-240.716
21
519.505
31
0.0
39
0.0
210
0.0
220
0.0
230
1.0
0
LINE
5
174
330
1C
100
AcDbEntity
67
0
8
DBDT
62
256
6
ByLayer
370
-1
48
1.0
60
0
100
AcDbLine
10
-240.716
20
519.505
30
0.0
11
-241.376
21
518.736
31
0.0
39
0.0
210
0.0
220
0.0
230
1.0
0
LINE
5
175
330
1C
100
AcDbEntity
67
0
8
DBDT
62
256
6
ByLayer
370
-1
48
1.0
60
0
100
AcDbLine
10
-241.376
20
518.736
30
0.0
11
-242.023
21
517.931
31
0.0
39
0.0
210
0.0
220
0.0
230
1.0
0
LINE
5
176
330
1C
100
AcDbEntity
67
0
8
DBDT
62
256
6
ByLayer
370
-1
48
1.0
60
0
100
AcDbLine
10
-242.023
20
517.931
30
0.0
11
-242.654
21
517.09
31
0.0
39
0.0
210
0.0
220
0.0
230
1.0
0
LINE
5
177
330
1C
100
AcDbEntity
67
0
8
DBDT
62
256
6
ByLayer
370
-1
48
1.0
60
0
100
AcDbLine
10
-242.654
20
517.09
30
0.0
11
-243.27
21
516.214
31
0.0
39
0.0
210
0.0
220
0.0
230
1.0
0
LINE
5
178
330
1C
100
AcDbEntity
67
0
8
DBDT
62
256
6
ByLayer
370
-1
48
1.0
60
0
100
AcDbLine
10
-243.27
20
516.214
30
0.0
11
-243.869
21
515.305
31
0.0
39
0.0
210
0.0
220
0.0
230
1.0
0
LINE
5
179
330
1C
100
AcDbEntity
67
0
8
DBDT
62
256
6
ByLayer
370
-1
48
1.0
60
0
100
AcDbLine
10
-243.869
20
515.305
30
0.0
11
-244.452
21
514.363
31
0.0
39
0.0
210
0.0
220
0.0
230
1.0
0
LINE
5
17A
330
1C
100
AcDbEntity
67
0
8
DBDT
62
256
6
ByLayer
370
-1
48
1.0
60
0
100
AcDbLine
10
-244.452
20
514.363
30
0.0
11
-245.017
21
513.39
31
0.0
39
0.0
210
0.0
220
0.0
230
1.0
0
LINE
5
17B
330
1C
100
AcDbEntity
67
0
8
DBDT
62
256
6
ByLayer
370
-1
48
1.0
60
0
100
AcDbLine
10
-245.017
20
513.39
30
0.0
11
-245.565
21
512.385
31
0.0
39
0.0
210
0.0
220
0.0
230
1.0
0
LINE
5
17C
330
1C
100
AcDbEntity
67
0
8
DBDT
62
256
6
ByLayer
370
-1
48
1.0
60
0
100
AcDbLine
10
-245.565
20
512.385
30
0.0
11
-246.094
21
511.35
31
0.0
39
0.0
210
0.0
220
0.0
230
1.0
0
LINE
5
17D
330
1C
100
AcDbEntity
67
0
8
DBDT
62
256
6
ByLayer
370
-1
48
1.0
60
0
100
AcDbLine
10
-246.094
20
511.35
30
0.0
11
-246.604
21
510.287
31
0.0
39
0.0
210
0.0
220
0.0
230
1.0
0
LINE
5
17E
330
1C
100
AcDbEntity
67
0
8
DBDT
62
256
6
ByLayer
370
-1
48
1.0
60
0
100
AcDbLine
10
-246.604
20
510.287
30
0.0
11
-247.094
21
509.195
31
0.0
39
0.0
210
0.0
220
0.0
230
1.0
0
LINE
5
17F
330
1C
100
AcDbEntity
67
0
8
DBDT
62
256
6
ByLayer
370
-1
48
1.0
60
0
100
AcDbLine
10
-247.094
20
509.195
30
0.0
11
-247.564
21
508.077
31
0.0
39
0.0
210
0.0
220
0.0
230
1.0
0
LINE
5
180
330
1C
100
AcDbEntity
67
0
8
DBDT
62
256
6
ByLayer
370
-1
48
1.0
60
0
100
AcDbLine
10
-247.564
20
508.077
30
0.0
11
-248.014
21
506.934
31
0.0
39
0.0
210
0.0
220
0.0
230
1.0
0
LINE
5
181
330
1C
100
AcDbEntity
67
0
8
DBDT
62
256
6
ByLayer
370
-1
48
1.0
60
0
100
AcDbLine
10
-248.014
20
506.934
30
0.0
11
-248.443
21
505.766
31
0.0
39
0.0
210
0.0
220
0.0
230
1.0
0
LINE
5
182
330
1C
100
AcDbEntity
67
0
8
DBDT
62
256
6
ByLayer
370
-1
48
1.0
60
0
100
AcDbLine
10
-248.443
20
505.766
30
0.0
11
-248.851
21
504.575
31
0.0
39
0.0
210
0.0
220
0.0
230
1.0
0
LINE
5
183
330
1C
100
AcDbEntity
67
0
8
DBDT
62
256
6
ByLayer
370
-1
48
1.0
60
0
100
AcDbLine
10
-248.851
20
504.575
30
0.0
11
-249.236
21
503.362
31
0.0
39
0.0
210
0.0
220
0.0
230
1.0
0
LINE
5
184
330
1C
100
AcDbEntity
67
0
8
DBDT
62
256
6
ByLayer
370
-1
48
1.0
60
0
100
AcDbLine
10
-249.236
20
503.362
30
0.0
11
-249.6
21
502.128
31
0.0
39
0.0
210
0.0
220
0.0
230
1.0
0
LINE
5
185
330
1C
100
AcDbEntity
67
0
8
DBDT
62
256
6
ByLayer
370
-1
48
1.0
60
0
100
AcDbLine
10
-249.6
20
502.128
30
0.0
11
-249.941
21
500.874
31
0.0
39
0.0
210
0.0
220
0.0
230
1.0
0
LINE
5
186
330
1C
100
AcDbEntity
67
0
8
DBDT
62
256
6
ByLayer
370
-1
48
1.0
60
0
100
AcDbLine
10
-249.941
20
500.874
30
0.0
11
-250.259
21
499.603
31
0.0
39
0.0
210
0.0
220
0.0
230
1.0
0
LINE
5
187
330
1C
100
AcDbEntity
67
0
8
DBDT
62
256
6
ByLayer
370
-1
48
1.0
60
0
100
AcDbLine
10
-250.259
20
499.603
30
0.0
11
-250.554
21
498.314
31
0.0
39
0.0
210
0.0
220
0.0
230
1.0
0
LINE
5
188
330
1C
100
AcDbEntity
67
0
8
DBDT
62
256
6
ByLayer
370
-1
48
1.0
60
0
100
AcDbLine
10
-250.554
20
498.314
30
0.0
11
-250.825
21
497.009
31
0.0
39
0.0
210
0.0
220
0.0
230
1.0
0
LINE
5
189
330
1C
100
AcDbEntity
67
0
8
DBDT
62
256
6
ByLayer
370
-1
48
1.0
60
0
100
AcDbLine
10
-250.825
20
497.009
30
0.0
11
-251.073
21
495.69
31
0.0
39
0.0
210
0.0
220
0.0
230
1.0
0
LINE
5
18A
330
1C
100
AcDbEntity
67
0
8
DBDT
62
256
6
ByLayer
370
-1
48
1.0
60
0
100
AcDbLine
10
-251.073
20
495.69
30
0.0
11
-251.296
21
494.358
31
0.0
39
0.0
210
0.0
220
0.0
230
1.0
0
LINE
5
18B
330
1C
100
AcDbEntity
67
0
8
DBDT
62
256
6
ByLayer
370
-1
48
1.0
60
0
100
AcDbLine
10
-251.296
20
494.358
30
0.0
11
-251.495
21
493.014
31
0.0
39
0.0
210
0.0
220
0.0
230
1.0
0
LINE
5
18C
330
1C
100
AcDbEntity
67
0
8
DBDT
62
256
6
ByLayer
370
-1
48
1.0
60
0
100
AcDbLine
10
-251.495
20
493.014
30
0.0
11
-251.67
21
491.66
31
0.0
39
0.0
210
0.0
220
0.0
230
1.0
0
LINE
5
18D
330
1C
100
AcDbEntity
67
0
8
DBDT
62
256
6
ByLayer
370
-1
48
1.0
60
0
100
AcDbLine
10
-251.67
20
491.66
30
0.0
11
-251.82
21
490.297
31
0.0
39
0.0
210
0.0
220
0.0
230
1.0
0
LINE
5
18E
330
1C
100
AcDbEntity
67
0
8
DBDT
62
256
6
ByLayer
370
-1
48
1.0
60
0
100
AcDbLine
10
-251.82
20
490.297
30
0.0
11
-251.946
21
488.926
31
0.0
39
0.0
210
0.0
220
0.0
230
1.0
0
LINE
5
18F
330
1C
100
AcDbEntity
67
0
8
DBDT
62
256
6
ByLayer
370
-1
48
1.0
60
0
100
AcDbLine
10
-251.946
20
488.926
30
0.0
11
-252.046
21
487.549
31
0.0
39
0.0
210
0.0
220
0.0
230
1.0
0
LINE
5
190
330
1C
100
AcDbEntity
67
0
8
DBDT
62
256
6
ByLayer
370
-1
48
1.0
60
0
100
AcDbLine
10
-252.046
20
487.549
30
0.0
11
-252.121
21
486.167
31
0.0
39
0.0
210
0.0
220
0.0
230
1.0
0
LINE
5
191
330
1C
100
AcDbEntity
67
0
8
DBDT
62
256
6
ByLayer
370
-1
48
1.0
60
0
100
AcDbLine
10
-252.121
20
486.167
30
0.0
11
-252.172
21
484.782
31
0.0
39
0.0
210
0.0
220
0.0
230
1.0
0
LINE
5
192
330
1C
100
AcDbEntity
67
0
8
DBDT
62
256
6
ByLayer
370
-1
48
1.0
60
0
100
AcDbLine
10
-252.172
20
484.782
30
0.0
11
-252.197
21
483.394
31
0.0
39
0.0
210
0.0
220
0.0
230
1.0
0
LINE
5
193
330
1C
100
AcDbEntity
67
0
8
DBDT
62
256
6
ByLayer
370
-1
48
1.0
60
0
100
AcDbLine
10
-252.197
20
483.394
30
0.0
11
-252.197
21
482.006
31
0.0
39
0.0
210
0.0
220
0.0
230
1.0
0
LINE
5
194
330
1C
100
AcDbEntity
67
0
8
DBDT
62
256
6
ByLayer
370
-1
48
1.0
60
0
100
AcDbLine
10
-252.197
20
482.006
30
0.0
11
-252.172
21
480.618
31
0.0
39
0.0
210
0.0
220
0.0
230
1.0
0
LINE
5
195
330
1C
100
AcDbEntity
67
0
8
DBDT
62
256
6
ByLayer
370
-1
48
1.0
60
0
100
AcDbLine
10
-252.172
20
480.618
30
0.0
11
-252.121
21
479.233
31
0.0
39
0.0
210
0.0
220
0.0
230
1.0
0
LINE
5
196
330
1C
100
AcDbEntity
67
0
8
DBDT
62
256
6
ByLayer
370
-1
48
1.0
60
0
100
AcDbLine
10
-252.121
20
479.233
30
0.0
11
-252.046
21
477.851
31
0.0
39
0.0
210
0.0
220
0.0
230
1.0
0
LINE
5
197
330
1C
100
AcDbEntity
67
0
8
DBDT
62
256
6
ByLayer
370
-1
48
1.0
60
0
100
AcDbLine
10
-252.046
20
477.851
30
0.0
11
-251.946
21
476.474
31
0.0
39
0.0
210
0.0
220
0.0
230
1.0
0
LINE
5
198
330
1C
100
AcDbEntity
67
0
8
DBDT
62
256
6
ByLayer
370
-1
48
1.0
60
0
100
AcDbLine
10
-251.946
20
476.474
30
0.0
11
-251.82
21
475.103
31
0.0
39
0.0
210
0.0
220
0.0
230
1.0
0
LINE
5
199
330
1C
100
AcDbEntity
67
0
8
DBDT
62
256
6
ByLayer
370
-1
48
1.0
60
0
100
AcDbLine
10
-251.82
20
475.103
30
0.0
11
-251.67
21
473.74
31
0.0
39
0.0
210
0.0
220
0.0
230
1.0
0
LINE
5
19A
330
1C
100
AcDbEntity
67
0
8
DBDT
62
256
6
ByLayer
370
-1
48
1.0
60
0
100
AcDbLine
10
-251.67
20
473.74
30
0.0
11
-251.495
21
472.386
31
0.0
39
0.0
210
0.0
220
0.0
230
1.0
0
LINE
5
19B
330
1C
100
AcDbEntity
67
0
8
DBDT
62
256
6
ByLayer
370
-1
48
1.0
60
0
100
AcDbLine
10
-251.495
20
472.386
30
0.0
11
-251.296
21
471.042
31
0.0
39
0.0
210
0.0
220
0.0
230
1.0
0
LINE
5
19C
330
1C
100
AcDbEntity
67
0
8
DBDT
62
256
6
ByLayer
370
-1
48
1.0
60
0
100
AcDbLine
10
-251.296
20
471.042
30
0.0
11
-251.073
21
469.71
31
0.0
39
0.0
210
0.0
220
0.0
230
1.0
0
LINE
5
19D
330
1C
100
AcDbEntity
67
0
8
DBDT
62
256
6
ByLayer
370
-1
48
1.0
60
0
100
AcDbLine
10
-251.073
20
469.71
30
0.0
11
-250.825
21
468.391
31
0.0
39
0.0
210
0.0
220
0.0
230
1.0
0
LINE
5
19E
330
1C
100
AcDbEntity
67
0
8
DBDT
62
256
6
ByLayer
370
-1
48
1.0
60
0
100
AcDbLine
10
-250.825
20
468.391
30
0.0
11
-250.554
21
467.086
31
0.0
39
0.0
210
0.0
220
0.0
230
1.0
0
LINE
5
19F
330
1C
100
AcDbEntity
67
0
8
DBDT
62
256
6
ByLayer
370
-1
48
1.0
60
0
100
AcDbLine
10
-250.554
20
467.086
30
0.0
11
-250.259
21
465.797
31
0.0
39
0.0
210
0.0
220
0.0
230
1.0
0
LINE
5
1A0
330
1C
100
AcDbEntity
67
0
8
DBDT
62
256
6
ByLayer
370
-1
48
1.0
60
0
100
AcDbLine
10
-250.259
20
465.797
30
0.0
11
-249.941
21
464.526
31
0.0
39
0.0
210
0.0
220
0.0
230
1.0
0
LINE
5
1A1
330
1C
100
AcDbEntity
67
0
8
DBDT
62
256
6
ByLayer
370
-1
48
1.0
60
0
100
AcDbLine
10
-249.941
20
464.526
30
0.0
11
-249.6
21
463.272
31
0.0
39
0.0
210
0.0
220
0.0
230
1.0
0
LINE
5
1A2
330
1C
100
AcDbEntity
67
0
8
DBDT
62
256
6
ByLayer
370
-1
48
1.0
60
0
100
AcDbLine
10
-249.6
20
463.272
30
0.0
11
-249.236
21
462.038
31
0.0
39
0.0
210
0.0
220
0.0
230
1.0
0
LINE
5
1A3
330
1C
100
AcDbEntity
67
0
8
DBDT
62
256
6
ByLayer
370
-1
48
1.0
60
0
100
AcDbLine
10
-249.236
20
462.038
30
0.0
11
-248.851
21
460.825
31
0.0
39
0.0
210
0.0
220
0.0
230
1.0
0
LINE
5
1A4
330
1C
100
AcDbEntity
67
0
8
DBDT
62
256
6
ByLayer
370
-1
48
1.0
60
0
100
AcDbLine
10
-248.851
20
460.825
30
0.0
11
-248.443
21
459.634
31
0.0
39
0.0
210
0.0
220
0.0
230
1.0
0
LINE
5
1A5
330
1C
100
AcDbEntity
67
0
8
DBDT
62
256
6
ByLayer
370
-1
48
1.0
60
0
100
AcDbLine
10
-248.443
20
459.634
30
0.0
11
-248.014
21
458.466
31
0.0
39
0.0
210
0.0
220
0.0
230
1.0
0
LINE
5
1A6
330
1C
100
AcDbEntity
67
0
8
DBDT
62
256
6
ByLayer
370
-1
48
1.0
60
0
100
AcDbLine
10
-248.014
20
458.466
30
0.0
11
-247.564
21
457.323
31
0.0
39
0.0
210
0.0
220
0.0
230
1.0
0
LINE
5
1A7
330
1C
100
AcDbEntity
67
0
8
DBDT
62
256
6
ByLayer
370
-1
48
1.0
60
0
100
AcDbLine
10
-247.564
20
457.323
30
0.0
11
-247.094
21
456.205
31
0.0
39
0.0
210
0.0
220
0.0
230
1.0
0
LINE
5
1A8
330
1C
100
AcDbEntity
67
0
8
DBDT
62
256
6
ByLayer
370
-1
48
1.0
60
0
100
AcDbLine
10
-247.094
20
456.205
30
0.0
11
-246.604
21
455.113
31
0.0
39
0.0
210
0.0
220
0.0
230
1.0
0
LINE
5
1A9
330
1C
100
AcDbEntity
67
0
8
DBDT
62
256
6
ByLayer
370
-1
48
1.0
60
0
100
AcDbLine
10
-246.604
20
455.113
30
0.0
11
-246.094
21
454.05
31
0.0
39
0.0
210
0.0
220
0.0
230
1.0
0
LINE
5
1AA
330
1C
100
AcDbEntity
67
0
8
DBDT
62
256
6
ByLayer
370
-1
48
1.0
60
0
100
AcDbLine
10
-246.094
20
454.05
30
0.0
11
-245.565
21
453.015
31
0.0
39
0.0
210
0.0
220
0.0
230
1.0
0
LINE
5
1AB
330
1C
100
AcDbEntity
67
0
8
DBDT
62
256
6
ByLayer
370
-1
48
1.0
60
0
100
AcDbLine
10
-245.565
20
453.015
30
0.0
11
-245.017
21
452.01
31
0.0
39
0.0
210
0.0
220
0.0
230
1.0
0
LINE
5
1AC
330
1C
100
AcDbEntity
67
0
8
DBDT
62
256
6
ByLayer
370
-1
48
1.0
60
0
100
AcDbLine
10
-245.017
20
452.01
30
0.0
11
-244.452
21
451.037
31
0.0
39
0.0
210
0.0
220
0.0
230
1.0
0
LINE
5
1AD
330
1C
100
AcDbEntity
67
0
8
DBDT
62
256
6
ByLayer
370
-1
48
1.0
60
0
100
AcDbLine
10
-244.452
20
451.037
30
0.0
11
-243.869
21
450.095
31
0.0
39
0.0
210
0.0
220
0.0
230
1.0
0
LINE
5
1AE
330
1C
100
AcDbEntity
67
0
8
DBDT
62
256
6
ByLayer
370
-1
48
1.0
60
0
100
AcDbLine
10
-243.869
20
450.095
30
0.0
11
-243.27
21
449.186
31
0.0
39
0.0
210
0.0
220
0.0
230
1.0
0
LINE
5
1AF
330
1C
100
AcDbEntity
67
0
8
DBDT
62
256
6
ByLayer
370
-1
48
1.0
60
0
100
AcDbLine
10
-243.27
20
449.186
30
0.0
11
-242.654
21
448.31
31
0.0
39
0.0
210
0.0
220
0.0
230
1.0
0
LINE
5
1B0
330
1C
100
AcDbEntity
67
0
8
DBDT
62
256
6
ByLayer
370
-1
48
1.0
60
0
100
AcDbLine
10
-242.654
20
448.31
30
0.0
11
-242.023
21
447.469
31
0.0
39
0.0
210
0.0
220
0.0
230
1.0
0
LINE
5
1B1
330
1C
100
AcDbEntity
67
0
8
DBDT
62
256
6
ByLayer
370
-1
48
1.0
60
0
100
AcDbLine
10
-242.023
20
447.469
30
0.0
11
-241.376
21
446.664
31
0.0
39
0.0
210
0.0
220
0.0
230
1.0
0
LINE
5
1B2
330
1C
100
AcDbEntity
67
0
8
DBDT
62
256
6
ByLayer
370
-1
48
1.0
60
0
100
AcDbLine
10
-241.376
20
446.664
30
0.0
11
-240.716
21
445.895
31
0.0
39
0.0
210
0.0
220
0.0
230
1.0
0
LINE
5
1B3
330
1C
100
AcDbEntity
67
0
8
DBDT
62
256
6
ByLayer
370
-1
48
1.0
60
0
100
AcDbLine
10
-240.716
20
445.895
30
0.0
11
-240.042
21
445.163
31
0.0
39
0.0
210
0.0
220
0.0
230
1.0
0
LINE
5
1B4
330
1C
100
AcDbEntity
67
0
8
DBDT
62
256
6
ByLayer
370
-1
48
1.0
60
0
100
AcDbLine
10
-240.042
20
445.163
30
0.0
11
-239.355
21
444.469
31
0.0
39
0.0
210
0.0
220
0.0
230
1.0
0
LINE
5
1B5
330
1C
100
AcDbEntity
67
0
8
DBDT
62
256
6
ByLayer
370
-1
48
1.0
60
0
100
AcDbLine
10
-239.355
20
444.469
30
0.0
11
-238.656
21
443.813
31
0.0
39
0.0
210
0.0
220
0.0
230
1.0
0
LINE
5
1B6
330
1C
100
AcDbEntity
67
0
8
DBDT
62
256
6
ByLayer
370
-1
48
1.0
60
0
100
AcDbLine
10
-238.656
20
443.813
30
0.0
11
-237.945
21
443.197
31
0.0
39
0.0
210
0.0
220
0.0
230
1.0
0
LINE
5
1B7
330
1C
100
AcDbEntity
67
0
8
DBDT
62
256
6
ByLayer
370
-1
48
1.0
60
0
100
AcDbLine
10
-237.945
20
443.197
30
0.0
11
-237.223
21
442.62
31
0.0
39
0.0
210
0.0
220
0.0
230
1.0
0
LINE
5
1B8
330
1C
100
AcDbEntity
67
0
8
DBDT
62
256
6
ByLayer
370
-1
48
1.0
60
0
100
AcDbLine
10
-237.223
20
442.62
30
0.0
11
-236.492
21
442.084
31
0.0
39
0.0
210
0.0
220
0.0
230
1.0
0
LINE
5
1B9
330
1C
100
AcDbEntity
67
0
8
DBDT
62
256
6
ByLayer
370
-1
48
1.0
60
0
100
AcDbLine
10
-236.492
20
442.084
30
0.0
11
-235.751
21
441.588
31
0.0
39
0.0
210
0.0
220
0.0
230
1.0
0
LINE
5
1BA
330
1C
100
AcDbEntity
67
0
8
DBDT
62
256
6
ByLayer
370
-1
48
1.0
60
0
100
AcDbLine
10
-235.751
20
441.588
30
0.0
11
-235.001
21
441.134
31
0.0
39
0.0
210
0.0
220
0.0
230
1.0
0
LINE
5
1BB
330
1C
100
AcDbEntity
67
0
8
DBDT
62
256
6
ByLayer
370
-1
48
1.0
60
0
100
AcDbLine
10
-235.001
20
441.134
30
0.0
11
-234.243
21
440.722
31
0.0
39
0.0
210
0.0
220
0.0
230
1.0
0
LINE
5
1BC
330
1C
100
AcDbEntity
67
0
8
DBDT
62
256
6
ByLayer
370
-1
48
1.0
60
0
100
AcDbLine
10
-234.243
20
440.722
30
0.0
11
-233.479
21
440.352
31
0.0
39
0.0
210
0.0
220
0.0
230
1.0
0
LINE
5
1BD
330
1C
100
AcDbEntity
67
0
8
DBDT
62
256
6
ByLayer
370
-1
48
1.0
60
0
100
AcDbLine
10
-233.479
20
440.352
30
0.0
11
-232.708
21
440.025
31
0.0
39
0.0
210
0.0
220
0.0
230
1.0
0
LINE
5
1BE
330
1C
100
AcDbEntity
67
0
8
DBDT
62
256
6
ByLayer
370
-1
48
1.0
60
0
100
AcDbLine
10
-232.708
20
440.025
30
0.0
11
-231.931
21
439.741
31
0.0
39
0.0
210
0.0
220
0.0
230
1.0
0
LINE
5
1BF
330
1C
100
AcDbEntity
67
0
8
DBDT
62
256
6
ByLayer
370
-1
48
1.0
60
0
100
AcDbLine
10
-231.931
20
439.741
30
0.0
11
-231.15
21
439.5
31
0.0
39
0.0
210
0.0
220
0.0
230
1.0
0
LINE
5
1C0
330
1C
100
AcDbEntity
67
0
8
DBDT
62
256
6
ByLayer
370
-1
48
1.0
60
0
100
AcDbLine
10
-231.15
20
439.5
30
0.0
11
-230.365
21
439.302
31
0.0
39
0.0
210
0.0
220
0.0
230
1.0
0
LINE
5
1C1
330
1C
100
AcDbEntity
67
0
8
DBDT
62
256
6
ByLayer
370
-1
48
1.0
60
0
100
AcDbLine
10
-230.365
20
439.302
30
0.0
11
-229.576
21
439.148
31
0.0
39
0.0
210
0.0
220
0.0
230
1.0
0
LINE
5
1C2
330
1C
100
AcDbEntity
67
0
8
DBDT
62
256
6
ByLayer
370
-1
48
1.0
60
0
100
AcDbLine
10
-229.576
20
439.148
30
0.0
11
-228.786
21
439.038
31
0.0
39
0.0
210
0.0
220
0.0
230
1.0
0
LINE
5
1C3
330
1C
100
AcDbEntity
67
0
8
DBDT
62
256
6
ByLayer
370
-1
48
1.0
60
0
100
AcDbLine
10
-228.786
20
439.038
30
0.0
11
-227.993
21
438.972
31
0.0
39
0.0
210
0.0
220
0.0
230
1.0
0
LINE
5
1C4
330
1C
100
AcDbEntity
67
0
8
DBDT
62
256
6
ByLayer
370
-1
48
1.0
60
0
100
AcDbLine
10
-227.993
20
438.972
30
0.0
11
-227.2
21
438.95
31
0.0
39
0.0
210
0.0
220
0.0
230
1.0
0
LINE
5
1C5
330
1C
100
AcDbEntity
67
0
8
DBDT
62
256
6
ByLayer
370
-1
48
1.0
60
0
100
AcDbLine
10
-227.2
20
438.95
30
0.0
11
-227.2
21
438.95
31
0.0
39
0.0
210
0.0
220
0.0
230
1.0
0
LINE
5
1C6
330
1C
100
AcDbEntity
67
0
8
DBDT
62
256
6
ByLayer
370
-1
48
1.0
60
0
100
AcDbLine
10
-352.2
20
486.45
30
0.0
11
-352.2
21
478.95
31
0.0
39
0.0
210
0.0
220
0.0
230
1.0
0
LINE
5
1C7
330
1C
100
AcDbEntity
67
0
8
DBDT
62
256
6
ByLayer
370
-1
48
1.0
60
0
100
AcDbLine
10
-102.2
20
538.95
30
0.0
11
-299.7
21
538.95
31
0.0
39
0.0
210
0.0
220
0.0
230
1.0
0
LINE
5
1C8
330
1C
100
AcDbEntity
67
0
8
DBDT
62
256
6
ByLayer
370
-1
48
1.0
60
0
100
AcDbLine
10
-102.2
20
426.45
30
0.0
11
-102.2
21
538.95
31
0.0
39
0.0
210
0.0
220
0.0
230
1.0
0
LINE
5
1C9
330
1C
100
AcDbEntity
67
0
8
DBDT
62
256
6
ByLayer
370
-1
48
1.0
60
0
100
AcDbLine
10
-299.7
20
426.45
30
0.0
11
-102.2
21
426.45
31
0.0
39
0.0
210
0.0
220
0.0
230
1.0
0
CIRCLE
5
1CA
330
1C
100
AcDbEntity
67
0
8
DBDT
62
256
6
ByLayer
370
-1
48
1.0
60
0
100
AcDbCircle
10
-133.45
20
482.7
30
0.0
40
15.625
39
0.0
210
0.0
220
0.0
230
1.0
0
ARC
5
1CB
330
1C
100
AcDbEntity
67
0
8
DBDT
62
256
6
ByLayer
370
-1
48
1.0
60
0
100
AcDbCircle
39
0.0
10
-299.7
20
478.95
30
0.0
40
52.5
210
0.0
220
0.0
230
1.0
100
AcDbArc
50
180.0
51
270.0
0
ARC
5
1CC
330
1C
100
AcDbEntity
67
0
8
DBDT
62
256
6
ByLayer
370
-1
48
1.0
60
0
100
AcDbCircle
39
0.0
10
-299.7
20
486.45
30
0.0
40
52.5
210
0.0
220
0.0
230
1.0
100
AcDbArc
50
90.0
51
180.0
0
LINE
5
1CD
330
1C
100
AcDbEntity
67
0
8
DBDT
62
256
6
ByLayer
370
-1
48
1.0
60
0
100
AcDbLine
10
268.0
20
352.6
30
0.0
11
268.0
21
452.6
31
0.0
39
0.0
210
0.0
220
0.0
230
1.0
0
LINE
5
1CE
330
1C
100
AcDbEntity
67
0
8
DBDT
62
256
6
ByLayer
370
-1
48
1.0
60
0
100
AcDbLine
10
268.0
20
452.6
30
0.0
11
368.0
21
452.6
31
0.0
39
0.0
210
0.0
220
0.0
230
1.0
0
LINE
5
1CF
330
1C
100
AcDbEntity
67
0
8
DBDT
62
256
6
ByLayer
370
-1
48
1.0
60
0
100
AcDbLine
10
368.0
20
452.6
30
0.0
11
368.0
21
352.6
31
0.0
39
0.0
210
0.0
220
0.0
230
1.0
0
LINE
5
1D0
330
1C
100
AcDbEntity
67
0
8
DBDT
62
256
6
ByLayer
370
-1
48
1.0
60
0
100
AcDbLine
10
368.0
20
352.6
30
0.0
11
268.0
21
352.6
31
0.0
39
0.0
210
0.0
220
0.0
230
1.0
0
LINE
5
1D1
330
1C
100
AcDbEntity
67
0
8
DBDT
62
256
6
ByLayer
370
-1
48
1.0
60
0
100
AcDbLine
10
268.0
20
352.6
30
0.0
11
318.0
21
402.6
31
0.0
39
0.0
210
0.0
220
0.0
230
1.0
0
VIEWPORT
5
1D6
330
1D2
100
AcDbEntity
67
1
8
0
62
256
6
ByLayer
370
-1
48
1.0
60
0
100
AcDbViewport
10
0.0
20
0.0
30
0.0
40
297.0
41
210.0
68
1
69
1
12
50.0
22
100.0
13
0.0
23
0.0
14
10.0
24
10.0
15
10.0
25
10.0
16
0.0
26
0.0
36
1.0
17
0.0
27
0.0
37
0.0
42
50.0
43
0.0
44
0.0
45
250.0
50
0.0
51
0.0
72
1000
90
819232
110
0.0
120
0.0
130
0.0
111
1.0
121
0.0
131
0.0
112
0.0
122
1.0
132
0.0
0
ENDSEC
0
SECTION
2
OBJECTS
0
DICTIONARY
5
1DC
330
0
100
AcDbDictionary
280
1
281
1
3
ACAD_GROUP
350
12
3
ACAD_LAYOUT
350
1D5
3
ACAD_DGNDEFINITIONS
350
F
3
ACAD_DWFDEFINITIONS
350
10
3
ACAD_PDFDEFINITIONS
350
11
3
ACAD_MLINESTYLE
350
B
3
ACAD_IMAGE_DICT
350
E
3
ACAD_IMAGE_VARS
350
21
0
DICTIONARY
5
12
330
1DC
100
AcDbDictionary
280
1
281
1
0
DICTIONARY
5
1D5
330
1DC
100
AcDbDictionary
280
1
281
1
3
Model
350
20
3
Layout1
350
1D7
0
DICTIONARY
5
F
330
1DC
100
AcDbDictionary
280
1
281
1
0
DICTIONARY
5
10
330
1DC
100
AcDbDictionary
280
1
281
1
0
DICTIONARY
5
11
330
1DC
100
AcDbDictionary
280
1
281
1
0
DICTIONARY
5
B
330
1DC
100
AcDbDictionary
280
1
281
1
3
Standard
350
1B
0
DICTIONARY
5
E
330
1DC
100
AcDbDictionary
280
1
281
1
0
DICTIONARY
5
6
330
5
100
AcDbDictionary
280
1
281
1
3
ACAD_LAYERSTATES
360
1DD
0
DICTIONARY
5
1DD
330
6
100
AcDbDictionary
280
1
281
1
0
LAYOUT
5
20
330
1D5
100
AcDbPlotSettings
1

2
none_device
4
ISO_A4_(210.00_x_297.00_MM)
6

40
7.5
41
20.0
42
7.5
43
20.0
44
210.0
45
297.0
46
0.0
47
0.0
48
0.0
49
0.0
140
0.0
141
0.0
142
1.0
143
1.0
70
11952
72
1
73
1
74
1
7

75
0
76
0
77
2
78
300
147
1.0
148
0.0
149
0.0
100
AcDbLayout
1
Model
71
0
10
-20.0
20
-7.5
11
277.0
21
202.5
12
0.0
22
0.0
32
0.0
14
25.7
24
19.5
34
0.0
15
231.3
25
175.5
35
0.0
146
0.0
13
0.0
23
0.0
33
0.0
16
1.0
26
0.0
36
0.0
17
0.0
27
1.0
37
0.0
76
0
330
1C
0
LAYOUT
5
1D7
330
1D5
100
AcDbPlotSettings
1

2
none_device
4
ISO_A4_(210.00_x_297.00_MM)
6

40
7.5
41
20.0
42
7.5
43
20.0
44
210.0
45
297.0
46
0.0
47
0.0
48
0.0
49
0.0
140
0.0
141
0.0
142
1.0
143
1.0
70
688
72
1
73
1
74
1
7

75
0
76
0
77
2
78
300
147
1.0
148
0.0
149
0.0
100
AcDbLayout
1
Layout1
71
1
10
-20.0
20
-7.5
11
277.0
21
202.5
12
0.0
22
0.0
32
0.0
14
25.7
24
19.5
34
0.0
15
231.3
25
175.5
35
0.0
146
0.0
13
0.0
23
0.0
33
0.0
16
1.0
26
0.0
36
0.0
17
0.0
27
1.0
37
0.0
76
0
330
1D2
0
MLINESTYLE
5
1B
330
B
100
AcDbMlineStyle
2
Standard
70
0
3

62
256
51
90.0
52
90.0
71
2
49
0.5
62
256
6
ByLayer
49
-0.5
62
256
6
ByLayer
0
RASTERVARIABLES
5
21
330
E
100
AcDbRasterVariables
90
0
70
1
71
1
72
0
0
ENDSEC
0
EOF
